999
Zulu A7 board outline, 69.85 x 25.40 mm (2.750 x 1.000 in), origin at the lower left.
999
Four LINE entities on layer OUTLINE. Import with units = Millimeters, map OUTLINE to Mech 1,
999
then select all four and Design > Board Shape > Define from selected objects.
999
Written as data rather than drawn by hand, so the corners are exact.
0
SECTION
2
HEADER
9
$ACADVER
1
AC1009
9
$INSUNITS
70
4
9
$EXTMIN
10
0.0
20
0.0
30
0.0
9
$EXTMAX
10
69.85
20
25.4
30
0.0
0
ENDSEC
0
SECTION
2
TABLES
0
TABLE
2
LAYER
70
1
0
LAYER
2
OUTLINE
70
0
62
7
6
CONTINUOUS
0
ENDTAB
0
ENDSEC
0
SECTION
2
ENTITIES
0
LINE
8
OUTLINE
10
0.0
20
0.0
30
0.0
11
69.85
21
0.0
31
0.0
0
LINE
8
OUTLINE
10
69.85
20
0.0
30
0.0
11
69.85
21
25.4
31
0.0
0
LINE
8
OUTLINE
10
69.85
20
25.4
30
0.0
11
0.0
21
25.4
31
0.0
0
LINE
8
OUTLINE
10
0.0
20
25.4
30
0.0
11
0.0
21
0.0
31
0.0
0
ENDSEC
0
EOF
