G04*
G04 #@! TF.GenerationSoftware,Altium Limited,Altium Designer Develop,26.10.1 (6)*
G04*
G04 Layer_Color=8421504*
G04 Board_Origin=0|0*
%FSLAX44Y44*%
%MOMM*%
G71*
G04*
G04 #@! TF.SameCoordinates,8BF298F3-36F8-4FC7-A3F1-CF7386D1C0AB*
G04*
G04*
G04 #@! TF.FilePolarity,Positive*
G04*
G01*
G75*
%ADD12R,0.3000X0.3000*%
%ADD13R,0.3000X0.3000*%
%ADD14R,0.6500X1.0500*%
%ADD15R,0.5499X0.4001*%
%ADD16R,0.7000X0.5001*%
%ADD17R,1.1999X1.4001*%
%ADD18R,0.8999X0.4501*%
G04:AMPARAMS|DCode=19|XSize=0.225mm|YSize=0.225mm|CornerRadius=0.1125mm|HoleSize=0mm|Usage=FLASHONLY|Rotation=0.000|XOffset=0mm|YOffset=0mm|HoleType=Round|Shape=RoundedRectangle|*
%AMROUNDEDRECTD19*
21,1,0.2250,0.0000,0,0,0.0*
21,1,0.0000,0.2250,0,0,0.0*
1,1,0.2250,0.0000,0.0000*
1,1,0.2250,0.0000,0.0000*
1,1,0.2250,0.0000,0.0000*
1,1,0.2250,0.0000,0.0000*
%
%ADD19ROUNDEDRECTD19*%
%ADD20R,1.5100X0.5601*%
%ADD21R,1.0000X5.5001*%
%ADD22R,1.6000X3.0000*%
%ADD23R,1.5001X1.3000*%
%ADD24R,0.2799X1.5499*%
%ADD25R,1.5499X0.2799*%
%ADD26R,1.5001X1.5001*%
%ADD27R,1.4001X0.8001*%
%ADD28R,1.5001X0.8001*%
%ADD29R,1.0000X1.4501*%
%ADD30R,1.5499X1.0000*%
%ADD31R,1.7501X0.7000*%
%ADD32R,0.8999X0.8999*%
G04:AMPARAMS|DCode=33|XSize=1.8001mm|YSize=1.8999mm|CornerRadius=0.504mm|HoleSize=0mm|Usage=FLASHONLY|Rotation=0.000|XOffset=0mm|YOffset=0mm|HoleType=Round|Shape=RoundedRectangle|*
%AMROUNDEDRECTD33*
21,1,1.8001,0.8919,0,0,0.0*
21,1,0.7920,1.8999,0,0,0.0*
1,1,1.0080,0.3960,-0.4459*
1,1,1.0080,-0.3960,-0.4459*
1,1,1.0080,-0.3960,0.4459*
1,1,1.0080,0.3960,0.4459*
%
%ADD33ROUNDEDRECTD33*%
%ADD34R,1.5001X1.8999*%
%ADD35R,0.4001X1.3500*%
D12*
X230000Y75000D02*
D03*
X235999D02*
D03*
X387500Y180000D02*
D03*
X393499D02*
D03*
X256999Y202500D02*
D03*
X262999D02*
D03*
D13*
X181000Y163500D02*
D03*
Y169499D02*
D03*
D14*
X187251Y108451D02*
D03*
Y149950D02*
D03*
X208750Y108451D02*
D03*
Y149950D02*
D03*
D15*
X226751Y116099D02*
D03*
Y101601D02*
D03*
X240249Y116099D02*
D03*
Y101601D02*
D03*
D16*
X226000Y108850D02*
D03*
X241001D02*
D03*
D17*
X404500Y208499D02*
D03*
Y186500D02*
D03*
X421500D02*
D03*
Y208499D02*
D03*
D18*
X601499Y153779D02*
D03*
Y161780D02*
D03*
Y169781D02*
D03*
Y177780D02*
D03*
Y185781D02*
D03*
Y193779D02*
D03*
Y201780D02*
D03*
Y209781D02*
D03*
X584501D02*
D03*
Y201780D02*
D03*
Y193779D02*
D03*
Y185781D02*
D03*
Y177780D02*
D03*
Y169781D02*
D03*
Y161780D02*
D03*
Y153779D02*
D03*
D19*
X419000Y164000D02*
D03*
X484001D02*
D03*
X489000D02*
D03*
X494001D02*
D03*
X499000D02*
D03*
X504001D02*
D03*
X424001D02*
D03*
X429000D02*
D03*
X434001D02*
D03*
X439000D02*
D03*
X444001D02*
D03*
X419000Y158999D02*
D03*
X489000D02*
D03*
X494001D02*
D03*
X499000D02*
D03*
X504001D02*
D03*
X424001D02*
D03*
X429000D02*
D03*
X434001D02*
D03*
X439000D02*
D03*
X444001D02*
D03*
X419000Y154000D02*
D03*
X489000D02*
D03*
X494001D02*
D03*
X499000D02*
D03*
X424001D02*
D03*
X429000D02*
D03*
X434001D02*
D03*
X439000D02*
D03*
X444001D02*
D03*
X419000Y148999D02*
D03*
X499000D02*
D03*
X504001D02*
D03*
X509000D02*
D03*
X424001D02*
D03*
X429000D02*
D03*
X419000Y144000D02*
D03*
X424001D02*
D03*
X429000D02*
D03*
X419000Y138999D02*
D03*
X504001D02*
D03*
X424001D02*
D03*
X429000D02*
D03*
X419000Y134000D02*
D03*
X499000D02*
D03*
X504001D02*
D03*
X509000D02*
D03*
X424001D02*
D03*
X429000D02*
D03*
X419000Y128999D02*
D03*
X499000D02*
D03*
X509000D02*
D03*
X424001D02*
D03*
X429000D02*
D03*
X419000Y124000D02*
D03*
X499000D02*
D03*
X504001D02*
D03*
X509000D02*
D03*
X424001D02*
D03*
X429000D02*
D03*
X419000Y118999D02*
D03*
X499000D02*
D03*
X504001D02*
D03*
X509000D02*
D03*
X424001D02*
D03*
X429000D02*
D03*
X419000Y114000D02*
D03*
X499000D02*
D03*
X504001D02*
D03*
X424001D02*
D03*
X429000D02*
D03*
X419000Y108999D02*
D03*
X504001D02*
D03*
X509000D02*
D03*
X424001D02*
D03*
X429000D02*
D03*
X419000Y104000D02*
D03*
X499000D02*
D03*
X504001D02*
D03*
X424001D02*
D03*
X429000D02*
D03*
X419000Y98999D02*
D03*
X499000D02*
D03*
X504001D02*
D03*
X424001D02*
D03*
X429000D02*
D03*
X419000Y94000D02*
D03*
X504001D02*
D03*
X424001D02*
D03*
X429000D02*
D03*
X419000Y88999D02*
D03*
X424001D02*
D03*
X429000D02*
D03*
X419000Y84000D02*
D03*
X509000D02*
D03*
X424001D02*
D03*
X429000D02*
D03*
X434001D02*
D03*
X439000D02*
D03*
X449000D02*
D03*
X454001D02*
D03*
X419000Y78999D02*
D03*
X509000D02*
D03*
X424001D02*
D03*
X429000D02*
D03*
X434001D02*
D03*
X439000D02*
D03*
X454001D02*
D03*
X419000Y74000D02*
D03*
X509000D02*
D03*
X424001D02*
D03*
X429000D02*
D03*
X434001D02*
D03*
X439000D02*
D03*
X444001D02*
D03*
X449000D02*
D03*
X504001D02*
D03*
X499000Y88999D02*
D03*
X509000Y164000D02*
D03*
X449000D02*
D03*
X459000D02*
D03*
X484001Y158999D02*
D03*
X509000D02*
D03*
X449000D02*
D03*
X459000D02*
D03*
X464001Y154000D02*
D03*
X469000D02*
D03*
X484001D02*
D03*
X504001D02*
D03*
X509000D02*
D03*
X454001D02*
D03*
X499000Y144000D02*
D03*
Y138999D02*
D03*
X509000D02*
D03*
X464001Y134000D02*
D03*
X469000D02*
D03*
X474001D02*
D03*
X479000D02*
D03*
X454001D02*
D03*
X464001Y128999D02*
D03*
X469000D02*
D03*
X474001D02*
D03*
X479000D02*
D03*
X504001D02*
D03*
X449000D02*
D03*
X454001D02*
D03*
X464001Y124000D02*
D03*
X469000D02*
D03*
X474001D02*
D03*
X479000D02*
D03*
X449000D02*
D03*
X454001D02*
D03*
X459000D02*
D03*
X474001Y118999D02*
D03*
X479000D02*
D03*
X449000D02*
D03*
X454001D02*
D03*
X464001Y114000D02*
D03*
X469000D02*
D03*
X474001D02*
D03*
X479000D02*
D03*
X509000D02*
D03*
X449000D02*
D03*
X454001D02*
D03*
X459000D02*
D03*
X464001Y108999D02*
D03*
X469000D02*
D03*
X449000Y134000D02*
D03*
Y154000D02*
D03*
X474001D02*
D03*
X479000D02*
D03*
X454001Y164000D02*
D03*
X464001D02*
D03*
X469000D02*
D03*
X474001D02*
D03*
X479000D02*
D03*
X454001Y158999D02*
D03*
X464001D02*
D03*
X469000D02*
D03*
X474001D02*
D03*
X479000D02*
D03*
X459000Y154000D02*
D03*
X504001Y144000D02*
D03*
X509000D02*
D03*
Y104000D02*
D03*
Y98999D02*
D03*
Y94000D02*
D03*
X504001Y88999D02*
D03*
X484001Y84000D02*
D03*
X489000D02*
D03*
X494001D02*
D03*
X499000D02*
D03*
X504001D02*
D03*
X449000Y78999D02*
D03*
X479000D02*
D03*
X484001D02*
D03*
X489000D02*
D03*
X494001D02*
D03*
X499000D02*
D03*
X479000Y74000D02*
D03*
X484001D02*
D03*
X489000D02*
D03*
X494001D02*
D03*
X499000D02*
D03*
X459000Y134000D02*
D03*
Y128999D02*
D03*
X474001Y108999D02*
D03*
X479000D02*
D03*
X499000D02*
D03*
X449000D02*
D03*
X454001D02*
D03*
X459000D02*
D03*
X464001Y104000D02*
D03*
X469000D02*
D03*
X474001D02*
D03*
X479000D02*
D03*
X449000D02*
D03*
X454001D02*
D03*
X459000D02*
D03*
X499000Y94000D02*
D03*
X509000Y88999D02*
D03*
X464001Y84000D02*
D03*
X469000D02*
D03*
X474001D02*
D03*
X479000D02*
D03*
X444001D02*
D03*
X459000D02*
D03*
X464001Y78999D02*
D03*
X469000D02*
D03*
X474001D02*
D03*
X504001D02*
D03*
X444001D02*
D03*
X459000D02*
D03*
X464001Y74000D02*
D03*
X469000D02*
D03*
X474001D02*
D03*
X454001D02*
D03*
X459000D02*
D03*
D20*
X438500Y213050D02*
D03*
Y200350D02*
D03*
Y187650D02*
D03*
Y174950D02*
D03*
X511500D02*
D03*
Y187650D02*
D03*
Y200350D02*
D03*
Y213050D02*
D03*
D21*
X314000Y30501D02*
D03*
X334000D02*
D03*
D22*
X290000Y53000D02*
D03*
X358000D02*
D03*
D23*
X548002Y174490D02*
D03*
Y157492D02*
D03*
X530001Y75498D02*
D03*
Y58500D02*
D03*
X548002Y141493D02*
D03*
Y124495D02*
D03*
X566003Y174490D02*
D03*
Y157492D02*
D03*
Y141493D02*
D03*
Y124495D02*
D03*
X530001Y174490D02*
D03*
Y157492D02*
D03*
Y108495D02*
D03*
Y91497D02*
D03*
X566003Y75498D02*
D03*
Y58500D02*
D03*
X548002Y75498D02*
D03*
Y58500D02*
D03*
X530001Y141493D02*
D03*
Y124495D02*
D03*
X566003Y108495D02*
D03*
Y91497D02*
D03*
X548002Y108495D02*
D03*
Y91497D02*
D03*
X140250Y67750D02*
D03*
D24*
X277250Y193001D02*
D03*
X282251D02*
D03*
X287250D02*
D03*
X292251D02*
D03*
X297250D02*
D03*
X302251D02*
D03*
X307250D02*
D03*
X312251D02*
D03*
X317250D02*
D03*
X322251D02*
D03*
X327249D02*
D03*
X332251D02*
D03*
X337249D02*
D03*
X342251D02*
D03*
X347249D02*
D03*
X352251D02*
D03*
Y79000D02*
D03*
X347249D02*
D03*
X342251D02*
D03*
X337249D02*
D03*
X332251D02*
D03*
X327249D02*
D03*
X322251D02*
D03*
X317250D02*
D03*
X312251D02*
D03*
X307250D02*
D03*
X302251D02*
D03*
X297250D02*
D03*
X292251D02*
D03*
X287250D02*
D03*
X282251D02*
D03*
X277250D02*
D03*
D25*
X371750Y173501D02*
D03*
Y168500D02*
D03*
Y163501D02*
D03*
Y158500D02*
D03*
Y153501D02*
D03*
Y148500D02*
D03*
Y143501D02*
D03*
Y138500D02*
D03*
Y133501D02*
D03*
Y128500D02*
D03*
Y123501D02*
D03*
Y118500D02*
D03*
Y113501D02*
D03*
Y108500D02*
D03*
Y103501D02*
D03*
Y98500D02*
D03*
X257750D02*
D03*
Y103501D02*
D03*
Y108500D02*
D03*
Y113501D02*
D03*
Y118500D02*
D03*
Y123501D02*
D03*
Y128500D02*
D03*
Y133501D02*
D03*
Y138500D02*
D03*
Y143501D02*
D03*
Y148500D02*
D03*
Y153501D02*
D03*
Y158500D02*
D03*
Y163501D02*
D03*
Y168500D02*
D03*
Y173501D02*
D03*
D26*
X140250Y181250D02*
D03*
D27*
X57751Y184750D02*
D03*
D28*
X64251Y65251D02*
D03*
D29*
X49250Y68499D02*
D03*
D30*
X33499Y180749D02*
D03*
D31*
X141500Y79749D02*
D03*
Y90750D02*
D03*
Y101750D02*
D03*
Y112751D02*
D03*
Y123749D02*
D03*
Y134750D02*
D03*
Y145751D02*
D03*
Y156749D02*
D03*
D32*
X241501Y125850D02*
D03*
X225499D02*
D03*
X241501Y137850D02*
D03*
X225499D02*
D03*
X241501Y161850D02*
D03*
X225499D02*
D03*
X241501Y173850D02*
D03*
X225499D02*
D03*
X241501Y149850D02*
D03*
X225499D02*
D03*
D33*
X362199Y239585D02*
D03*
X298201D02*
D03*
D34*
X340200D02*
D03*
X320200D02*
D03*
D35*
X317201Y212585D02*
D03*
X323700D02*
D03*
X330200D02*
D03*
X336700D02*
D03*
X343200D02*
D03*
M02*
