G04*
G04 #@! TF.GenerationSoftware,Altium Limited,Altium Designer Develop,26.10.1 (6)*
G04*
G04 Layer_Physical_Order=1*
G04 Layer_Color=255*
G04 Board_Origin=0|0*
%FSLAX44Y44*%
%MOMM*%
G71*
G04*
G04 #@! TF.SameCoordinates,263090AC-449C-43EE-9214-04A335A6000A*
G04*
G04*
G04 #@! TF.FilePolarity,Positive*
G04*
G01*
G75*
%ADD11R,0.3000X0.3000*%
%ADD12R,0.3000X0.3000*%
%ADD13R,0.6500X1.0500*%
%ADD14R,0.5499X0.4001*%
%ADD15R,0.7000X0.5001*%
%ADD16R,1.1999X1.4001*%
%ADD17R,0.8999X0.4501*%
G04:AMPARAMS|DCode=18|XSize=0.225mm|YSize=0.225mm|CornerRadius=0.1125mm|HoleSize=0mm|Usage=FLASHONLY|Rotation=0.000|XOffset=0mm|YOffset=0mm|HoleType=Round|Shape=RoundedRectangle|*
%AMROUNDEDRECTD18*
21,1,0.2250,0.0000,0,0,0.0*
21,1,0.0000,0.2250,0,0,0.0*
1,1,0.2250,0.0000,0.0000*
1,1,0.2250,0.0000,0.0000*
1,1,0.2250,0.0000,0.0000*
1,1,0.2250,0.0000,0.0000*
%
%ADD18ROUNDEDRECTD18*%
%ADD19R,1.5100X0.5601*%
%ADD20R,1.0000X5.5001*%
%ADD21R,1.6000X3.0000*%
%ADD22R,1.5001X1.3000*%
%ADD23R,0.2799X1.5499*%
%ADD24R,1.5499X0.2799*%
%ADD25R,1.5001X1.5001*%
%ADD26R,1.4001X0.8001*%
%ADD27R,1.5001X0.8001*%
%ADD28R,1.0000X1.4501*%
%ADD29R,1.5499X1.0000*%
%ADD30R,1.7501X0.7000*%
%ADD31R,0.8999X0.8999*%
G04:AMPARAMS|DCode=32|XSize=1.8001mm|YSize=1.8999mm|CornerRadius=0.504mm|HoleSize=0mm|Usage=FLASHONLY|Rotation=0.000|XOffset=0mm|YOffset=0mm|HoleType=Round|Shape=RoundedRectangle|*
%AMROUNDEDRECTD32*
21,1,1.8001,0.8919,0,0,0.0*
21,1,0.7920,1.8999,0,0,0.0*
1,1,1.0080,0.3960,-0.4459*
1,1,1.0080,-0.3960,-0.4459*
1,1,1.0080,-0.3960,0.4459*
1,1,1.0080,0.3960,0.4459*
%
%ADD32ROUNDEDRECTD32*%
%ADD33R,1.5001X1.8999*%
%ADD34R,0.4001X1.3500*%
%ADD66C,0.0762*%
%ADD67C,0.1500*%
%ADD68C,0.3000*%
%ADD69C,0.0800*%
%ADD70C,0.2000*%
%ADD71C,0.1450*%
%ADD72C,0.4600*%
%ADD73C,0.5000*%
%ADD74C,0.4000*%
%ADD75C,0.3800*%
%ADD76C,0.2450*%
%ADD77C,0.2800*%
%ADD78C,0.4300*%
%ADD79C,0.4650*%
%ADD80C,0.4250*%
%ADD81C,0.3650*%
%ADD82C,0.1400*%
%ADD83C,0.2600*%
%ADD84C,0.2400*%
%ADD85C,0.1050*%
%ADD86C,0.1300*%
%ADD87C,0.1000*%
%ADD88C,0.2200*%
%ADD89C,0.1100*%
%ADD90C,0.2700*%
%ADD91C,0.2100*%
%ADD92C,0.1800*%
%ADD93C,0.2500*%
%ADD94C,0.2750*%
%ADD95C,1.5000*%
%ADD96C,1.2000*%
%ADD97C,0.6000*%
%ADD98C,0.7000*%
%ADD99C,1.4000*%
%ADD100C,1.0000*%
%ADD101C,0.5500*%
%ADD102C,0.8000*%
%ADD103C,0.4500*%
%ADD104R,1.8796X1.8796*%
G04:AMPARAMS|DCode=105|XSize=1.8796mm|YSize=1.8796mm|CornerRadius=0mm|HoleSize=0mm|Usage=FLASHONLY|Rotation=90.000|XOffset=0mm|YOffset=0mm|HoleType=Round|Shape=Octagon|*
%AMOCTAGOND105*
4,1,8,0.4699,0.9398,-0.4699,0.9398,-0.9398,0.4699,-0.9398,-0.4699,-0.4699,-0.9398,0.4699,-0.9398,0.9398,-0.4699,0.9398,0.4699,0.4699,0.9398,0.0*
%
%ADD105OCTAGOND105*%

%ADD106R,1.5240X1.5240*%
%ADD107C,1.5240*%
%ADD108R,1.5240X1.5240*%
%ADD109O,1.1100X1.8100*%
%ADD110C,1.4501*%
%ADD111C,0.3000*%
%ADD112C,0.3500*%
D11*
X230000Y75000D02*
D03*
X235999D02*
D03*
X387500Y180000D02*
D03*
X393499D02*
D03*
X256999Y202500D02*
D03*
X262999D02*
D03*
D12*
X181000Y163500D02*
D03*
Y169499D02*
D03*
D13*
X192251Y108451D02*
D03*
Y149950D02*
D03*
X213750Y108451D02*
D03*
Y149950D02*
D03*
D14*
X226751Y116099D02*
D03*
Y101601D02*
D03*
X240249Y116099D02*
D03*
Y101601D02*
D03*
D15*
X226000Y108850D02*
D03*
X241001D02*
D03*
D16*
X404500Y208499D02*
D03*
Y186500D02*
D03*
X421500D02*
D03*
Y208499D02*
D03*
D17*
X601499Y153779D02*
D03*
Y161780D02*
D03*
Y169781D02*
D03*
Y177780D02*
D03*
Y185781D02*
D03*
Y193779D02*
D03*
Y201780D02*
D03*
Y209781D02*
D03*
X584501D02*
D03*
Y201780D02*
D03*
Y193779D02*
D03*
Y185781D02*
D03*
Y177780D02*
D03*
Y169781D02*
D03*
Y161780D02*
D03*
Y153779D02*
D03*
D18*
X419000Y164000D02*
D03*
X484001D02*
D03*
X489000D02*
D03*
X494001D02*
D03*
X499000D02*
D03*
X504001D02*
D03*
X424001D02*
D03*
X429000D02*
D03*
X434001D02*
D03*
X439000D02*
D03*
X444001D02*
D03*
X419000Y158999D02*
D03*
X489000D02*
D03*
X494001D02*
D03*
X499000D02*
D03*
X504001D02*
D03*
X424001D02*
D03*
X429000D02*
D03*
X434001D02*
D03*
X439000D02*
D03*
X444001D02*
D03*
X419000Y154000D02*
D03*
X489000D02*
D03*
X494001D02*
D03*
X499000D02*
D03*
X424001D02*
D03*
X429000D02*
D03*
X434001D02*
D03*
X439000D02*
D03*
X444001D02*
D03*
X419000Y148999D02*
D03*
X499000D02*
D03*
X504001D02*
D03*
X509000D02*
D03*
X424001D02*
D03*
X429000D02*
D03*
X419000Y144000D02*
D03*
X424001D02*
D03*
X429000D02*
D03*
X419000Y138999D02*
D03*
X504001D02*
D03*
X424001D02*
D03*
X429000D02*
D03*
X419000Y134000D02*
D03*
X499000D02*
D03*
X504001D02*
D03*
X509000D02*
D03*
X424001D02*
D03*
X429000D02*
D03*
X419000Y128999D02*
D03*
X499000D02*
D03*
X509000D02*
D03*
X424001D02*
D03*
X429000D02*
D03*
X419000Y124000D02*
D03*
X499000D02*
D03*
X504001D02*
D03*
X509000D02*
D03*
X424001D02*
D03*
X429000D02*
D03*
X419000Y118999D02*
D03*
X499000D02*
D03*
X504001D02*
D03*
X509000D02*
D03*
X424001D02*
D03*
X429000D02*
D03*
X419000Y114000D02*
D03*
X499000D02*
D03*
X504001D02*
D03*
X424001D02*
D03*
X429000D02*
D03*
X419000Y108999D02*
D03*
X504001D02*
D03*
X509000D02*
D03*
X424001D02*
D03*
X429000D02*
D03*
X419000Y104000D02*
D03*
X499000D02*
D03*
X504001D02*
D03*
X424001D02*
D03*
X429000D02*
D03*
X419000Y98999D02*
D03*
X499000D02*
D03*
X504001D02*
D03*
X424001D02*
D03*
X429000D02*
D03*
X419000Y94000D02*
D03*
X504001D02*
D03*
X424001D02*
D03*
X429000D02*
D03*
X419000Y88999D02*
D03*
X424001D02*
D03*
X429000D02*
D03*
X419000Y84000D02*
D03*
X509000D02*
D03*
X424001D02*
D03*
X429000D02*
D03*
X434001D02*
D03*
X439000D02*
D03*
X449000D02*
D03*
X454001D02*
D03*
X419000Y78999D02*
D03*
X509000D02*
D03*
X424001D02*
D03*
X429000D02*
D03*
X434001D02*
D03*
X439000D02*
D03*
X454001D02*
D03*
X419000Y74000D02*
D03*
X509000D02*
D03*
X424001D02*
D03*
X429000D02*
D03*
X434001D02*
D03*
X439000D02*
D03*
X444001D02*
D03*
X449000D02*
D03*
X504001D02*
D03*
X499000Y88999D02*
D03*
X509000Y164000D02*
D03*
X449000D02*
D03*
X459000D02*
D03*
X484001Y158999D02*
D03*
X509000D02*
D03*
X449000D02*
D03*
X459000D02*
D03*
X464001Y154000D02*
D03*
X469000D02*
D03*
X484001D02*
D03*
X504001D02*
D03*
X509000D02*
D03*
X454001D02*
D03*
X499000Y144000D02*
D03*
Y138999D02*
D03*
X509000D02*
D03*
X464001Y134000D02*
D03*
X469000D02*
D03*
X474001D02*
D03*
X479000D02*
D03*
X454001D02*
D03*
X464001Y128999D02*
D03*
X469000D02*
D03*
X474001D02*
D03*
X479000D02*
D03*
X504001D02*
D03*
X449000D02*
D03*
X454001D02*
D03*
X464001Y124000D02*
D03*
X469000D02*
D03*
X474001D02*
D03*
X479000D02*
D03*
X449000D02*
D03*
X454001D02*
D03*
X459000D02*
D03*
X474001Y118999D02*
D03*
X479000D02*
D03*
X449000D02*
D03*
X454001D02*
D03*
X464001Y114000D02*
D03*
X469000D02*
D03*
X474001D02*
D03*
X479000D02*
D03*
X509000D02*
D03*
X449000D02*
D03*
X454001D02*
D03*
X459000D02*
D03*
X464001Y108999D02*
D03*
X469000D02*
D03*
X449000Y134000D02*
D03*
Y154000D02*
D03*
X474001D02*
D03*
X479000D02*
D03*
X454001Y164000D02*
D03*
X464001D02*
D03*
X469000D02*
D03*
X474001D02*
D03*
X479000D02*
D03*
X454001Y158999D02*
D03*
X464001D02*
D03*
X469000D02*
D03*
X474001D02*
D03*
X479000D02*
D03*
X459000Y154000D02*
D03*
X504001Y144000D02*
D03*
X509000D02*
D03*
Y104000D02*
D03*
Y98999D02*
D03*
Y94000D02*
D03*
X504001Y88999D02*
D03*
X484001Y84000D02*
D03*
X489000D02*
D03*
X494001D02*
D03*
X499000D02*
D03*
X504001D02*
D03*
X449000Y78999D02*
D03*
X479000D02*
D03*
X484001D02*
D03*
X489000D02*
D03*
X494001D02*
D03*
X499000D02*
D03*
X479000Y74000D02*
D03*
X484001D02*
D03*
X489000D02*
D03*
X494001D02*
D03*
X499000D02*
D03*
X459000Y134000D02*
D03*
Y128999D02*
D03*
X474001Y108999D02*
D03*
X479000D02*
D03*
X499000D02*
D03*
X449000D02*
D03*
X454001D02*
D03*
X459000D02*
D03*
X464001Y104000D02*
D03*
X469000D02*
D03*
X474001D02*
D03*
X479000D02*
D03*
X449000D02*
D03*
X454001D02*
D03*
X459000D02*
D03*
X499000Y94000D02*
D03*
X509000Y88999D02*
D03*
X464001Y84000D02*
D03*
X469000D02*
D03*
X474001D02*
D03*
X479000D02*
D03*
X444001D02*
D03*
X459000D02*
D03*
X464001Y78999D02*
D03*
X469000D02*
D03*
X474001D02*
D03*
X504001D02*
D03*
X444001D02*
D03*
X459000D02*
D03*
X464001Y74000D02*
D03*
X469000D02*
D03*
X474001D02*
D03*
X454001D02*
D03*
X459000D02*
D03*
D19*
X438500Y213050D02*
D03*
Y200350D02*
D03*
Y187650D02*
D03*
Y174950D02*
D03*
X511500D02*
D03*
Y187650D02*
D03*
Y200350D02*
D03*
Y213050D02*
D03*
D20*
X314000Y30501D02*
D03*
X334000D02*
D03*
D21*
X290000Y53000D02*
D03*
X358000D02*
D03*
D22*
X548002Y174490D02*
D03*
Y157492D02*
D03*
X530001Y75498D02*
D03*
Y58500D02*
D03*
X548002Y141493D02*
D03*
Y124495D02*
D03*
X566003Y174490D02*
D03*
Y157492D02*
D03*
Y141493D02*
D03*
Y124495D02*
D03*
X530001Y174490D02*
D03*
Y157492D02*
D03*
Y108495D02*
D03*
Y91497D02*
D03*
X566003Y75498D02*
D03*
Y58500D02*
D03*
X548002Y75498D02*
D03*
Y58500D02*
D03*
X530001Y141493D02*
D03*
Y124495D02*
D03*
X566003Y108495D02*
D03*
Y91497D02*
D03*
X548002Y108495D02*
D03*
Y91497D02*
D03*
X140250Y67750D02*
D03*
D23*
X277250Y193001D02*
D03*
X282251D02*
D03*
X287250D02*
D03*
X292251D02*
D03*
X297250D02*
D03*
X302251D02*
D03*
X307250D02*
D03*
X312251D02*
D03*
X317250D02*
D03*
X322251D02*
D03*
X327249D02*
D03*
X332251D02*
D03*
X337249D02*
D03*
X342251D02*
D03*
X347249D02*
D03*
X352251D02*
D03*
Y79000D02*
D03*
X347249D02*
D03*
X342251D02*
D03*
X337249D02*
D03*
X332251D02*
D03*
X327249D02*
D03*
X322251D02*
D03*
X317250D02*
D03*
X312251D02*
D03*
X307250D02*
D03*
X302251D02*
D03*
X297250D02*
D03*
X292251D02*
D03*
X287250D02*
D03*
X282251D02*
D03*
X277250D02*
D03*
D24*
X371750Y173501D02*
D03*
Y168500D02*
D03*
Y163501D02*
D03*
Y158500D02*
D03*
Y153501D02*
D03*
Y148500D02*
D03*
Y143501D02*
D03*
Y138500D02*
D03*
Y133501D02*
D03*
Y128500D02*
D03*
Y123501D02*
D03*
Y118500D02*
D03*
Y113501D02*
D03*
Y108500D02*
D03*
Y103501D02*
D03*
Y98500D02*
D03*
X257750D02*
D03*
Y103501D02*
D03*
Y108500D02*
D03*
Y113501D02*
D03*
Y118500D02*
D03*
Y123501D02*
D03*
Y128500D02*
D03*
Y133501D02*
D03*
Y138500D02*
D03*
Y143501D02*
D03*
Y148500D02*
D03*
Y153501D02*
D03*
Y158500D02*
D03*
Y163501D02*
D03*
Y168500D02*
D03*
Y173501D02*
D03*
D25*
X140250Y181250D02*
D03*
D26*
X57751Y184750D02*
D03*
D27*
X64251Y65251D02*
D03*
D28*
X49250Y68499D02*
D03*
D29*
X33499Y180749D02*
D03*
D30*
X141500Y79749D02*
D03*
Y90750D02*
D03*
Y101750D02*
D03*
Y112751D02*
D03*
Y123749D02*
D03*
Y134750D02*
D03*
Y145751D02*
D03*
Y156749D02*
D03*
D31*
X241501Y125850D02*
D03*
X225499D02*
D03*
X241501Y137850D02*
D03*
X225499D02*
D03*
X241501Y161850D02*
D03*
X225499D02*
D03*
X241501Y173850D02*
D03*
X225499D02*
D03*
X241501Y149850D02*
D03*
X225499D02*
D03*
D32*
X362199Y239585D02*
D03*
X298201D02*
D03*
D33*
X340200D02*
D03*
X320200D02*
D03*
D34*
X317201Y212585D02*
D03*
X323700D02*
D03*
X330200D02*
D03*
X336700D02*
D03*
X343200D02*
D03*
D66*
X374500Y250500D02*
X387500Y229500D01*
X366500Y250500D02*
X374500D01*
X406000Y152000D02*
X410000D01*
X396000Y162000D02*
X406000Y152000D01*
X361499Y123501D02*
X371750D01*
X352000Y133000D02*
X361499Y123501D01*
X352000Y133000D02*
Y157500D01*
X354500Y160000D01*
X494500Y118800D02*
X499000Y118999D01*
X564500Y195500D02*
X570500D01*
X559500Y190500D02*
X564500Y195500D01*
X516500Y137000D02*
X519500Y140500D01*
X513500Y134000D02*
X516500Y137000D01*
X509000Y134000D02*
X513500D01*
X509500Y134500D02*
X513500D01*
X509000Y134000D02*
X509500Y134500D01*
X360500Y128500D02*
X371750D01*
X355000Y134000D02*
X360500Y128500D01*
X328000Y148500D02*
X331000Y155000D01*
X324000Y156500D02*
X329000Y163000D01*
X504001Y114000D02*
X506500Y111500D01*
X403500Y172500D02*
X424000D01*
X397000Y179000D02*
X403500Y172500D01*
X397000Y179000D02*
Y185500D01*
X394500Y188000D02*
X397000Y185500D01*
X376500Y188000D02*
X394500D01*
X372000Y183500D02*
X376500Y188000D01*
X372000Y182000D02*
Y183500D01*
X380750Y130500D02*
X382000Y128000D01*
X377749Y133501D02*
X380750Y130500D01*
X371750Y133501D02*
X377749D01*
X322500Y169000D02*
X328500Y168500D01*
X321500D02*
X322500Y169000D01*
X320500Y167000D02*
X321500Y168500D01*
X318000Y151000D02*
X320500Y167000D01*
X499750Y111500D02*
X504001Y108999D01*
X492500Y111500D02*
X499750D01*
X491500Y112500D02*
X492500Y111500D01*
X384500Y200000D02*
X391250Y206250D01*
X361500Y148500D02*
X371750D01*
X356000Y143000D02*
X361500Y148500D01*
X328500Y134000D02*
X345750Y143000D01*
X316250Y135500D02*
X323500Y148000D01*
X301500Y175750D02*
X308500Y181500D01*
X299750Y174000D02*
X301500Y175750D01*
X299750Y160500D02*
Y174000D01*
Y160500D02*
X307000Y153250D01*
X491501Y166125D02*
X492250Y166874D01*
Y169250D01*
X491000Y170500D02*
X492250Y169250D01*
X491502Y156500D02*
X494001Y158999D01*
X486500Y156500D02*
X491502D01*
X490250Y171250D02*
X491000Y170500D01*
X487750Y171250D02*
X490250D01*
X485000Y174000D02*
X487750Y171250D01*
X473500Y168500D02*
X474500Y169500D01*
X412500Y168500D02*
X473500D01*
X406000Y162000D02*
X412500Y168500D01*
X384000Y153000D02*
X394000D01*
X381500Y150500D02*
X384000Y153000D01*
X381500Y141750D02*
Y150500D01*
X378250Y138500D02*
X381500Y141750D01*
X371750Y138500D02*
X378250D01*
X601499Y185780D02*
X608000Y182000D01*
X620000Y195000D02*
X643000Y216800D01*
X601499Y185780D02*
X620000Y195000D01*
X593500Y189500D02*
X601499Y185780D01*
X591500Y191500D02*
X593500Y189500D01*
X591500Y191500D02*
Y195000D01*
X403000Y163000D02*
X408500Y168500D01*
X403000Y159000D02*
Y163000D01*
X287250Y79000D02*
X288500Y89500D01*
X596279Y177779D02*
X601499D01*
X594000Y175500D02*
X596279Y177779D01*
X508000Y26500D02*
X553500Y26000D01*
X487500Y24500D02*
X508000Y26500D01*
X282250Y85000D02*
X282251Y79000D01*
X279000Y88250D02*
X282250Y85000D01*
X275500Y88250D02*
X279000D01*
X274500Y87250D02*
X275500Y88250D01*
X273000Y82000D02*
X274500Y87250D01*
X605718Y174000D02*
X608000D01*
X601499Y169781D02*
X605718Y174000D01*
X601000Y30000D02*
X617600Y37200D01*
X577000Y5000D02*
X601000Y30000D01*
X573000Y3000D02*
X577000Y5000D01*
X441000Y3000D02*
X573000D01*
X434000Y10000D02*
X441000Y3000D01*
X322000Y43000D02*
X326000Y40000D01*
X322000Y43000D02*
Y57000D01*
X276000Y68000D02*
X277250Y79000D01*
X601499Y193779D02*
X609000Y193000D01*
X617600Y209100D02*
Y216800D01*
X602279Y193779D02*
X617600Y209100D01*
X601499Y193779D02*
X602279D01*
X591000Y76000D02*
X601000Y94000D01*
X577000Y59000D02*
X591000Y76000D01*
X435000Y38000D02*
X470000D01*
X430000Y33000D02*
X435000Y38000D01*
X257750Y98500D02*
X268000Y84000D01*
Y79000D02*
Y84000D01*
X260000Y71000D02*
X268000Y79000D01*
X256000Y60000D02*
X260000Y71000D01*
X138249Y145751D02*
X141500D01*
X128751D02*
X138249D01*
X494001Y164000D02*
Y169999D01*
X491000Y173000D02*
X494001Y169999D01*
X488750Y173000D02*
X491000D01*
X488000Y173750D02*
X488750Y173000D01*
X488000Y173750D02*
Y174750D01*
X487500Y175250D02*
X488000Y174750D01*
X487500Y175250D02*
Y179000D01*
X485000Y181500D02*
X487500Y179000D01*
X484000Y181500D02*
X485000D01*
X476000Y189500D02*
X484000Y181500D01*
X470000Y189500D02*
X476000D01*
X469000Y190500D02*
X470000Y189500D01*
X464000Y190500D02*
X469000D01*
X458500Y196000D02*
X464000Y190500D01*
X428000Y196000D02*
X458500D01*
X131000Y153000D02*
X138249Y145751D01*
X131000Y153000D02*
Y161500D01*
X132500Y163000D01*
X127000Y144000D02*
X128751Y145751D01*
X426500Y116500D02*
X429000Y114000D01*
X426500Y116500D02*
Y121500D01*
X141500Y156749D02*
X170500Y167000D01*
X141500Y156749D02*
Y160000D01*
X138500Y163000D02*
X141500Y160000D01*
X485750Y166876D02*
X486501Y166125D01*
X485750Y166876D02*
Y169250D01*
X479000Y176000D02*
X485750Y169250D01*
X477000Y176000D02*
X479000D01*
X131751Y79749D02*
X141500D01*
X130000Y81500D02*
X131751Y79749D01*
X238500Y182000D02*
Y184000D01*
X235500Y179000D02*
X238500Y182000D01*
X235500Y173000D02*
Y179000D01*
X230500Y168000D02*
X235500Y173000D01*
X220500Y168000D02*
X230500D01*
X218500Y170000D02*
X220500Y168000D01*
X202500Y170000D02*
X218500D01*
X200500Y168000D02*
X202500Y170000D01*
X200500Y167000D02*
Y168000D01*
X194500Y161000D02*
X200500Y167000D01*
X146750Y96000D02*
X152000D01*
X141500Y90750D02*
X146750Y96000D01*
X138250Y90750D02*
X141500D01*
X131000Y98000D02*
X138250Y90750D01*
X131000Y98000D02*
Y107000D01*
X398500Y61000D02*
X402500Y65000D01*
X388000Y61000D02*
X398500D01*
X372000Y45000D02*
X388000Y61000D01*
X144750Y134750D02*
X158000Y121500D01*
X141500Y134750D02*
X144750D01*
X131250D02*
X141500D01*
X130000Y136000D02*
X131250Y134750D01*
X141500Y112751D02*
X174500Y113000D01*
X584501Y140501D02*
Y153779D01*
X583500Y139500D02*
X584501Y140501D01*
X528000Y21000D02*
X546100Y12700D01*
X518000Y22000D02*
X528000Y21000D01*
X512000Y19000D02*
X518000Y22000D01*
X461500Y74750D02*
X464001Y78999D01*
X461000Y61000D02*
X461500Y74750D01*
X511625Y146000D02*
X512500D01*
X511125Y146500D02*
X511625Y146000D01*
X611000Y162500D02*
Y187000D01*
X607250Y158750D02*
X611000Y162500D01*
X601499Y153779D02*
X607250Y158750D01*
X595000Y158000D02*
X601499Y153779D01*
X549000Y188000D02*
X562500Y187500D01*
X536000Y188000D02*
X549000D01*
X532000Y184000D02*
X536000Y188000D01*
X325000Y105000D02*
X329500Y109500D01*
X317500Y105000D02*
X325000D01*
X316500Y106000D02*
X317500Y105000D01*
X296500Y90750D02*
X297250Y79000D01*
X294500Y92750D02*
X296500Y90750D01*
X288250Y92750D02*
X294500D01*
X281500Y99500D02*
X288250Y92750D01*
X281500Y99500D02*
Y106000D01*
X617000Y91000D02*
X620000Y90000D01*
X583000Y105000D02*
X617000Y91000D01*
X635000Y123400D02*
X651300Y139700D01*
X635000Y99000D02*
Y123400D01*
X604000Y85000D02*
X651300Y88900D01*
X665400Y151000D02*
X676700Y139700D01*
X641000Y151000D02*
X665400D01*
X636000Y146000D02*
X641000Y151000D01*
X596000Y146000D02*
X636000D01*
X298000Y176500D02*
X304000Y182500D01*
X298000Y148500D02*
Y176500D01*
X294000Y144500D02*
X298000Y148500D01*
X225499Y137499D02*
Y137850D01*
X217500Y129500D02*
X225499Y137499D01*
X320000Y149000D02*
X333000Y161000D01*
X316000Y142000D02*
X320000Y149000D01*
X293000Y135000D02*
X307000Y142000D01*
X279000Y117000D02*
X280000Y116000D01*
X279000Y117000D02*
Y135000D01*
X218000Y125000D02*
X225499Y125850D01*
X301000Y143000D02*
Y153000D01*
X241001Y108850D02*
X244500Y105351D01*
Y99250D02*
Y105351D01*
X239750Y94500D02*
X244500Y99250D01*
X236250Y94500D02*
X239750D01*
X227000Y97000D02*
X236250Y94500D01*
X308500Y161000D02*
X310000Y159500D01*
Y128500D02*
Y159500D01*
X290500Y109000D02*
X310000Y128500D01*
X236000Y97500D02*
X240249Y101601D01*
X290000Y153000D02*
X293000Y156000D01*
X290000Y118500D02*
Y153000D01*
X236000Y111850D02*
X240249Y116099D01*
X236000Y103500D02*
Y111850D01*
X234000Y101500D02*
X236000Y103500D01*
X213750Y108451D02*
X220000Y106000D01*
X213000Y134000D02*
X213750Y149950D01*
X205000Y155000D02*
X213750Y149950D01*
X520000Y110500D02*
Y111500D01*
X510501Y110500D02*
X520000D01*
X509000Y108999D02*
X510501Y110500D01*
X378000Y207000D02*
X381500D01*
X372000Y201000D02*
X378000Y207000D01*
X511000Y107500D02*
X514000D01*
X510000Y106500D02*
X511000Y107500D01*
X506501Y106500D02*
X510000D01*
X504001Y104000D02*
X506501Y106500D01*
X604000Y102000D02*
Y131000D01*
X601000Y80000D02*
Y88000D01*
X584000Y63000D02*
X601000Y80000D01*
X574000Y196000D02*
X577000Y186000D01*
X571000Y199000D02*
X574000Y196000D01*
X566000Y199000D02*
X571000D01*
X539000Y214000D02*
X550000Y216000D01*
X457000Y226000D02*
X459000Y228000D01*
X423000Y226000D02*
X457000D01*
X398000Y250000D02*
X410000Y237000D01*
X395000Y251000D02*
X398000Y250000D01*
X390000Y251000D02*
X395000D01*
X383000Y244000D02*
X390000Y251000D01*
X226000Y108000D02*
Y108850D01*
X219000Y101000D02*
X226000Y108000D01*
X218000Y101000D02*
X219000D01*
X494000Y99500D02*
X499000Y98999D01*
X499750Y91500D02*
X504001Y94000D01*
X492250Y90750D02*
X499750Y91500D01*
X490000Y93000D02*
X492250Y90750D01*
X477000Y93000D02*
X490000D01*
X372500Y76000D02*
X398500Y70500D01*
X235500Y84500D02*
X253500D01*
X224000Y96000D02*
X235500Y84500D01*
X224000Y96000D02*
Y98850D01*
X226751Y101601D01*
X493500Y104000D02*
X499000D01*
X485500Y96000D02*
X493500Y104000D01*
X476000Y96000D02*
X485500D01*
X474500Y94500D02*
X476000Y96000D01*
X454000Y94500D02*
X474500D01*
X386000Y93000D02*
X389000D01*
X385500Y92500D02*
X386000Y93000D01*
X384500Y92500D02*
X385500D01*
X373000Y81000D02*
X384500Y92500D01*
X369500Y81000D02*
X373000D01*
X369000Y80500D02*
X369500Y81000D01*
X364500Y80500D02*
X369000D01*
X359000Y75000D02*
X364500Y80500D01*
X214500Y92500D02*
X224500Y82500D01*
X210599Y116099D02*
X226751D01*
X208000Y113500D02*
X210599Y116099D01*
X208000Y106000D02*
Y113500D01*
X509000Y78999D02*
X513000Y77000D01*
X509000Y74000D02*
X515000Y71000D01*
X574000Y83500D02*
X582500Y92000D01*
X540000Y83500D02*
X574000D01*
X539000Y84500D02*
X540000Y83500D01*
X539000Y84500D02*
Y98500D01*
X538000Y99500D02*
X539000Y98500D01*
X522250Y99500D02*
X538000D01*
X509000Y94000D02*
X522250Y99500D01*
X617000Y98500D02*
X624500Y91000D01*
X603500Y98500D02*
X617000D01*
X594000Y108000D02*
X603500Y98500D01*
X583500Y108000D02*
X594000D01*
X575000Y116500D02*
X583500Y108000D01*
X522000Y116500D02*
X575000D01*
X520500Y115000D02*
X522000Y116500D01*
X517500Y115000D02*
X520500D01*
X515000Y117500D02*
X517500Y115000D01*
X514000Y117500D02*
X515000D01*
X513500Y117000D02*
X514000Y117500D01*
X512500Y117000D02*
X513500D01*
X512000Y116500D02*
X512500Y117000D01*
X508000Y116500D02*
X512000D01*
X506500Y118000D02*
X508000Y116500D01*
X506500Y118000D02*
Y120000D01*
X505000Y121500D02*
X506500Y120000D01*
X503000Y121500D02*
X505000D01*
X501500Y123000D02*
X503000Y121500D01*
X501500Y123000D02*
Y131500D01*
X508500Y57000D02*
X520000D01*
X503250Y62250D02*
X508500Y57000D01*
X503250Y62250D02*
X504001Y74000D01*
X509000Y84000D02*
X517000Y85000D01*
X512000Y91500D02*
X513000Y92500D01*
X508000Y91500D02*
X512000D01*
X506500Y90000D02*
X508000Y91500D01*
X506500Y86499D02*
Y90000D01*
X504001Y84000D02*
X506500Y86499D01*
X271000Y86000D02*
X273000Y88000D01*
Y102250D01*
X267500Y107750D02*
X273000Y102250D01*
X258500Y107750D02*
X267500D01*
X257750Y108500D02*
X258500Y107750D01*
X211500Y99500D02*
X229000Y82000D01*
X208000Y99500D02*
X211500D01*
X201500Y106000D02*
X208000Y99500D01*
X187000Y121500D02*
Y152500D01*
X184500Y155000D02*
X187000Y152500D01*
X259250Y147000D02*
X268000D01*
X257750Y148500D02*
X259250Y147000D01*
X509499Y98500D02*
X512500D01*
X509000Y98999D02*
X509499Y98500D01*
X491500Y224500D02*
X499000D01*
X488000Y228000D02*
X491500Y224500D01*
X463500Y217500D02*
X474000Y228000D01*
X398500Y217500D02*
X463500D01*
X385000Y204000D02*
X398500Y217500D01*
X384500Y204000D02*
X385000D01*
X301750Y203500D02*
X333500D01*
X297250Y199000D02*
X301750Y203500D01*
X297250Y193001D02*
Y199000D01*
X583780Y185780D02*
X584501D01*
X576000Y178000D02*
X583780Y185780D01*
X480000Y46000D02*
X481500D01*
X472500Y53500D02*
X480000Y46000D01*
X472500Y53500D02*
Y55500D01*
X461500Y78250D02*
Y81500D01*
X461250Y78000D02*
X461500Y78250D01*
X461250Y77750D02*
Y78000D01*
X459000Y75500D02*
X461250Y77750D01*
X459000Y74000D02*
Y75500D01*
X579779Y177779D02*
X584501D01*
X576000Y174000D02*
X579779Y177779D01*
X594000Y90500D02*
Y94000D01*
X576000Y72500D02*
X594000Y90500D01*
X455000Y51500D02*
Y62000D01*
X453250Y63750D02*
X455000Y62000D01*
X453250Y63750D02*
Y73249D01*
X454001Y74000D01*
X588500Y120000D02*
Y125000D01*
X582000Y113500D02*
X588500Y120000D01*
X577719Y169781D02*
X584501D01*
X577500Y170000D02*
X577719Y169781D01*
X463250Y63750D02*
X465500Y61500D01*
X463250Y63750D02*
Y73249D01*
X464001Y74000D01*
X594500Y183500D02*
Y184500D01*
X585221Y193779D02*
X594500Y184500D01*
X584501Y193779D02*
X585221D01*
X584501Y161780D02*
X585220D01*
X600780Y201780D02*
X601499D01*
X594500Y195500D02*
X600780Y201780D01*
X594500Y192500D02*
Y195500D01*
X587500Y148500D02*
X588000D01*
X590500Y151000D01*
Y156500D01*
X585220Y161780D02*
X590500Y156500D01*
X591500Y179000D02*
Y180500D01*
X590500Y178000D02*
X591500Y179000D01*
X590500Y167000D02*
Y178000D01*
X585220Y161780D02*
X590500Y167000D01*
X499650Y187650D02*
X511500D01*
X498500Y186500D02*
X499650Y187650D01*
X470000Y175000D02*
X478000Y183000D01*
X457000Y175000D02*
X470000D01*
X527500Y183500D02*
Y185250D01*
X512400Y200350D02*
X527500Y185250D01*
X511500Y200350D02*
X512400D01*
X561500Y216500D02*
X567500D01*
X555000Y210000D02*
X561500Y216500D01*
X555000Y203000D02*
Y210000D01*
X551500Y199500D02*
X555000Y203000D01*
X512350Y199500D02*
X551500D01*
X511500Y200350D02*
X512350Y199500D01*
X501500Y141500D02*
X504001Y138999D01*
X576500Y153000D02*
X580500Y149000D01*
Y140000D02*
Y149000D01*
X573500Y133000D02*
X580500Y140000D01*
X557000Y133000D02*
X573500D01*
X503000Y224500D02*
X555000D01*
X495500Y217000D02*
X503000Y224500D01*
X495500Y206500D02*
Y217000D01*
X493000Y204000D02*
X495500Y206500D01*
X493000Y200000D02*
Y204000D01*
X453500Y187500D02*
X468000D01*
X453250Y187250D02*
X453500Y187500D01*
X438900Y187250D02*
X453250D01*
X438500Y187650D02*
X438900Y187250D01*
X509000Y148999D02*
X521500Y149000D01*
X522000Y149500D01*
X538000D01*
X539000Y150500D01*
Y164500D01*
X538000Y165500D02*
X539000Y164500D01*
X523000Y165500D02*
X538000D01*
X520500Y168000D02*
X523000Y165500D01*
X520500Y168000D02*
Y178500D01*
X515500Y183500D02*
X520500Y178500D01*
X507000Y183500D02*
X515500D01*
X500000Y182500D02*
X507000Y183500D01*
X490000Y179000D02*
X490500Y176000D01*
X472000Y197000D02*
X490000Y179000D01*
X467500Y197000D02*
X472000D01*
X438500Y200350D02*
X467500Y197000D01*
X517000Y151000D02*
X518000Y152000D01*
X513500Y151000D02*
X517000D01*
X511500Y169500D02*
Y174950D01*
X511625Y151000D02*
X513500D01*
X511125Y151500D02*
X511625Y151000D01*
X467950Y213050D02*
X469050D01*
X438500D02*
X467950D01*
X511499Y118999D02*
X512500Y120000D01*
X509000Y118999D02*
X511499D01*
X481500Y199500D02*
X485500D01*
X467950Y213050D02*
X481500Y199500D01*
X469050Y213050D02*
X479000Y223000D01*
X290000Y183000D02*
X292251Y193001D01*
X282251D02*
Y204000D01*
X286000Y194251D02*
X287250Y193001D01*
X286000Y194251D02*
Y208500D01*
X584501Y201780D02*
Y209781D01*
X591720Y161780D02*
X601499D01*
X591500Y162000D02*
X591720Y161780D01*
X500500Y193500D02*
Y194000D01*
X494000Y187000D02*
X500500Y193500D01*
X471000Y186500D02*
X475000D01*
X462500Y178000D02*
X471000Y186500D01*
X454500Y178000D02*
X462500D01*
X372000Y83500D02*
X384000Y95500D01*
X365000Y83500D02*
X372000D01*
X302251Y79000D02*
Y86249D01*
X299500Y89000D02*
X302251Y86249D01*
X450000Y194000D02*
X459000Y191000D01*
X430250Y191750D02*
X450000Y194000D01*
X421500Y186500D02*
X430250Y191750D01*
X546000Y206000D02*
X551000Y203000D01*
X525000Y207000D02*
X546000Y206000D01*
X390000Y220000D02*
X407000Y226000D01*
X261000Y182000D02*
X267000Y176000D01*
Y171750D02*
Y176000D01*
X263750Y168500D02*
X267000Y171750D01*
X257750Y168500D02*
X263750D01*
X494000Y124000D02*
X499000D01*
X512500D02*
Y124500D01*
X510000Y121500D02*
X512500Y124000D01*
X508000Y121500D02*
X510000D01*
X505750Y123750D02*
X508000Y121500D01*
X504251Y123750D02*
X505750D01*
X504001Y124000D02*
X504251Y123750D01*
X527500Y209500D02*
X540000D01*
X515500Y221500D02*
X527500Y209500D01*
X504000Y221500D02*
X515500D01*
X387500Y229500D02*
X437000D01*
X250500Y250500D02*
X366500D01*
X241300Y241300D02*
X250500Y250500D01*
X445500Y180500D02*
X454000Y172000D01*
X444500Y180500D02*
X445500D01*
X494000Y134500D02*
X499000Y134000D01*
X495000Y149500D02*
X495500D01*
X485750Y140250D02*
X495000Y149500D01*
X485750Y137450D02*
Y140250D01*
Y137450D02*
X494000Y129200D01*
X393700Y241300D02*
X402500Y232500D01*
X494000Y129200D02*
X499000Y128999D01*
Y148999D02*
X501500Y151500D01*
X504500Y180500D02*
X506000D01*
X501500Y177500D02*
X504500Y180500D01*
X501500Y177000D02*
Y177500D01*
X499500Y175000D02*
X501500Y177000D01*
X497500Y175000D02*
X499500D01*
X495000Y177500D02*
X497500Y175000D01*
X495000Y177500D02*
Y179000D01*
X491000Y183000D02*
X495000Y179000D01*
X491000Y183000D02*
Y189500D01*
X492500Y212000D02*
Y218000D01*
X484000Y226500D02*
X492500Y218000D01*
X438000Y232500D02*
X441000Y229500D01*
X427900Y232500D02*
X438000D01*
X419100Y241300D02*
X427900Y232500D01*
X423500Y220500D02*
X426000Y223000D01*
X400500Y220500D02*
X423500D01*
X499000Y164000D02*
Y165750D01*
X497750Y167000D02*
X499000Y165750D01*
X497750Y167000D02*
Y172000D01*
X493250Y176500D02*
X497750Y172000D01*
X493250Y176500D02*
Y177250D01*
X492000Y178500D02*
X493250Y177250D01*
X492000Y178500D02*
Y179500D01*
X487000Y184500D02*
X492000Y179500D01*
X487000Y184500D02*
Y193000D01*
X488500Y194500D01*
Y201500D01*
X482000Y208000D02*
X488500Y201500D01*
X482000Y208000D02*
Y224000D01*
X469900Y236100D02*
X482000Y224000D01*
X469900Y236100D02*
Y241300D01*
X501500Y98000D02*
Y106500D01*
Y98000D02*
X503000Y96500D01*
X505000D01*
X506500Y95000D01*
Y93000D02*
Y95000D01*
X505000Y91500D02*
X506500Y93000D01*
X503250Y91500D02*
X505000D01*
X503000Y91250D02*
X503250Y91500D01*
X502750Y91250D02*
X503000D01*
X500750Y89250D02*
X502750Y91250D01*
X499251Y89250D02*
X500750D01*
X499000Y88999D02*
X499251Y89250D01*
X210000Y63000D02*
X253500D01*
X209500Y63500D02*
X210000Y63000D01*
X168500Y63500D02*
X209500D01*
X165000Y60000D02*
X168500Y63500D01*
X501500Y86500D02*
X504001Y88999D01*
X256500Y24250D02*
X260250Y20500D01*
X250750Y24250D02*
X256500D01*
X248750Y22250D02*
X250750Y24250D01*
X248750Y20750D02*
Y22250D01*
Y20750D02*
X250500Y16750D01*
X199500Y35500D02*
X202500Y38500D01*
X137500Y35500D02*
X199500D01*
X130500Y28500D02*
X137500Y35500D01*
X88900Y12700D02*
X130500Y28500D01*
X476499Y81500D02*
X479000Y78999D01*
X471500Y81500D02*
X476499D01*
X407500Y72000D02*
X408000Y72500D01*
X400500D02*
X407500Y72000D01*
X392500Y80500D02*
X400500Y72500D01*
X384000Y80500D02*
X392500D01*
X366500Y78500D02*
X384000Y80500D01*
X363500Y75500D02*
X366500Y78500D01*
X478750Y63250D02*
X490000Y49000D01*
X478500Y69750D02*
X478750Y63250D01*
X478500Y69750D02*
X479000Y74000D01*
X422000Y3000D02*
X429000Y10000D01*
X389000Y3000D02*
X422000D01*
X382000Y10000D02*
X389000Y3000D01*
X219000D02*
X227000Y11000D01*
X149400Y3000D02*
X219000D01*
X139700Y12700D02*
X149400Y3000D01*
X400500Y57000D02*
X406000Y62500D01*
X390000Y57000D02*
X400500D01*
X377500Y44500D02*
X390000Y57000D01*
X484001Y84000D02*
Y88999D01*
X484000Y78000D02*
X484001Y78999D01*
X481500Y75500D02*
X484000Y78000D01*
X481500Y70000D02*
Y75500D01*
X402500Y56000D02*
X411500Y62000D01*
X383500Y47000D02*
X402500Y56000D01*
X382000Y45500D02*
X383500Y47000D01*
X382000Y45000D02*
Y45500D01*
X373500Y36500D02*
X382000Y45000D01*
X370000Y37000D02*
X373500Y36500D01*
X368000Y39000D02*
X370000Y37000D01*
X368000Y39000D02*
Y40000D01*
X370000Y66500D01*
X588000Y75000D02*
X592000Y84000D01*
X577000Y64000D02*
X588000Y75000D01*
X484001Y74000D02*
X486000Y59000D01*
X574000Y228000D02*
X587000Y215000D01*
X572000Y228000D02*
X574000D01*
X549000Y251000D02*
X572000Y228000D01*
X416000Y251000D02*
X549000D01*
X409000Y244000D02*
X416000Y251000D01*
X174000Y105000D02*
X198000Y81000D01*
X208000Y69000D02*
X211000Y66000D01*
X208000Y69000D02*
Y75000D01*
X174000Y109000D02*
X208000Y75000D01*
X485750Y81500D02*
X489000Y78999D01*
X483000Y81500D02*
X485750D01*
X481500Y80000D02*
X483000Y81500D01*
X481500Y78000D02*
Y80000D01*
X480000Y76500D02*
X481500Y78000D01*
X478000Y76500D02*
X480000D01*
X476500Y75000D02*
X478000Y76500D01*
X476500Y74750D02*
Y75000D01*
Y74750D02*
X476750Y67000D01*
X477250Y61250D01*
X475250Y59500D02*
X477250Y61250D01*
X470250Y58000D02*
X475250Y59500D01*
X462500Y58000D02*
X470250D01*
X460500Y56000D02*
X462500Y58000D01*
X460500Y44000D02*
Y56000D01*
X457250Y40750D02*
X460500Y44000D01*
X406000Y40750D02*
X457250D01*
X400750Y37250D02*
X406000Y40750D01*
X525500Y221500D02*
X534000D01*
X522500Y218500D02*
X525500Y221500D01*
X496500Y156500D02*
X499000Y158999D01*
X529500Y227500D02*
Y228500D01*
X526500Y231500D02*
X529500Y228500D01*
X517000Y231500D02*
X526500D01*
X507200Y241300D02*
X517000Y231500D01*
X495300Y241300D02*
X507200D01*
X504500Y218500D02*
X507500D01*
X502500Y216500D02*
X504500Y218500D01*
X502500Y204500D02*
Y216500D01*
X492000Y194000D02*
X502500Y204500D01*
X491500Y194000D02*
X492000D01*
X257750Y153501D02*
X268000Y151500D01*
X493000Y46000D02*
Y55000D01*
X489000Y59000D02*
X493000Y55000D01*
X487250Y66250D02*
X489000Y59000D01*
X487250Y66250D02*
X489000Y74000D01*
X354000Y13000D02*
X393700Y12700D01*
X353000Y12000D02*
X354000Y13000D01*
X345000Y12000D02*
X353000D01*
X282000Y120000D02*
Y147000D01*
X281000Y148000D02*
X282000Y147000D01*
X270000Y3000D02*
X277000Y10000D01*
X238000Y3000D02*
X270000D01*
X233000Y8000D02*
X238000Y3000D01*
X227000Y16000D02*
X233000Y8000D01*
X232000Y67000D02*
Y72000D01*
X233000Y73000D01*
Y79000D01*
X232000Y83000D02*
X233000Y79000D01*
X221000Y94000D02*
X232000Y83000D01*
X491502Y76500D02*
X494001Y78999D01*
X486500Y76500D02*
X491502D01*
X414000Y65500D02*
X421000Y68500D01*
X407000Y68000D02*
X414000Y65500D01*
X396000Y67500D02*
X407000Y68000D01*
X385000Y67500D02*
X396000D01*
X382000Y64500D02*
X385000Y67500D01*
X496500Y59500D02*
X500000Y54000D01*
X496500Y59500D02*
X496501Y70200D01*
X497000Y46000D02*
X515000D01*
X495000Y48000D02*
X497000Y46000D01*
X495000Y48000D02*
Y58000D01*
X493250Y70500D02*
X495000Y58000D01*
X493250Y70500D02*
X494001Y74000D01*
X499000Y78999D02*
X501500Y76500D01*
X500000Y58000D02*
X507000Y51000D01*
X500000Y58000D02*
Y73000D01*
X499000Y74000D02*
X500000Y73000D01*
X509000Y128999D02*
X515250Y128250D01*
X123350Y232250D02*
X286000D01*
X114300Y241300D02*
X123350Y232250D01*
X516500Y145000D02*
X520000D01*
X514500Y143000D02*
X516500Y145000D01*
X510000Y143000D02*
X514500D01*
X509000Y144000D02*
X510000Y143000D01*
Y228500D02*
X525500D01*
X503500Y235000D02*
X510000Y228500D01*
X501500Y116500D02*
X504001Y118999D01*
X506500Y126500D02*
X509000Y124000D01*
X217000Y224500D02*
X279000D01*
X212500Y229000D02*
X217000Y224500D01*
X504750Y168750D02*
X505500Y169500D01*
X504750Y164749D02*
Y168750D01*
X504001Y164000D02*
X504750Y164749D01*
X558000Y203000D02*
Y209000D01*
X553000Y198000D02*
X558000Y203000D01*
X530000Y189000D02*
X553000Y198000D01*
X512250Y166500D02*
X516000Y169000D01*
X508000Y166500D02*
X512250D01*
X506500Y165000D02*
X508000Y166500D01*
X506500Y161498D02*
Y165000D01*
X504001Y158999D02*
X506500Y161498D01*
X561000Y200000D02*
Y212000D01*
X555500Y194500D02*
X561000Y200000D01*
X519000Y103000D02*
X519500D01*
X517500Y101500D02*
X519000Y103000D01*
X506502Y101500D02*
X517500D01*
X504001Y98999D02*
X506502Y101500D01*
X469000Y74000D02*
X469750Y69250D01*
Y66750D02*
Y69250D01*
X468000Y65000D02*
X469750Y66750D01*
X471500Y64250D02*
X471501Y71875D01*
X470000Y62750D02*
X471500Y64250D01*
X470000Y61000D02*
Y62750D01*
X463500Y55000D02*
X474500Y44000D01*
X516500Y104000D02*
X520000Y107500D01*
X509000Y104000D02*
X516500D01*
X471000Y206000D02*
X472000Y205000D01*
X430500Y206000D02*
X471000D01*
X430000Y205500D02*
X430500Y206000D01*
X379300Y94700D02*
X380560Y96220D01*
X381800Y97800D01*
X112350Y140650D02*
X153000D01*
X223000Y119725D02*
X233500D01*
X218000Y118250D02*
X223000Y119725D01*
X86000Y34250D02*
X114550D01*
X419000Y44000D02*
X431500Y65500D01*
X431501Y71875D01*
X385000Y140500D02*
X398120D01*
Y115900D02*
Y140500D01*
Y115900D02*
X409000D01*
X415000D01*
X416875Y116500D01*
X385000Y44000D02*
X424000Y65500D01*
X424001Y74000D01*
X388500Y127000D02*
X393125D01*
Y109000D02*
Y127000D01*
Y109000D02*
X409000D01*
X415000D01*
X419000Y108999D01*
X391500Y44000D02*
X423250Y62250D01*
X426500Y65500D01*
X426501Y71875D01*
X423750Y44000D02*
X434000Y65500D01*
X434001Y74000D01*
X385000Y136000D02*
X396455D01*
Y113600D02*
Y136000D01*
Y113600D02*
X409000D01*
X415000D01*
X419000Y114000D01*
X428500Y44000D02*
X436500Y65500D01*
X436501Y71875D01*
X433250Y44000D02*
X438250Y65500D01*
Y71500D01*
X439000Y74000D01*
X438250Y44000D02*
X444750Y65500D01*
Y71500D01*
X444001Y74000D02*
X444750Y71500D01*
X447750Y44000D02*
X449000Y65500D01*
Y74000D01*
X489000Y164000D02*
Y168000D01*
X479000Y171500D02*
X483250Y167250D01*
X484001Y164000D01*
X406000Y127500D02*
X409000Y129200D01*
X411500Y129700D01*
X413500D01*
X419000Y128999D01*
X385000Y149500D02*
X401450D01*
Y123800D02*
Y149500D01*
Y123800D02*
X409500D01*
X412000Y123300D01*
X416000D01*
X419000Y124000D01*
X385000Y145000D02*
X399785D01*
Y122100D02*
Y145000D01*
Y122100D02*
X409000D01*
X409500Y122050D01*
X412000Y121400D01*
X416875Y121500D01*
X443000Y44000D02*
X446500Y65500D01*
X446501Y71875D01*
X451500Y65500D02*
X452500Y44000D01*
X451500Y65500D02*
X451501Y71875D01*
X385000Y131500D02*
X394790D01*
Y111300D02*
Y131500D01*
Y111300D02*
X409000D01*
X415000D01*
X416875Y111500D01*
X398000Y44000D02*
X424000Y60500D01*
X429000Y65500D01*
Y74000D01*
X397500Y82500D02*
X400000Y84500D01*
X405000Y83800D01*
X409000D01*
X414000Y83300D01*
X417000D01*
X419000Y84000D01*
X402000Y75500D02*
X405000Y75600D01*
X409000D01*
X416875Y76500D01*
X404500Y134000D02*
X406000Y130900D01*
X409000D01*
X412000Y131500D01*
X416875D01*
X413000Y126650D02*
X416875Y126500D01*
X396500Y38500D02*
X415000Y46600D01*
X406000Y140500D02*
X413500Y137200D01*
X416875Y136500D01*
X385000Y119500D02*
X391460D01*
Y106800D02*
Y119500D01*
Y106800D02*
X409000D01*
X415000D01*
X416875Y106500D01*
X385000Y110500D02*
X388130D01*
Y98800D02*
Y110500D01*
Y98800D02*
X404000D01*
X409000Y98300D01*
X414000Y98700D01*
X419000Y98999D01*
X385000Y106000D02*
X386465D01*
Y97100D02*
Y106000D01*
Y97100D02*
X404000D01*
X409000Y96500D01*
X416875D01*
X391500Y87000D02*
X405000Y89000D01*
X409000Y89300D01*
X414000Y89600D01*
X417000Y89200D01*
X419000Y88999D01*
X386000Y89500D02*
X398000Y92000D01*
X401000Y90800D01*
X405000D01*
X409000Y91200D01*
X414000Y91400D01*
X416875Y91500D01*
X385000Y115000D02*
X389795D01*
Y104600D02*
Y115000D01*
Y104600D02*
X409000D01*
X415000D01*
X419000Y104000D01*
X402500Y81000D02*
X405000Y82100D01*
X409000D01*
X413500Y81500D01*
X416875D01*
X431501Y71875D02*
Y76498D01*
X434001Y78999D01*
X466501Y69000D02*
Y76500D01*
X469000Y78999D01*
X456501Y69000D02*
Y76500D01*
X459000Y78999D01*
X441501Y69000D02*
Y76500D01*
X444001Y78999D01*
X416875Y116500D02*
X421502D01*
X424001Y114000D01*
X491501Y161500D02*
Y166125D01*
Y161500D02*
X494001Y158999D01*
X486501Y161499D02*
Y166125D01*
Y161499D02*
X489000Y158999D01*
X484001Y148999D02*
X489000Y154000D01*
X449000Y84000D02*
Y88999D01*
X454001Y84000D02*
Y88999D01*
X426501Y71875D02*
Y76500D01*
X429000Y78999D01*
X506501Y146500D02*
X511125D01*
X504001Y144000D02*
X506501Y146500D01*
X501501Y156501D02*
Y167800D01*
X499000Y154000D02*
X501501Y156501D01*
Y81500D02*
X514000D01*
X499000Y84000D02*
X501501Y81500D01*
X409000Y101500D02*
X421501D01*
X424001Y98999D01*
X506501Y63500D02*
Y76500D01*
X504001Y78999D02*
X506501Y76500D01*
Y131500D02*
X519000D01*
X504001Y128999D02*
X506501Y131500D01*
X469000Y164000D02*
X471501Y166500D01*
X481501D01*
Y161499D02*
Y166500D01*
Y161499D02*
X484001Y158999D01*
X449000Y148999D02*
X454001Y154000D01*
X469000Y84000D02*
Y88999D01*
X474001Y84000D02*
Y88999D01*
X464001Y148999D02*
X469000Y154000D01*
X504001Y134000D02*
X506501Y136500D01*
X506502Y151500D02*
X511125D01*
X504001Y148999D02*
X506502Y151500D01*
X429000Y118999D02*
X434001Y124000D01*
Y84000D02*
Y88999D01*
X436501Y71875D02*
Y76500D01*
X439000Y78999D01*
Y84000D02*
Y88999D01*
X429000Y124000D02*
X434001Y128999D01*
X416875Y121500D02*
X421501D01*
X424001Y118999D01*
X446501Y71875D02*
Y76500D01*
X449000Y78999D01*
X451501Y71875D02*
Y76498D01*
X454001Y78999D01*
X489000Y118999D02*
X494001Y114000D01*
X499000D01*
X416875Y111500D02*
X421501D01*
X424001Y108999D01*
X489000Y148999D02*
X494001Y154000D01*
X489000Y84000D02*
Y88999D01*
X496501Y70200D02*
Y81501D01*
X494001Y84000D02*
X496501Y81501D01*
X464001Y84000D02*
Y88999D01*
X471501Y71875D02*
Y76498D01*
X474001Y78999D01*
X416875Y76500D02*
X421502D01*
X424001Y78999D01*
X416875Y131500D02*
X421501D01*
X424001Y128999D01*
X416875Y126500D02*
X421502D01*
X424001Y124000D01*
X429000Y134000D02*
X434001Y138999D01*
X416875Y136500D02*
X421502D01*
X424001Y134000D01*
X416875Y106500D02*
X421502D01*
X424001Y104000D01*
X429000D02*
X434001Y108999D01*
X429000Y98999D02*
X434001Y104000D01*
X416875Y96500D02*
X421502D01*
X424001Y94000D01*
X429000D02*
X434001Y98999D01*
X416875Y91500D02*
X421501D01*
X424001Y88999D01*
X429000Y108999D02*
X434001Y114000D01*
X414000Y86500D02*
X426501D01*
X429000Y84000D01*
Y88999D02*
X434001Y94000D01*
X416875Y81500D02*
X421501D01*
X424001Y84000D01*
D67*
X330200Y212585D02*
X332900D01*
Y221879D01*
X331279Y223500D02*
X332900Y221879D01*
X323036Y223500D02*
X331279D01*
X321018Y221482D02*
X323036Y223500D01*
X320018Y221482D02*
X321018D01*
X318000Y223500D02*
X320018Y221482D01*
X294121Y223500D02*
X318000D01*
X268000Y197379D02*
X294121Y223500D01*
X268000Y182446D02*
Y197379D01*
Y182446D02*
X277825Y172621D01*
Y144079D02*
Y172621D01*
X273946Y140200D02*
X277825Y144079D01*
X257750Y140200D02*
X273946D01*
X257750Y138500D02*
Y140200D01*
X335900Y212585D02*
X336700D01*
X335900D02*
Y223121D01*
X332521Y226500D02*
X335900Y223121D01*
X292879Y226500D02*
X332521D01*
X265000Y198621D02*
X292879Y226500D01*
X265000Y181204D02*
Y198621D01*
Y181204D02*
X274825Y171379D01*
Y145321D02*
Y171379D01*
X272704Y143200D02*
X274825Y145321D01*
X257750Y143200D02*
X272704D01*
X257750D02*
Y143501D01*
X231500Y109000D02*
X232500Y105750D01*
X231500Y109000D02*
Y116000D01*
X235700Y117500D01*
X248000Y94500D02*
Y113000D01*
X246500Y117000D02*
X248000Y113000D01*
Y158500D02*
X257750D01*
X248000Y121000D02*
Y158500D01*
X246500Y117000D02*
X248000Y121000D01*
X548002Y91497D02*
Y100000D01*
X583000D01*
X72000Y58000D02*
X76000Y56000D01*
X91000Y61000D02*
X96000Y66000D01*
X83000Y44000D02*
X86000Y41500D01*
X83000Y36000D02*
X86000Y34250D01*
X474001Y148999D02*
X479000Y154000D01*
X489000Y104000D02*
X494001Y108999D01*
X429000Y128999D02*
X434001Y134000D01*
X479000Y148999D02*
X484001Y154000D01*
X479000Y128999D02*
X484001Y134000D01*
X454001Y148999D02*
X459000Y154000D01*
X469000Y148999D02*
X474001Y154000D01*
X414000Y69000D02*
X419000Y74000D01*
X479000Y104000D02*
X484001Y98999D01*
X444001Y138999D02*
X449000Y134000D01*
X489000Y138999D02*
X494001Y144000D01*
X459000Y148999D02*
X464001Y154000D01*
X429000D02*
X434001Y148999D01*
D68*
X225750Y75000D02*
X230000D01*
X176750Y162000D02*
X181000Y163500D01*
X387500Y180000D02*
X388250Y184250D01*
X257000Y202500D02*
Y206750D01*
X235999Y75000D02*
X236000Y79500D01*
X175250Y167250D02*
X181000Y169499D01*
X393499Y180000D02*
X393500Y184250D01*
X262999Y202500D02*
X263000Y206750D01*
X431750Y181250D02*
X438500Y174950D01*
X519500Y124495D02*
X530001D01*
X279300Y48500D02*
Y65000D01*
X185000Y105000D02*
X192250Y108450D01*
X248000Y94500D02*
X264000Y81000D01*
X303750Y90500D02*
Y100000D01*
X277250Y182000D02*
Y193000D01*
Y182000D02*
X286000D01*
Y112000D02*
Y182000D01*
X270000Y112000D02*
X286000D01*
X257750Y118500D02*
X266500D01*
X519500Y157500D02*
X530001Y157492D01*
X519000Y94450D02*
X530001Y91497D01*
D69*
X594200Y203400D02*
X601499Y209781D01*
D70*
X566003Y157492D02*
X576750D01*
X548002D02*
X566003D01*
Y91497D02*
X576200Y91400D01*
X421400Y198800D02*
X421500Y208499D01*
X395200Y208400D02*
X404500Y208499D01*
X361200Y133000D02*
Y143501D01*
X371750D01*
X225499Y149850D02*
X232600Y155000D01*
X192200Y134400D02*
X192251Y149950D01*
X317250Y182800D02*
Y193000D01*
X257750Y133500D02*
X269000D01*
X274500Y129000D01*
Y116250D02*
Y129000D01*
X352250Y179200D02*
Y193000D01*
X324000Y179200D02*
X352250D01*
X312375Y174000D02*
X324000Y179200D01*
X312375Y100000D02*
Y174000D01*
X409000Y78999D02*
X419000D01*
X404000Y94000D02*
X419000D01*
X409000Y118999D02*
X419000D01*
X504001Y154000D02*
X509000Y158999D01*
X514000D01*
X479000Y118999D02*
X484001D01*
X454001Y98999D02*
Y104000D01*
X449000Y98999D02*
Y104000D01*
X444001Y118999D02*
X449000D01*
X444001Y124000D02*
X449000D01*
X479000Y134000D02*
Y138999D01*
X474001Y134000D02*
Y138999D01*
Y108999D02*
Y114000D01*
X479000D02*
Y118999D01*
X474001Y114000D02*
X479000D01*
X474001Y118999D02*
X479000D01*
X454001Y104000D02*
Y108999D01*
X449000Y104000D02*
Y108999D01*
Y114000D02*
Y118999D01*
X494001Y108999D02*
X499000D01*
X494001Y94000D02*
X499000D01*
X494001Y138999D02*
X499000D01*
X479000Y84000D02*
Y88999D01*
Y124000D02*
Y128999D01*
X464001Y114000D02*
Y118999D01*
Y124000D01*
X469000Y98999D02*
Y104000D01*
X464001Y98999D02*
Y104000D01*
Y134000D02*
Y138999D01*
X469000Y104000D02*
Y108999D01*
X464001Y104000D02*
X469000D01*
X464001Y108999D02*
X469000D01*
X464001Y104000D02*
Y108999D01*
Y114000D01*
Y124000D02*
Y128999D01*
Y134000D01*
X474001Y158999D02*
X479000D01*
X474001Y164000D02*
X479000D01*
Y158999D02*
Y164000D01*
X474001Y154000D02*
Y158999D01*
Y164000D01*
Y62500D02*
Y74000D01*
X509000Y88999D02*
X519000D01*
X509000Y114000D02*
X514000D01*
X509000Y138999D02*
X514000D01*
X509000Y154000D02*
X514000D01*
X509000Y164000D02*
X514000D01*
X464001Y154000D02*
X469000Y158999D01*
X459000D02*
X464001Y154000D01*
X469000Y158999D02*
Y164000D01*
X459000Y158999D02*
Y164000D01*
X409000Y134000D02*
X419000D01*
X414000Y144000D02*
X419000D01*
X414000Y154000D02*
X419000D01*
X414000Y158999D02*
X419000D01*
X414000Y164000D02*
X419000D01*
Y138999D02*
Y144000D01*
X424001Y138999D02*
X429000D01*
X419000D02*
X424001D01*
Y144000D02*
X429000D01*
X419000D02*
X424001D01*
X429000Y138999D02*
Y144000D01*
Y148999D01*
Y154000D01*
X444001Y158999D02*
X449000D01*
X439000D02*
X444001D01*
X434001D02*
X439000D01*
X429000D02*
X434001D01*
X444001Y164000D02*
X449000D01*
X439000D02*
X444001D01*
X434001D02*
X439000D01*
X429000D02*
X434001D01*
X449000Y154000D02*
Y158999D01*
Y164000D01*
X444001Y154000D02*
Y158999D01*
Y164000D01*
X439000Y154000D02*
Y158999D01*
Y164000D01*
X434001Y154000D02*
Y158999D01*
Y164000D01*
X429000Y154000D02*
Y158999D01*
Y164000D01*
X444001Y154000D02*
X449000D01*
X439000D02*
X444001D01*
X434001D02*
X439000D01*
X429000D02*
X434001D01*
X424001D02*
X429000D01*
X419000D02*
X424001D01*
X419000D02*
Y158999D01*
Y164000D01*
X469000Y114000D02*
Y118999D01*
Y124000D01*
X459000Y114000D02*
Y118999D01*
Y124000D01*
X479000Y104000D02*
X484001D01*
X479000Y98999D02*
Y104000D01*
X474001Y98999D02*
Y104000D01*
X459000Y98999D02*
Y104000D01*
X444001Y128999D02*
X449000D01*
X444001Y134000D02*
X449000D01*
X469000D02*
Y138999D01*
X459000Y134000D02*
Y138999D01*
X454001Y134000D02*
Y138999D01*
X449000Y134000D02*
Y138999D01*
X474001Y104000D02*
X479000D01*
Y108999D01*
X474001Y124000D02*
Y128999D01*
X469000Y124000D02*
X474001D01*
X469000Y128999D02*
X474001D01*
X469000Y124000D02*
Y128999D01*
Y134000D01*
X459000Y104000D02*
Y108999D01*
Y114000D01*
X454001D02*
X459000D01*
X454001D02*
Y118999D01*
Y124000D01*
X459000D01*
Y128999D01*
X454001Y124000D02*
Y128999D01*
X459000D01*
X449000D02*
X454001D01*
X459000D02*
Y134000D01*
X454001Y128999D02*
Y134000D01*
X449000Y128999D02*
Y134000D01*
X454001D02*
X459000D01*
X449000D02*
X454001D01*
X494001Y144000D02*
X499000D01*
X459000Y84000D02*
Y88999D01*
X444001Y84000D02*
Y88999D01*
X429000Y138999D02*
Y144000D01*
X434001D01*
X444001Y154000D02*
X449000D01*
X444001Y148999D02*
Y154000D01*
X439000Y148999D02*
Y154000D01*
X429000Y148999D02*
X434001D01*
Y154000D01*
D71*
X511500Y213050D02*
X521800Y203200D01*
X320000Y88500D02*
X324750Y90250D01*
X347249Y69625D02*
Y72000D01*
X292251Y69625D02*
X347249D01*
X292251D02*
Y72000D01*
X279300Y69625D02*
X292251D01*
X279300Y65000D02*
Y69625D01*
D72*
X123000Y122750D02*
X130000Y123750D01*
D73*
X141500Y123749D01*
Y101750D02*
X153250D01*
X64251Y65251D02*
Y72250D01*
X57751Y184750D02*
X61500Y177500D01*
X340200Y239585D02*
X365201D01*
X295199D02*
X320200D01*
X566000Y184000D02*
X566003Y174490D01*
X548000Y184000D02*
X548002Y174490D01*
Y141493D02*
X566003D01*
X576500Y141490D01*
X519500Y134500D02*
X530001Y141493D01*
Y108495D02*
X548002D01*
X566003D01*
X576500Y106000D01*
X548002Y75498D02*
X566003D01*
X530001D02*
X548002D01*
X520000Y72000D02*
X530001Y75498D01*
X325500Y22500D02*
X334000Y30501D01*
X241501Y125850D02*
Y137850D01*
X548002Y124495D02*
X566003D01*
X578000Y124500D01*
X530001Y58500D02*
X548002D01*
X566003D01*
X348000Y166500D02*
X359000Y180000D01*
D74*
X129750Y71000D02*
X140250Y67750D01*
X305199Y212585D02*
X317201D01*
X303750Y100000D02*
X312375D01*
X286000D02*
X303750D01*
X286000D02*
Y112000D01*
X530001Y58500D02*
X536000Y48000D01*
X121550Y110000D02*
X124400D01*
X120000D02*
X121550D01*
X127000Y23000D02*
X133000Y25000D01*
X127000Y18600D02*
Y23000D01*
X343200Y212590D02*
Y225000D01*
D75*
X140250Y170600D02*
Y181250D01*
D76*
X347000Y203200D02*
X355201Y212585D01*
X342251Y203200D02*
X347000D01*
D77*
X342251Y193001D02*
Y203200D01*
X237600Y122000D02*
X241501Y125850D01*
X371750Y108500D02*
X378500D01*
X276000Y93000D02*
X284000Y90500D01*
X276000Y93000D02*
Y105500D01*
X269750Y90000D02*
Y101500D01*
X265000Y103501D02*
X269750Y101500D01*
X257750Y103501D02*
X265000D01*
Y128500D02*
X270250Y121250D01*
X257750Y128500D02*
X265000D01*
X257750Y123501D02*
X265000D01*
X381750Y182000D02*
X383500Y184000D01*
X371750Y168500D02*
X378500D01*
X347249Y72000D02*
Y79000D01*
X292251Y72000D02*
Y79000D01*
X347250Y182800D02*
Y193000D01*
X361500Y118500D02*
X371750D01*
D78*
X530001Y174490D02*
X538500Y184000D01*
D79*
X519000Y131500D02*
X519500Y134500D01*
D80*
X519000Y64000D02*
X520000Y72000D01*
D81*
X404500Y186500D02*
X415000Y198500D01*
D82*
X235700Y117500D02*
Y119500D01*
X237600Y122000D01*
X381400Y99500D02*
X381800Y97800D01*
D83*
X251000Y173501D02*
Y208000D01*
Y173501D02*
X257750D01*
X265000Y123501D02*
X270250Y121250D01*
X361500Y100000D02*
Y118500D01*
X312375Y100000D02*
X361500D01*
D84*
X361000Y87000D02*
X366500Y94700D01*
D85*
X379300D01*
D86*
X381400Y99500D02*
Y106000D01*
X378500Y108500D02*
X381400Y106000D01*
D87*
X267000Y110000D02*
X276000Y105500D01*
X267000Y110000D02*
Y111500D01*
X265000Y113501D02*
X267000Y111500D01*
X241500Y173850D02*
Y191000D01*
X114200D02*
X241500D01*
X114200Y151500D02*
Y191000D01*
X107950Y149000D02*
X114200Y151500D01*
X107950Y77000D02*
Y149000D01*
X102500Y73500D02*
X107950Y77000D01*
X156000Y173850D02*
X225500D01*
X156000Y167000D02*
Y173850D01*
X117000Y167000D02*
X156000D01*
X117000Y145000D02*
Y167000D01*
X110150Y143000D02*
X117000Y145000D01*
X110150Y56000D02*
Y143000D01*
X76000Y56000D02*
X110150D01*
X241500Y161850D02*
X248000D01*
Y194000D01*
X105750D02*
X248000D01*
X105750Y81000D02*
Y194000D01*
X99000Y81000D02*
X105750D01*
X99000Y70000D02*
Y81000D01*
X96000Y66000D02*
X99000Y70000D01*
X219000Y158000D02*
X225500Y161850D01*
X153000Y158000D02*
X219000D01*
X153000Y140650D02*
Y158000D01*
X112350Y41500D02*
Y140650D01*
X86000Y41500D02*
X112350D01*
X233500Y149850D02*
X241500D01*
X233500Y119725D02*
Y149850D01*
X114550Y118250D02*
X218000D01*
X114550Y34250D02*
Y118250D01*
D88*
X257750Y113501D02*
X265000D01*
D89*
X318000Y86000D02*
X320000Y88500D01*
D90*
X317249Y79000D02*
X318000Y86000D01*
D91*
X381750Y171250D02*
Y182000D01*
D92*
X378500Y168500D02*
X381750Y171250D01*
D93*
X317250Y182800D02*
X347250D01*
X303000Y173500D02*
X317250Y182800D01*
X303000Y164000D02*
Y173500D01*
D94*
X266500Y118500D02*
X270000Y112000D01*
D95*
X560000Y36000D02*
X571500Y12700D01*
X482000Y36000D02*
X560000D01*
X166900Y49493D02*
X256000D01*
X132000D02*
X149600D01*
D96*
X476000Y32000D02*
X482000Y36000D01*
X349000Y28500D02*
X422000D01*
X284500Y15500D02*
X309500D01*
D97*
X469000Y25300D02*
X476000Y32000D01*
X427000Y25300D02*
X469000D01*
X422000Y28500D02*
X427000Y25300D01*
X277000Y25000D02*
X284500Y15500D01*
X265000Y25000D02*
X277000D01*
X255000Y30000D02*
X265000Y25000D01*
X151000D02*
X157000Y30000D01*
X133000Y25000D02*
X151000D01*
D98*
X344500Y33660D02*
X349000Y28500D01*
X344500Y33660D02*
Y64000D01*
X303500D02*
X344500D01*
X303500Y33000D02*
Y64000D01*
X276000Y33000D02*
X303500D01*
X273000Y41000D02*
X276000Y33000D01*
X160600Y49493D02*
X163500D01*
X152900D02*
X155800D01*
X321000Y110000D02*
Y132000D01*
D99*
X256000Y49493D02*
X273000Y41000D01*
D100*
X163500Y49493D02*
X166900D01*
X149600D02*
X152900D01*
X121550Y56000D02*
X132000Y49493D01*
X121550Y56000D02*
Y110000D01*
D101*
X155800Y49493D02*
X160600D01*
X343200Y225000D02*
X366800D01*
D102*
X309500Y15500D02*
X314000Y30500D01*
X157000Y30000D02*
X255000D01*
D103*
X366800Y200000D02*
Y225000D01*
X359000Y180000D02*
X366800Y200000D01*
X321000Y132000D02*
X348000Y166500D01*
D104*
X651300Y63500D02*
D03*
D105*
Y88900D02*
D03*
Y114300D02*
D03*
Y139700D02*
D03*
Y165100D02*
D03*
Y190500D02*
D03*
X676700Y63500D02*
D03*
Y88900D02*
D03*
Y114300D02*
D03*
Y139700D02*
D03*
Y165100D02*
D03*
Y190500D02*
D03*
D106*
X617600Y216800D02*
D03*
Y37200D02*
D03*
D107*
X643000Y216800D02*
D03*
X668400D02*
D03*
X643000Y37200D02*
D03*
X668400D02*
D03*
X546100Y12700D02*
D03*
X571500D02*
D03*
X596900D02*
D03*
X546100Y241300D02*
D03*
X571500D02*
D03*
X12700Y12700D02*
D03*
X38100D02*
D03*
X63500D02*
D03*
X88900D02*
D03*
X114300D02*
D03*
X139700D02*
D03*
X165100D02*
D03*
X190500D02*
D03*
X215900D02*
D03*
X241300D02*
D03*
X266700D02*
D03*
X393700D02*
D03*
X419100D02*
D03*
X444500D02*
D03*
X469900D02*
D03*
X495300D02*
D03*
X520700D02*
D03*
X12700Y241300D02*
D03*
X38100D02*
D03*
X63500D02*
D03*
X88900D02*
D03*
X114300D02*
D03*
X139700D02*
D03*
X165100D02*
D03*
X190500D02*
D03*
X215900D02*
D03*
X241300D02*
D03*
X266700D02*
D03*
X393700D02*
D03*
X419100D02*
D03*
X495300D02*
D03*
X444500D02*
D03*
X469900D02*
D03*
X520700D02*
D03*
D108*
X596900D02*
D03*
D109*
X365201Y239585D02*
D03*
X295199D02*
D03*
D110*
X355201Y212585D02*
D03*
X305199D02*
D03*
D111*
X494500Y118800D02*
D03*
X410000Y152000D02*
D03*
X396000Y162000D02*
D03*
X354500Y160000D02*
D03*
X519500Y140500D02*
D03*
X324000Y156500D02*
D03*
X331000Y155000D02*
D03*
X328000Y148500D02*
D03*
X355000Y134000D02*
D03*
X570500Y195500D02*
D03*
X559500Y190500D02*
D03*
X513500Y134500D02*
D03*
X506500Y111500D02*
D03*
X424000Y172500D02*
D03*
X372000Y182000D02*
D03*
X328500Y168500D02*
D03*
X318000Y151000D02*
D03*
X382000Y128000D02*
D03*
X491500Y112500D02*
D03*
X391250Y206250D02*
D03*
X384500Y200000D02*
D03*
X308500Y181500D02*
D03*
X307000Y153250D02*
D03*
X323500Y148000D02*
D03*
X316250Y135500D02*
D03*
X328500Y134000D02*
D03*
X345750Y143000D02*
D03*
X356000D02*
D03*
X486500Y156500D02*
D03*
X474500Y169500D02*
D03*
X406000Y162000D02*
D03*
X394000Y153000D02*
D03*
X485000Y174000D02*
D03*
X591500Y195000D02*
D03*
X408500Y168500D02*
D03*
X403000Y159000D02*
D03*
X608000Y182000D02*
D03*
X553500Y26000D02*
D03*
X487500Y24500D02*
D03*
X273000Y82000D02*
D03*
X608000Y174000D02*
D03*
X326000Y40000D02*
D03*
X322000Y57000D02*
D03*
X276000Y68000D02*
D03*
X609000Y193000D02*
D03*
X601000Y94000D02*
D03*
X577000Y59000D02*
D03*
X470000Y38000D02*
D03*
X430000Y33000D02*
D03*
X256000Y60000D02*
D03*
X428000Y196000D02*
D03*
X127000Y144000D02*
D03*
X132500Y163000D02*
D03*
X426500Y121500D02*
D03*
X138500Y163000D02*
D03*
X477000Y176000D02*
D03*
X130000Y81500D02*
D03*
X238500Y184000D02*
D03*
X194500Y161000D02*
D03*
X152000Y96000D02*
D03*
X131000Y107000D02*
D03*
X402500Y65000D02*
D03*
X372000Y45000D02*
D03*
X158000Y121500D02*
D03*
X130000Y136000D02*
D03*
X174500Y113000D02*
D03*
X512000Y19000D02*
D03*
X461000Y61000D02*
D03*
X583500Y139500D02*
D03*
X512500Y146000D02*
D03*
X595000Y158000D02*
D03*
X562500Y187500D02*
D03*
X532000Y184000D02*
D03*
X329500Y109500D02*
D03*
X316500Y106000D02*
D03*
X281500D02*
D03*
X620000Y90000D02*
D03*
X635000Y99000D02*
D03*
X604000Y85000D02*
D03*
X596000Y146000D02*
D03*
X304000Y182500D02*
D03*
X294000Y144500D02*
D03*
X333000Y161000D02*
D03*
X316000Y142000D02*
D03*
X307000D02*
D03*
X293000Y135000D02*
D03*
X279000D02*
D03*
X280000Y116000D02*
D03*
X301000Y153000D02*
D03*
Y143000D02*
D03*
X227000Y97000D02*
D03*
X308500Y161000D02*
D03*
X290500Y109000D02*
D03*
X236000Y97500D02*
D03*
X293000Y156000D02*
D03*
X290000Y118500D02*
D03*
X234000Y101500D02*
D03*
X205000Y155000D02*
D03*
X220000Y106000D02*
D03*
X520000Y111500D02*
D03*
X381500Y207000D02*
D03*
X372000Y201000D02*
D03*
X514000Y107500D02*
D03*
X494000Y99500D02*
D03*
X584000Y63000D02*
D03*
X601000Y88000D02*
D03*
X604000Y102000D02*
D03*
Y131000D02*
D03*
X577000Y186000D02*
D03*
X566000Y199000D02*
D03*
X550000Y216000D02*
D03*
X539000Y214000D02*
D03*
X459000Y228000D02*
D03*
X423000Y226000D02*
D03*
X410000Y237000D02*
D03*
X383000Y244000D02*
D03*
X218000Y101000D02*
D03*
X477000Y93000D02*
D03*
X398500Y70500D02*
D03*
X372500Y76000D02*
D03*
X253500Y84500D02*
D03*
X454000Y94500D02*
D03*
X389000Y93000D02*
D03*
X359000Y75000D02*
D03*
X224500Y82500D02*
D03*
X214500Y92500D02*
D03*
X208000Y106000D02*
D03*
X513000Y77000D02*
D03*
X515000Y71000D02*
D03*
X582500Y92000D02*
D03*
X501500Y131500D02*
D03*
X520000Y57000D02*
D03*
X517000Y85000D02*
D03*
X513000Y92500D02*
D03*
X271000Y86000D02*
D03*
X229000Y82000D02*
D03*
X201500Y106000D02*
D03*
X184500Y155000D02*
D03*
X268000Y147000D02*
D03*
X512500Y98500D02*
D03*
X499000Y224500D02*
D03*
X488000Y228000D02*
D03*
X474000D02*
D03*
X384500Y204000D02*
D03*
X333500Y203500D02*
D03*
X576000Y178000D02*
D03*
X481500Y46000D02*
D03*
X472500Y55500D02*
D03*
X461500Y81500D02*
D03*
X576000Y174000D02*
D03*
X594000Y94000D02*
D03*
X576000Y72500D02*
D03*
X455000Y51500D02*
D03*
X577500Y170000D02*
D03*
X582000Y113500D02*
D03*
X594500Y183500D02*
D03*
X587500Y148500D02*
D03*
X594500Y192500D02*
D03*
X591500Y180500D02*
D03*
X498500Y186500D02*
D03*
X478000Y183000D02*
D03*
X457000Y175000D02*
D03*
X527500Y183500D02*
D03*
X501500Y141500D02*
D03*
X567500Y216500D02*
D03*
X555000Y224500D02*
D03*
X493000Y200000D02*
D03*
X468000Y187500D02*
D03*
X557000Y133000D02*
D03*
X506500Y136500D02*
D03*
X500000Y182500D02*
D03*
X490500Y176000D02*
D03*
X511500Y169500D02*
D03*
X518000Y152000D02*
D03*
X512500Y120000D02*
D03*
X485500Y199500D02*
D03*
X479000Y223000D02*
D03*
X290000Y183000D02*
D03*
X282251Y204000D02*
D03*
X286000Y208500D02*
D03*
X591500Y162000D02*
D03*
X500500Y194000D02*
D03*
X494000Y187000D02*
D03*
X475000Y186500D02*
D03*
X454500Y178000D02*
D03*
X384000Y95500D02*
D03*
X365000Y83500D02*
D03*
X299500Y89000D02*
D03*
X551000Y203000D02*
D03*
X525000Y207000D02*
D03*
X407000Y226000D02*
D03*
X390000Y220000D02*
D03*
X261000Y182000D02*
D03*
X494000Y124000D02*
D03*
X512500Y124500D02*
D03*
X540000Y209500D02*
D03*
X504000Y221500D02*
D03*
X437000Y229500D02*
D03*
X494000Y134500D02*
D03*
X454000Y172000D02*
D03*
X444500Y180500D02*
D03*
X495500Y149500D02*
D03*
X402500Y232500D02*
D03*
X501500Y151500D02*
D03*
X506000Y180500D02*
D03*
X491000Y189500D02*
D03*
X492500Y212000D02*
D03*
X484000Y226500D02*
D03*
X441000Y229500D02*
D03*
X400500Y220500D02*
D03*
X426000Y223000D02*
D03*
X501500Y106500D02*
D03*
X253500Y63000D02*
D03*
X165000Y60000D02*
D03*
X501500Y86500D02*
D03*
X260250Y20500D02*
D03*
X250500Y16750D02*
D03*
X202500Y38500D02*
D03*
X471500Y81500D02*
D03*
X408000Y72500D02*
D03*
X363500Y75500D02*
D03*
X490000Y49000D02*
D03*
X429000Y10000D02*
D03*
X382000D02*
D03*
X227000Y11000D02*
D03*
X484001Y88999D02*
D03*
X406000Y62500D02*
D03*
X377500Y44500D02*
D03*
X481500Y70000D02*
D03*
X411500Y62000D02*
D03*
X370000Y66500D02*
D03*
X486000Y59000D02*
D03*
X592000Y84000D02*
D03*
X409000Y244000D02*
D03*
X174000Y105000D02*
D03*
X198000Y81000D02*
D03*
X174000Y109000D02*
D03*
X211000Y66000D02*
D03*
X400750Y37250D02*
D03*
X496500Y156500D02*
D03*
X507500Y218500D02*
D03*
X522500D02*
D03*
X534000Y221500D02*
D03*
X529500Y227500D02*
D03*
X506501Y63500D02*
D03*
X519000Y64000D02*
D03*
Y88999D02*
D03*
Y131500D02*
D03*
X514000Y154000D02*
D03*
Y164000D02*
D03*
X484001Y98999D02*
D03*
X479000D02*
D03*
X484001Y104000D02*
D03*
X469000Y118999D02*
D03*
Y138999D02*
D03*
X459000Y118999D02*
D03*
Y98999D02*
D03*
Y88999D02*
D03*
X268000Y151500D02*
D03*
X493000Y46000D02*
D03*
X281000Y148000D02*
D03*
X282000Y120000D02*
D03*
X221000Y94000D02*
D03*
X232000Y67000D02*
D03*
X277000Y10000D02*
D03*
X345000Y12000D02*
D03*
X486500Y76500D02*
D03*
X421000Y68500D02*
D03*
X382000Y64500D02*
D03*
X500000Y54000D02*
D03*
X515000Y46000D02*
D03*
X501500Y76500D02*
D03*
X507000Y51000D02*
D03*
X515250Y128250D02*
D03*
X286000Y232250D02*
D03*
X520000Y145000D02*
D03*
X525500Y228500D02*
D03*
X503500Y235000D02*
D03*
X501500Y116500D02*
D03*
X506500Y126500D02*
D03*
X279000Y224500D02*
D03*
X212500Y229000D02*
D03*
X505500Y169500D02*
D03*
X558000Y209000D02*
D03*
X530000Y189000D02*
D03*
X516000Y169000D02*
D03*
X561000Y212000D02*
D03*
X555500Y194500D02*
D03*
X519500Y103000D02*
D03*
X468000Y65000D02*
D03*
X474500Y44000D02*
D03*
X463500Y55000D02*
D03*
X470000Y61000D02*
D03*
X520000Y107500D02*
D03*
X472000Y205000D02*
D03*
X430000Y205500D02*
D03*
D112*
X329000Y163000D02*
D03*
X288500Y89500D02*
D03*
X594000Y175500D02*
D03*
X628500Y153500D02*
D03*
X434000Y10000D02*
D03*
X170500Y167000D02*
D03*
X101000Y205500D02*
D03*
X404500Y146000D02*
D03*
X611000Y187000D02*
D03*
X623000Y110000D02*
D03*
X583000Y105000D02*
D03*
X457000Y16000D02*
D03*
X217500Y129500D02*
D03*
X218000Y125000D02*
D03*
X213000Y134000D02*
D03*
X624500Y91000D02*
D03*
X187000Y121500D02*
D03*
X588500Y125000D02*
D03*
X465500Y61500D02*
D03*
X576500Y153000D02*
D03*
X256000Y194000D02*
D03*
X175000Y183000D02*
D03*
X459000Y191000D02*
D03*
X609000Y62000D02*
D03*
X577000Y64000D02*
D03*
X587000Y215000D02*
D03*
X170000Y182000D02*
D03*
X171000Y162000D02*
D03*
X491500Y194000D02*
D03*
X227000Y16000D02*
D03*
X455900Y34500D02*
D03*
X446900D02*
D03*
X434000Y18900D02*
D03*
X407000Y15500D02*
D03*
X457000Y45000D02*
D03*
X451400Y34500D02*
D03*
X429800Y14500D02*
D03*
X225750Y75000D02*
D03*
X176750Y162000D02*
D03*
X388250Y184250D02*
D03*
X289250Y203750D02*
D03*
X257000Y206750D02*
D03*
X236000Y79500D02*
D03*
X175250Y167250D02*
D03*
X393500Y184250D02*
D03*
X295250Y204000D02*
D03*
X263000Y206750D02*
D03*
X634400Y165800D02*
D03*
Y137400D02*
D03*
X618200Y198400D02*
D03*
Y170000D02*
D03*
X594200Y203400D02*
D03*
X593400Y165800D02*
D03*
X582000Y35000D02*
D03*
X576200Y91400D02*
D03*
X572400Y224800D02*
D03*
X547400Y46200D02*
D03*
X535400Y217400D02*
D03*
X525750Y46250D02*
D03*
X521800Y203200D02*
D03*
X518500Y118500D02*
D03*
X514200Y65400D02*
D03*
X483800Y178400D02*
D03*
X448750Y190500D02*
D03*
X421400Y198800D02*
D03*
X395200Y208400D02*
D03*
X384400Y37800D02*
D03*
X372000Y70400D02*
D03*
X361400Y19800D02*
D03*
X361200Y133000D02*
D03*
X352600Y163800D02*
D03*
X341800Y15400D02*
D03*
X326250Y10000D02*
D03*
X321750Y10250D02*
D03*
X272200Y192200D02*
D03*
X239400Y23200D02*
D03*
X232600Y155000D02*
D03*
X226400Y21200D02*
D03*
X209800Y187400D02*
D03*
X193400Y23200D02*
D03*
X192200Y134400D02*
D03*
X189250Y201000D02*
D03*
X130000Y123750D02*
D03*
X123000Y122750D02*
D03*
X122200Y176600D02*
D03*
X101000Y183800D02*
D03*
X99200Y213800D02*
D03*
X76200D02*
D03*
X26250Y171500D02*
D03*
Y161250D02*
D03*
X28750Y166500D02*
D03*
X69498Y221400D02*
D03*
X46499Y221500D02*
D03*
X17500Y222500D02*
D03*
X153250Y101750D02*
D03*
X129750Y71000D02*
D03*
X64251Y72250D02*
D03*
X61500Y177500D02*
D03*
X140250Y170600D02*
D03*
X383500Y184000D02*
D03*
X377750Y184750D02*
D03*
X323500Y165750D02*
D03*
X281400Y166600D02*
D03*
X185600Y161800D02*
D03*
X272150Y219000D02*
D03*
X543000Y48000D02*
D03*
X601000Y141700D02*
D03*
X554500Y230000D02*
D03*
X575500Y203000D02*
D03*
X544500D02*
D03*
X566000Y184000D02*
D03*
X548000D02*
D03*
X538500D02*
D03*
X584500Y76500D02*
D03*
X576500Y146000D02*
D03*
Y141490D02*
D03*
Y110500D02*
D03*
Y106000D02*
D03*
X508000Y236000D02*
D03*
X482600D02*
D03*
X457200D02*
D03*
X431800D02*
D03*
X513500Y194750D02*
D03*
X482500Y203000D02*
D03*
X451500Y202500D02*
D03*
X415000Y198500D02*
D03*
X465750Y32250D02*
D03*
X502500Y49750D02*
D03*
X498500Y178500D02*
D03*
X472000Y183000D02*
D03*
X449750D02*
D03*
X431750Y181250D02*
D03*
X457500Y64500D02*
D03*
X490500Y66000D02*
D03*
X519000Y81000D02*
D03*
X344750Y90000D02*
D03*
X371500Y40000D02*
D03*
X343000Y20000D02*
D03*
X324000Y15750D02*
D03*
X325500Y22500D02*
D03*
X285200Y24300D02*
D03*
X254000Y12000D02*
D03*
X256000Y18000D02*
D03*
X231000Y22500D02*
D03*
X171000Y39000D02*
D03*
X216000Y23160D02*
D03*
X207000Y38500D02*
D03*
X232500Y105750D02*
D03*
X251000Y208000D02*
D03*
X361000Y87000D02*
D03*
X284000Y90500D02*
D03*
X269750Y90000D02*
D03*
X270250Y121250D02*
D03*
X324750Y90250D02*
D03*
X519500Y124495D02*
D03*
X576750Y157492D02*
D03*
X584500Y225500D02*
D03*
X465900Y194000D02*
D03*
X496500Y203000D02*
D03*
X567000Y211000D02*
D03*
X465500Y202500D02*
D03*
X394000Y217500D02*
D03*
X397500Y64500D02*
D03*
X279300Y48500D02*
D03*
X303000Y164000D02*
D03*
X185000Y105000D02*
D03*
X408500Y156000D02*
D03*
X169500Y60000D02*
D03*
X52330Y204000D02*
D03*
X34330D02*
D03*
X352000Y15750D02*
D03*
X274500Y116250D02*
D03*
X201200Y21000D02*
D03*
X264000Y81000D02*
D03*
X246500Y117000D02*
D03*
X175700Y21000D02*
D03*
X252000D02*
D03*
X325500Y44500D02*
D03*
X303750Y90500D02*
D03*
X478000Y52500D02*
D03*
X533400Y23000D02*
D03*
X508000D02*
D03*
X583000Y100000D02*
D03*
X519500Y157500D02*
D03*
X505000Y194000D02*
D03*
X11000Y93000D02*
D03*
X578000Y124500D02*
D03*
X536000Y48000D02*
D03*
X519000Y94450D02*
D03*
X483500Y50000D02*
D03*
X124400Y110000D02*
D03*
X120000D02*
D03*
X127000Y18600D02*
D03*
Y23000D02*
D03*
X321000Y132000D02*
D03*
Y110000D02*
D03*
X72000Y58000D02*
D03*
X83000Y44000D02*
D03*
Y36000D02*
D03*
X102500Y73500D02*
D03*
X91000Y61000D02*
D03*
X55350Y39000D02*
D03*
X146665Y31470D02*
D03*
X158165Y43485D02*
D03*
Y55500D02*
D03*
X171030Y67515D02*
D03*
X153000Y86000D02*
D03*
X129800D02*
D03*
X89200Y37500D02*
D03*
Y31000D02*
D03*
X98000Y25800D02*
D03*
X101500Y45500D02*
D03*
X98000Y97000D02*
D03*
X95000Y73500D02*
D03*
X110500Y155415D02*
D03*
X126000Y128500D02*
D03*
Y137300D02*
D03*
Y132900D02*
D03*
X39065Y139520D02*
D03*
X68480Y155020D02*
D03*
X59680D02*
D03*
X64080D02*
D03*
X54540Y57785D02*
D03*
X47040Y97500D02*
D03*
Y88700D02*
D03*
Y93100D02*
D03*
X271500Y69750D02*
D03*
X419000Y44000D02*
D03*
X270500Y166500D02*
D03*
X385000Y140500D02*
D03*
X247500Y69750D02*
D03*
X385000Y44000D02*
D03*
X271250Y161000D02*
D03*
X388500Y127000D02*
D03*
X255500Y69750D02*
D03*
X391500Y44000D02*
D03*
X273000Y74000D02*
D03*
X423750Y44000D02*
D03*
X308250Y166500D02*
D03*
X292500D02*
D03*
X385000Y136000D02*
D03*
X293250Y89500D02*
D03*
X309750Y89250D02*
D03*
X428500Y44000D02*
D03*
X315500Y89500D02*
D03*
X433250Y44000D02*
D03*
X333250Y89500D02*
D03*
X339750Y89250D02*
D03*
X438250Y44000D02*
D03*
X356500Y70750D02*
D03*
X447750Y44000D02*
D03*
X383500Y167250D02*
D03*
X489000Y168000D02*
D03*
X361250Y166500D02*
D03*
X479000Y171500D02*
D03*
X356250Y166500D02*
D03*
X406000Y127500D02*
D03*
X340250Y166500D02*
D03*
X332500D02*
D03*
X385000Y149500D02*
D03*
X316500Y166500D02*
D03*
X385000Y145000D02*
D03*
X367500Y70250D02*
D03*
X443000Y44000D02*
D03*
X380250Y70500D02*
D03*
X452500Y44000D02*
D03*
X268500Y156000D02*
D03*
X385000Y131500D02*
D03*
X263500Y69750D02*
D03*
X398000Y44000D02*
D03*
X227500Y70500D02*
D03*
X397500Y82500D02*
D03*
X235500Y70500D02*
D03*
X402000Y75500D02*
D03*
X404500Y134000D02*
D03*
X461500Y33500D02*
D03*
X413000Y126650D02*
D03*
X396500Y38500D02*
D03*
X415000Y46600D02*
D03*
X406000Y140500D02*
D03*
X218250Y162500D02*
D03*
X385000Y119500D02*
D03*
X216250Y166750D02*
D03*
X211000Y166500D02*
D03*
X385000Y110500D02*
D03*
X203500Y166500D02*
D03*
X195500D02*
D03*
X385000Y106000D02*
D03*
X187500Y166500D02*
D03*
Y70500D02*
D03*
X391500Y87000D02*
D03*
X195500Y70500D02*
D03*
X386000Y89500D02*
D03*
X233500Y161750D02*
D03*
Y166500D02*
D03*
X385000Y115000D02*
D03*
X219500Y70500D02*
D03*
X203500D02*
D03*
X211500D02*
D03*
X402500Y81000D02*
D03*
X474001Y148999D02*
D03*
X466501Y69000D02*
D03*
X456501D02*
D03*
X441501D02*
D03*
X409000Y78999D02*
D03*
X404000Y94000D02*
D03*
X409000Y118999D02*
D03*
X514000Y158999D02*
D03*
X484001Y118999D02*
D03*
X454001Y98999D02*
D03*
X449000D02*
D03*
X444001Y118999D02*
D03*
Y124000D02*
D03*
X479000Y138999D02*
D03*
X474001D02*
D03*
X489000Y104000D02*
D03*
X494001Y94000D02*
D03*
Y138999D02*
D03*
X479000Y88999D02*
D03*
X434001Y134000D02*
D03*
X479000Y148999D02*
D03*
X439000Y144000D02*
D03*
X484001Y134000D02*
D03*
X454001Y148999D02*
D03*
X464001Y118999D02*
D03*
X469000Y98999D02*
D03*
X464001D02*
D03*
Y138999D02*
D03*
X484001Y148999D02*
D03*
X449000Y88999D02*
D03*
X454001D02*
D03*
X501501Y167800D02*
D03*
X514000Y81500D02*
D03*
X469000Y148999D02*
D03*
X409000Y101500D02*
D03*
X474001Y62500D02*
D03*
X514000Y114000D02*
D03*
Y138999D02*
D03*
X414000Y69000D02*
D03*
X409000Y134000D02*
D03*
X414000Y144000D02*
D03*
Y154000D02*
D03*
Y158999D02*
D03*
Y164000D02*
D03*
X484001Y114000D02*
D03*
X444001Y104000D02*
D03*
X474001Y98999D02*
D03*
X444001Y128999D02*
D03*
Y134000D02*
D03*
Y138999D02*
D03*
X459000D02*
D03*
X454001D02*
D03*
X449000D02*
D03*
X489000D02*
D03*
X444001Y88999D02*
D03*
X459000Y148999D02*
D03*
X434001Y144000D02*
D03*
X444001Y148999D02*
D03*
X439000D02*
D03*
X434001D02*
D03*
X449000D02*
D03*
X469000Y88999D02*
D03*
X474001D02*
D03*
X464001Y148999D02*
D03*
X434001Y124000D02*
D03*
Y88999D02*
D03*
X439000D02*
D03*
X434001Y128999D02*
D03*
X489000Y118999D02*
D03*
Y148999D02*
D03*
Y88999D02*
D03*
X496501Y70200D02*
D03*
X464001Y88999D02*
D03*
X434001Y138999D02*
D03*
Y108999D02*
D03*
Y104000D02*
D03*
Y98999D02*
D03*
Y114000D02*
D03*
X414000Y86500D02*
D03*
X434001Y94000D02*
D03*
M02*
