G04*
G04 #@! TF.GenerationSoftware,Altium Limited,Altium Designer Develop,26.10.1 (6)*
G04*
G04 Layer_Physical_Order=4*
G04 Layer_Color=16440176*
G04 Board_Origin=0|0*
%FSLAX44Y44*%
%MOMM*%
G71*
G04*
G04 #@! TF.SameCoordinates,EEE79D95-1273-47A5-AA60-2D221297641E*
G04*
G04*
G04 #@! TF.FilePolarity,Positive*
G04*
G01*
G75*
%ADD10C,0.1500*%
%ADD67C,0.0762*%
%ADD68C,0.3000*%
%ADD70C,0.2000*%
%ADD73C,0.5000*%
%ADD74C,0.4000*%
%ADD107C,1.5240*%
%ADD110C,1.4501*%
%ADD111C,0.3000*%
%ADD112C,0.3500*%
%ADD113C,1.7365*%
%ADD114C,1.4080*%
%ADD115O,0.9000X1.6000*%
%ADD116C,0.3900*%
%ADD117C,0.1250*%
%ADD118C,0.2700*%
%ADD119C,0.3700*%
D10*
X469000Y147500D02*
Y148999D01*
X467500Y146000D02*
X469000Y147500D01*
X467500Y128700D02*
Y146000D01*
Y128700D02*
X477200Y119000D01*
Y109800D02*
Y119000D01*
Y109800D02*
X482500Y104500D01*
Y82500D02*
Y104500D01*
Y82500D02*
X483500Y81500D01*
Y50000D02*
Y81500D01*
D67*
X494500Y118800D02*
X497500Y122000D01*
Y143500D01*
X496500Y144500D02*
X497500Y143500D01*
X496500Y144500D02*
Y152000D01*
X492000Y156500D02*
X496500Y152000D01*
X490000Y156500D02*
X492000D01*
X487500Y159000D02*
X490000Y156500D01*
X475000Y159000D02*
X487500D01*
X474500Y158500D02*
X475000Y159000D01*
X442000Y158500D02*
X474500D01*
X441500Y159000D02*
X442000Y158500D01*
X438500Y159000D02*
X441500D01*
X434000Y154500D02*
X438500Y159000D01*
X433500Y154500D02*
X434000D01*
X433000Y154000D02*
X433500Y154500D01*
X428000Y154000D02*
X433000D01*
X426500Y152500D02*
X428000Y154000D01*
X395500Y162500D02*
X396000Y162000D01*
X369000Y162500D02*
X395500D01*
X368000Y163500D02*
X369000Y162500D01*
X352000Y168000D02*
Y168500D01*
X348500Y164500D02*
X352000Y168000D01*
X559500Y185500D02*
Y190500D01*
X551000Y177000D02*
X559500Y185500D01*
X550000Y177000D02*
X551000D01*
X535000Y162000D02*
X550000Y177000D01*
X531500Y162000D02*
X535000D01*
X483500Y171500D02*
X496000Y171000D01*
X480000Y175000D02*
X483500Y171500D01*
X435500Y175000D02*
X480000D01*
X413000Y178500D02*
X423000Y178000D01*
X367500Y175000D02*
X413000Y178500D01*
X353500Y175000D02*
X367500D01*
X345000Y166500D02*
X353500Y175000D01*
X328000Y148500D02*
X355000Y134000D01*
X503500Y121500D02*
Y148000D01*
X494000Y157500D02*
X503500Y148000D01*
X489500Y160500D02*
X494000Y157500D01*
X488500Y161500D02*
X489500Y160500D01*
X456500Y161500D02*
X488500D01*
X435500Y164500D02*
X445000D01*
X370000Y180000D02*
X372000Y182000D01*
X361000Y180000D02*
X370000D01*
X354000Y187000D02*
X361000Y180000D01*
X352000Y187000D02*
X354000D01*
X328500Y168500D02*
X352000Y187000D01*
X362000Y136500D02*
X366500Y132000D01*
X360000Y136500D02*
X362000D01*
X358000Y134500D02*
X360000Y136500D01*
X358000Y133000D02*
Y134500D01*
X355500Y131000D02*
X358000Y133000D01*
X343500Y132500D02*
X355500Y131000D01*
X318000Y151000D02*
X343500Y132500D01*
X590500Y121000D02*
X592750Y123250D01*
Y160500D01*
X588000Y168500D02*
X592750Y160500D01*
X583750Y172750D02*
X588000Y168500D01*
X575750Y182500D02*
Y197750D01*
X559750Y213750D02*
X575750Y197750D01*
X559750Y213750D02*
Y215500D01*
X555000Y220250D02*
X559750Y215500D01*
X547500Y91500D02*
X552000Y96000D01*
X547000Y90000D02*
X547500Y91500D01*
X536500Y80500D02*
X547000Y90000D01*
X495750Y83250D02*
X506250Y72750D01*
X492500Y83250D02*
X495750D01*
X495250Y89750D02*
X497250Y91750D01*
Y99750D01*
X496750Y100750D02*
X497250Y99750D01*
X490250Y107250D02*
X496750Y100750D01*
X490250Y107250D02*
Y111250D01*
X491500Y112500D01*
X543500Y231250D02*
X545250D01*
X524500Y250250D02*
X543500Y231250D01*
X491500Y250250D02*
X524500D01*
X485750Y244500D02*
X491500Y250250D01*
X348000Y188750D02*
X357000D01*
X340750Y181500D02*
X348000Y188750D01*
X609500Y172000D02*
X611000Y173500D01*
X593000Y172000D02*
X609500D01*
X589000Y176000D02*
X593000Y172000D01*
X574000Y176000D02*
X589000D01*
X515000Y181500D02*
X515500D01*
X512000Y178500D02*
X515000Y181500D01*
X508500Y178500D02*
X512000D01*
X502500Y172500D02*
X508500Y178500D01*
X525500Y199000D02*
X544500Y198500D01*
X509000Y203500D02*
X525500Y199000D01*
X501500Y202500D02*
X509000Y203500D01*
X440000Y199000D02*
X462500D01*
X439500Y198500D02*
X440000Y199000D01*
X423500Y190000D02*
X431000D01*
X396500Y119500D02*
X401000Y143000D01*
X338500Y81500D02*
X358000D01*
X296500D02*
X314500D01*
X288500Y89500D02*
X296500Y81500D01*
X454000Y26000D02*
X461500D01*
X392500Y22000D02*
X444000Y28500D01*
X390000Y22000D02*
X392500D01*
X381500Y13500D02*
X390000Y22000D01*
X286500Y32500D02*
X311500Y16000D01*
X283500Y43500D02*
X291500Y48000D01*
X617600Y117100D02*
X627500Y127000D01*
X617600Y37200D02*
Y117100D01*
X427000Y3000D02*
X434000Y10000D01*
X388000Y3000D02*
X427000D01*
X377000Y14000D02*
X388000Y3000D01*
X609000Y193000D02*
X613000Y190000D01*
X615000Y187000D01*
Y164000D02*
Y187000D01*
X612000Y161000D02*
X615000Y164000D01*
X601000Y94000D02*
X612000Y161000D01*
X512000Y35000D02*
X539000Y41000D01*
X392000Y29000D02*
X430000Y33000D01*
X335000Y27000D02*
X392000Y29000D01*
X235000Y38000D02*
X244000Y25000D01*
X427000Y195000D02*
X428000Y196000D01*
X411500Y195000D02*
X427000D01*
X405500Y201000D02*
X411500Y195000D01*
X325000Y201000D02*
X405500D01*
X323000Y199000D02*
X325000Y201000D01*
X248500Y199000D02*
X323000D01*
X228000Y178500D02*
X248500Y199000D01*
X206500Y178500D02*
X228000D01*
X201000Y173000D02*
X206500Y178500D01*
X174000Y173000D02*
X201000D01*
X171500Y170500D02*
X174000Y173000D01*
X169500Y170500D02*
X171500D01*
X143000Y144000D02*
X169500Y170500D01*
X127000Y144000D02*
X143000D01*
X396000Y133000D02*
Y142000D01*
X280500Y197000D02*
X322500Y195000D01*
X267000D02*
X280500Y197000D01*
X246000Y174000D02*
X267000Y195000D01*
X209500Y174000D02*
X246000D01*
X206000Y170500D02*
X209500Y174000D01*
X174000Y170500D02*
X206000D01*
X170500Y167000D02*
X174000Y170500D01*
X445000Y195500D02*
X445500Y196000D01*
X433000Y195500D02*
X445000D01*
X432500Y196000D02*
X433000Y195500D01*
X302500Y203000D02*
X413500D01*
X294000Y211500D02*
X302500Y203000D01*
X153000Y211500D02*
X294000D01*
X149500Y208000D02*
X153000Y211500D01*
X130000Y81500D02*
X133000Y84500D01*
Y106000D01*
X114500Y124500D02*
X133000Y106000D01*
X114500Y124500D02*
Y191000D01*
X434500Y189000D02*
X444500D01*
X432000Y186500D02*
X434500Y189000D01*
X428000Y186500D02*
X432000D01*
X422000Y180500D02*
X423500Y182000D01*
X377500Y180500D02*
X422000D01*
X371500Y186500D02*
X377500Y180500D01*
X363000Y186500D02*
X371500D01*
X357500Y192000D02*
X363000Y186500D01*
X300000Y192000D02*
X357500D01*
X295000Y187000D02*
X300000Y192000D01*
X181000Y125000D02*
Y143000D01*
X152000Y96000D02*
X181000Y125000D01*
X459500Y61000D02*
X464000Y65500D01*
X457500Y61000D02*
X459500D01*
X457000Y61500D02*
X457500Y61000D01*
X431500Y61500D02*
X457000D01*
X416000Y66500D02*
X422500D01*
X415000Y65500D02*
X416000Y66500D01*
X409000Y65500D02*
X415000D01*
X408500Y66000D02*
X409000Y65500D01*
X407500Y110000D02*
X416000Y118500D01*
X392500Y110000D02*
X407500D01*
X392500D02*
Y116500D01*
X385500Y123500D02*
X392500Y116500D01*
X348500Y123500D02*
X385500D01*
X315000Y130000D02*
X348500Y123500D01*
X251500Y121500D02*
X253000Y123000D01*
X213500Y122000D02*
X251500Y121500D01*
X583500Y109500D02*
Y139500D01*
X470000Y38000D02*
X473000Y35000D01*
X470000Y38000D02*
Y43000D01*
X552000Y52500D02*
Y57000D01*
X544500Y64500D02*
X552000Y57000D01*
X541000Y111500D02*
Y136500D01*
X539500Y138000D02*
X541000Y136500D01*
X539500Y138000D02*
Y144500D01*
X539000Y145000D02*
X539500Y144500D01*
X539000Y145000D02*
Y145500D01*
X538000Y146500D02*
X539000Y145500D01*
X537500Y146500D02*
X538000D01*
X537000Y147000D02*
X537500Y146500D01*
X522000Y147000D02*
X537000D01*
X521000Y148000D02*
X522000Y147000D01*
X514500Y148000D02*
X521000D01*
X512500Y146000D02*
X514500Y148000D01*
X532000Y178000D02*
Y184000D01*
X524000Y170000D02*
X532000Y178000D01*
X510000Y170000D02*
X524000D01*
X487500Y174500D02*
X494000D01*
X434500Y178000D02*
X439500D01*
X431500Y175000D02*
X434500Y178000D01*
X412500Y175500D02*
X431500Y175000D01*
X463000Y18500D02*
X467000Y22500D01*
X453000Y18500D02*
X463000D01*
X294000Y140500D02*
Y144500D01*
X288000Y134500D02*
X294000Y140500D01*
X337000Y168000D02*
X353000Y184000D01*
X333000Y161000D02*
X337000Y168000D01*
X277000Y121000D02*
X278000Y115000D01*
X276000Y113000D02*
X278000Y115000D01*
X272000Y113000D02*
X276000D01*
X267000Y118000D02*
X272000Y113000D01*
X289000Y168000D02*
X318000Y189000D01*
X289000Y165000D02*
Y168000D01*
Y165000D02*
X301000Y153000D01*
X292000Y134000D02*
X301000Y143000D01*
X232000Y97000D02*
X259000Y124000D01*
X227000Y97000D02*
X232000D01*
X320000Y167000D02*
X341000Y188000D01*
X320000Y164500D02*
Y167000D01*
X318000Y162500D02*
X320000Y164500D01*
X254000Y170000D02*
X270000Y186000D01*
X210000Y170000D02*
X254000D01*
X207000Y167000D02*
X210000Y170000D01*
X207000Y167000D02*
X212000Y157000D01*
X548000Y136000D02*
X549000Y135000D01*
X548000Y136000D02*
Y145500D01*
X519500Y194500D02*
X523000Y191000D01*
X472500Y209500D02*
X509500D01*
X455000Y203500D02*
X457000D01*
X452500Y206000D02*
X455000Y203500D01*
X402000Y206000D02*
X452500D01*
X396500Y211500D02*
X402000Y206000D01*
X394000Y211500D02*
X396500D01*
X389500Y207000D02*
X394000Y211500D01*
X381500Y207000D02*
X389500D01*
X325500D02*
X331000D01*
X543000Y180000D02*
X546000Y177000D01*
X535000Y126000D02*
Y138500D01*
X516500Y107500D02*
X535000Y126000D01*
X514000Y107500D02*
X516500D01*
X486000Y183000D02*
X507000D01*
X485500Y183500D02*
X486000Y183000D01*
X477000Y183500D02*
X485500D01*
X476500Y183000D02*
X477000Y183500D01*
X473000Y186500D02*
X476500Y183000D01*
X449500Y186500D02*
X473000D01*
X449000Y186000D02*
X449500Y186500D01*
X435500Y186000D02*
X449000D01*
X399500Y185000D02*
X412500D01*
X398500Y186000D02*
X399500Y185000D01*
X564000Y199000D02*
X566000D01*
X554000Y209000D02*
X564000Y199000D01*
X550000Y216000D02*
X554000Y209000D01*
X540000Y37000D02*
X542000Y40000D01*
Y42000D01*
X540000Y44000D02*
X542000Y42000D01*
X534000Y45000D02*
X540000Y44000D01*
X519000Y54000D02*
X534000Y45000D01*
X496000Y75000D02*
X519000Y54000D01*
X525000Y214000D02*
X539000D01*
X513000Y226000D02*
X525000Y214000D01*
X459000Y228000D02*
X513000Y226000D01*
X208000Y112000D02*
X218000Y101000D01*
X175000Y178000D02*
X198000Y182000D01*
X165000Y173000D02*
X175000Y178000D01*
X462500Y93000D02*
X477000D01*
X451500Y82000D02*
X462500Y93000D01*
X370000Y78500D02*
X372500Y76000D01*
X339500Y77500D02*
X370000Y78500D01*
X272000Y79000D02*
X315500Y77500D01*
X266500Y84500D02*
X272000Y79000D01*
X253500Y84500D02*
X266500D01*
X480000Y126000D02*
Y134500D01*
X492500Y147000D01*
Y149000D01*
X492000Y149500D02*
X492500Y149000D01*
X492000Y149500D02*
Y151500D01*
X491500Y152000D02*
X492000Y151500D01*
X489500Y152000D02*
X491500D01*
X489000Y152500D02*
X489500Y152000D01*
X434000Y152500D02*
X489000D01*
X433500Y152000D02*
X434000Y152500D01*
X432500Y152000D02*
X433500D01*
X430000Y149500D02*
X432500Y152000D01*
X430000Y136500D02*
Y149500D01*
X420000Y111000D02*
X426000Y117000D01*
X343000Y71000D02*
X352000D01*
X341500Y69500D02*
X343000Y71000D01*
X294000Y69500D02*
X318000D01*
X292000Y71500D02*
X294000Y69500D01*
X234000Y75500D02*
X268500D01*
X536000Y76000D02*
X552000Y92000D01*
X514000Y76000D02*
X536000D01*
X513000Y77000D02*
X514000Y76000D01*
X587000Y118000D02*
X596000D01*
X569000Y111000D02*
X571000Y115000D01*
X537000Y74000D02*
X551000Y87000D01*
X518000Y74000D02*
X537000D01*
X515000Y71000D02*
X518000Y74000D01*
X582500Y92000D02*
X594000Y107500D01*
X500500Y137000D02*
Y146500D01*
X499500Y147500D02*
X500500Y146500D01*
X584000Y70000D02*
X593000D01*
X520000Y57000D02*
X541000Y55000D01*
X573000Y112000D02*
X577000Y120000D01*
X572000Y106000D02*
X573000Y112000D01*
X546000Y103000D02*
X552000D01*
X520750Y77750D02*
X546000Y103000D01*
X517750Y77750D02*
X520750D01*
X514000Y81500D02*
X517750Y77750D01*
X595000Y79000D02*
X613500Y62000D01*
X591000Y79000D02*
X595000D01*
X520000Y85500D02*
X524000D01*
X513000Y92500D02*
X520000Y85500D01*
X187000Y111000D02*
Y121500D01*
X185500Y109500D02*
X187000Y111000D01*
X244000Y148000D02*
X268000Y147000D01*
X181000Y105000D02*
X189000Y155000D01*
X181000Y105000D02*
X184000Y100000D01*
X538000Y126500D02*
Y131000D01*
X525000Y113500D02*
X538000Y126500D01*
X525000Y102500D02*
Y113500D01*
X539000Y205000D02*
X540000D01*
X532500Y211500D02*
X539000Y205000D01*
X523000Y211500D02*
X532500D01*
X511500Y223000D02*
X523000Y211500D01*
X337000Y207000D02*
X345000D01*
X565000Y147000D02*
Y176500D01*
X563500Y145500D02*
X565000Y147000D01*
X563500Y145000D02*
Y145500D01*
X566000Y111000D02*
Y124500D01*
X561500Y106500D02*
X566000Y111000D01*
X510000Y93500D02*
X515000Y98500D01*
X510000Y89500D02*
Y93500D01*
X491000Y54000D02*
X497500Y60500D01*
X491000Y48000D02*
Y54000D01*
X485500Y42500D02*
X491000Y48000D01*
X485000Y42500D02*
X485500D01*
X472500Y55500D02*
X477500Y60500D01*
Y71000D01*
X467000Y81500D02*
X477500Y71000D01*
X461500Y81500D02*
X467000D01*
X581000Y145500D02*
Y160500D01*
X574500Y167000D02*
X581000Y160500D01*
X458000Y54500D02*
X462000D01*
X455000Y51500D02*
X458000Y54500D01*
X588500Y125000D02*
Y145000D01*
X590500Y147000D01*
Y157500D01*
X591000Y158000D01*
Y160000D01*
X581000Y170000D02*
X591000Y160000D01*
X577500Y170000D02*
X581000D01*
X498000Y24000D02*
X502500D01*
X495000Y27000D02*
X498000Y24000D01*
X476000Y30000D02*
X479000Y27000D01*
X476000Y30000D02*
Y37000D01*
X473500Y39500D02*
X476000Y37000D01*
X469500Y53500D02*
X473500Y49500D01*
X469500Y53500D02*
Y57500D01*
X465500Y61500D02*
X469500Y57500D01*
X421000Y119000D02*
Y125000D01*
X408000Y108000D02*
X421000Y119000D01*
X390000Y106000D02*
X408000Y108000D01*
X538000Y220000D02*
X554000Y201000D01*
X516000Y228000D02*
X538000Y220000D01*
X494000Y230000D02*
X516000Y228000D01*
X473000Y251000D02*
X494000Y230000D01*
X390000Y251000D02*
X473000D01*
X383000Y244000D02*
X390000Y251000D01*
X262000Y117000D02*
X269000Y112000D01*
X179000Y146000D02*
X184000D01*
X164000Y161000D02*
X179000Y146000D01*
X515000Y60000D02*
X541000D01*
X495000Y80000D02*
X515000Y60000D01*
X469000Y88999D02*
X479000Y81000D01*
X544000Y106500D02*
X552000Y114500D01*
X533000Y106500D02*
X544000D01*
X526000Y99500D02*
X533000Y106500D01*
X518500Y99500D02*
X526000D01*
X515000Y103000D02*
X518500Y99500D01*
X527500Y176000D02*
Y183500D01*
X523500Y172000D02*
X527500Y176000D01*
X512000Y172000D02*
X523500D01*
X511000Y173000D02*
X512000Y172000D01*
X509000Y173000D02*
X511000D01*
X505500Y169500D02*
X509000Y173000D01*
X505500Y150500D02*
Y169500D01*
Y150500D02*
X508500Y147500D01*
X568000Y173000D02*
Y177500D01*
X562500Y183000D02*
X568000Y177500D01*
X562500Y183000D02*
Y187000D01*
X515000Y122000D02*
X516000D01*
X511500Y118500D02*
X515000Y122000D01*
X509500Y118500D02*
X511500D01*
X499000Y108000D02*
X509500Y118500D01*
X499000Y108000D02*
X507500D01*
X510500Y105000D01*
Y135500D02*
Y141000D01*
X509000Y142500D02*
X510500Y141000D01*
X551000Y140500D02*
Y146500D01*
X547500Y150000D02*
X551000Y146500D01*
X520000Y115000D02*
X529000Y124000D01*
X517500Y115000D02*
X520000D01*
X515000Y117500D02*
X517500Y115000D01*
X513000Y117500D02*
X515000D01*
X510000Y114500D02*
X513000Y117500D01*
X509500Y114500D02*
X510000D01*
X508500Y199500D02*
X509500Y200500D01*
X485500Y199500D02*
X508500D01*
X277000Y183000D02*
X290000D01*
X268000Y192000D02*
X277000Y183000D01*
X532500Y195000D02*
X535500Y192000D01*
X525000Y195000D02*
X532500D01*
X522000Y198000D02*
X525000Y195000D01*
X512500Y198000D02*
X522000D01*
X512000Y197500D02*
X512500Y198000D01*
X504000Y197500D02*
X512000D01*
X500500Y194000D02*
X504000Y197500D01*
X446000Y161500D02*
X449000Y164500D01*
X437000Y161500D02*
X446000D01*
X432500Y157000D02*
X437000Y161500D01*
X409500Y127500D02*
X414500Y132500D01*
X409500Y126500D02*
Y127500D01*
X398500Y115500D02*
X409500Y126500D01*
X396500Y115500D02*
X398500D01*
X360000Y83500D02*
X365000D01*
X358000Y85500D02*
X360000Y83500D01*
X337000Y85500D02*
X358000D01*
X313000Y86000D02*
X313500Y85500D01*
X302500Y86000D02*
X313000D01*
X299500Y89000D02*
X302500Y86000D01*
X531000Y166000D02*
X537000Y172000D01*
X522000Y166000D02*
X531000D01*
X488000Y190000D02*
X490000Y188000D01*
X460000Y190000D02*
X488000D01*
X459000Y191000D02*
X460000Y190000D01*
X611000Y84000D02*
Y130000D01*
X603000Y76000D02*
X611000Y84000D01*
X597000Y187000D02*
X602000Y182000D01*
X590000Y187000D02*
X597000D01*
X511000Y216000D02*
X516000Y211000D01*
X418000Y225000D02*
X511000Y216000D01*
X531000Y128000D02*
X532000Y127000D01*
X512000Y128000D02*
X531000D01*
X509500Y125500D02*
X512000Y128000D01*
X509500Y123500D02*
Y125500D01*
X497000Y111000D02*
X509500Y123500D01*
X491500Y190500D02*
X496500D01*
X491000Y191000D02*
X491500Y190500D01*
X490000Y191000D02*
X491000D01*
X485000Y196000D02*
X490000Y191000D01*
X476500Y196000D02*
X485000D01*
X464500Y208000D02*
X476500Y196000D01*
X436500Y208000D02*
X464500D01*
X435500Y209000D02*
X436500Y208000D01*
X404000Y212000D02*
X429000D01*
X394000Y222000D02*
X404000Y212000D01*
X308500Y222000D02*
X394000D01*
X307000Y223500D02*
X308500Y222000D01*
X294500Y223500D02*
X307000D01*
X291500Y226500D02*
X294500Y223500D01*
X291000Y226500D02*
X291500D01*
X290500Y227000D02*
X291000Y226500D01*
X280000Y227000D02*
X290500D01*
X279500Y227500D02*
X280000Y227000D01*
X262500Y227500D02*
X279500D01*
X259000Y231000D02*
X262500Y227500D01*
X226200Y231000D02*
X259000D01*
X215900Y241300D02*
X226200Y231000D01*
X540000Y209500D02*
X542500D01*
X548000Y204000D01*
Y189000D02*
Y204000D01*
X540000Y181000D02*
X548000Y189000D01*
X540000Y171000D02*
Y181000D01*
X534500Y165500D02*
X540000Y171000D01*
X503000Y222500D02*
X504000Y221500D01*
X461500Y222500D02*
X503000D01*
X461000Y223000D02*
X461500Y222500D01*
X456000Y223000D02*
X461000D01*
X455500Y223500D02*
X456000Y223000D01*
X451000Y223500D02*
X455500D01*
X449500Y225000D02*
X451000Y223500D01*
X445500Y225000D02*
X449500D01*
X494000Y143500D02*
X494500Y144000D01*
Y149500D01*
X494000Y150000D02*
X494500Y149500D01*
X494000Y150000D02*
Y152000D01*
X492000Y154000D02*
X494000Y152000D01*
X491500Y154000D02*
X492000D01*
X491000Y154500D02*
X491500Y154000D01*
X477000Y154500D02*
X491000D01*
X475500Y156000D02*
X477000Y154500D01*
X444000Y181000D02*
X444500Y180500D01*
X436500Y181000D02*
X444000D01*
X433000Y184500D02*
X436500Y181000D01*
X430500Y184500D02*
X433000D01*
X429500Y183500D02*
X430500Y184500D01*
X426000Y183500D02*
X429500D01*
X419500Y190000D02*
X426000Y183500D01*
X399500Y190000D02*
X419500D01*
X294500Y226000D02*
X308500D01*
X292000Y228500D02*
X294500Y226000D01*
X291500Y228500D02*
X292000D01*
X291000Y229000D02*
X291500Y228500D01*
X286000Y229000D02*
X291000D01*
X285500Y229500D02*
X286000Y229000D01*
X278500Y229500D02*
X285500D01*
X266700Y241300D02*
X278500Y229500D01*
X492000Y162000D02*
X492500D01*
X498000Y167500D01*
Y169000D01*
X499000Y170000D01*
Y173500D01*
X495000Y177500D02*
X499000Y173500D01*
X489000Y177500D02*
X495000D01*
X485000Y181500D02*
X489000Y177500D01*
X482500Y181500D02*
X485000D01*
X480500Y179500D02*
X482500Y181500D01*
X471000Y179500D02*
X480500D01*
X467500Y183000D02*
X471000Y179500D01*
X440500Y215000D02*
X444500Y211000D01*
X414000Y215000D02*
X440500D01*
X402500Y226500D02*
X414000Y215000D01*
X441500Y155500D02*
X471500D01*
X441000Y156000D02*
X441500Y155500D01*
X479500Y72500D02*
X480000D01*
X468000Y84000D02*
X479500Y72500D01*
X464500Y58500D02*
X466000Y57000D01*
X436500Y58500D02*
X464500D01*
X407500Y61000D02*
X418500D01*
X407000Y61500D02*
X407500Y61000D01*
X403000Y61500D02*
X407000D01*
X402000Y62500D02*
X403000Y61500D01*
X355500Y42500D02*
X363500D01*
X350000Y37000D02*
X355500Y42500D01*
X506750Y61500D02*
X509500Y56500D01*
X510250Y68500D02*
Y77750D01*
X501500Y86500D02*
X510250Y77750D01*
X498000Y49750D02*
X503000Y54750D01*
X498000Y48750D02*
Y49750D01*
X443500Y72250D02*
X446000Y69750D01*
X440250Y72000D02*
X443500Y72250D01*
X426250Y64750D02*
X440250Y72000D01*
X422250Y63500D02*
X426250Y64750D01*
X421250Y64000D02*
X422250Y63500D01*
X407750Y63250D02*
X421250Y64000D01*
X404250Y65750D02*
X407750Y63250D01*
X334250Y29750D02*
X381000Y33000D01*
X314750Y21000D02*
X334250Y29750D01*
X248750Y20000D02*
X250500Y16750D01*
X248750Y20000D02*
Y32250D01*
X237500Y43500D02*
X248750Y32250D01*
X213250Y49250D02*
X218250D01*
X202500Y38500D02*
X213250Y49250D01*
X340500Y73500D02*
X363500Y75500D01*
X278000Y74500D02*
X316500Y73500D01*
X169000Y71000D02*
X174500D01*
X114300Y16300D02*
X169000Y71000D01*
X114300Y12700D02*
Y16300D01*
X479000Y20000D02*
X490000Y43000D01*
X493000Y108500D02*
X499500Y102000D01*
Y89500D02*
Y102000D01*
X497000Y87000D02*
X499500Y89500D01*
X492500Y87000D02*
X497000D01*
X492500D02*
Y90000D01*
X489000Y93500D02*
X492500Y90000D01*
X489000Y93500D02*
Y97500D01*
X466000Y105500D02*
X477000D01*
X457500Y97000D02*
X466000Y105500D01*
X457500Y92000D02*
Y97000D01*
X447000Y82000D02*
Y85000D01*
X442500Y77500D02*
X447000Y82000D01*
X454500Y75500D02*
X469000D01*
X449000Y70000D02*
X454500Y75500D01*
X449000Y68500D02*
Y70000D01*
X445500Y65000D02*
X449000Y68500D01*
X431000Y65000D02*
X445500D01*
X425000Y59000D02*
X431000Y65000D01*
X422500Y59000D02*
X425000D01*
X364500Y35000D02*
X368500D01*
X363500Y34000D02*
X364500Y35000D01*
X349000Y34000D02*
X363500D01*
X339000Y44000D02*
X349000Y34000D01*
X262500Y49000D02*
X274500D01*
X258500Y53000D02*
X262500Y49000D01*
X226000Y53000D02*
X258500D01*
X199500Y26500D02*
X226000Y53000D01*
X192000Y26500D02*
X199500D01*
X186000Y20500D02*
X192000Y26500D01*
X185500Y20500D02*
X186000D01*
X177700Y12700D02*
X185500Y20500D01*
X165100Y12700D02*
X177700D01*
X472000Y72500D02*
X474500Y70000D01*
X455500Y72500D02*
X472000D01*
X452000Y69000D02*
X455500Y72500D01*
X290000Y118500D02*
X316000Y110500D01*
X231000Y109000D02*
X238000D01*
X210500Y88500D02*
X231000Y109000D01*
X201500Y86500D02*
X210500Y88500D01*
X192000Y77000D02*
X201500Y86500D01*
X192000Y71000D02*
Y77000D01*
X189500Y28000D02*
X192000Y71000D01*
X606000Y135000D02*
X609000Y162000D01*
X597000Y89000D02*
X606000Y135000D01*
X592000Y84000D02*
X597000Y89000D01*
X212750Y22750D02*
X215900Y12700D01*
X212750Y22750D02*
X215000Y38000D01*
X209000Y181000D02*
X246000Y208000D01*
X173000Y175000D02*
X209000Y181000D01*
X163000Y168000D02*
X173000Y175000D01*
X562000Y111000D02*
X565000Y141000D01*
X571000Y160000D01*
Y192000D01*
X574000Y195000D01*
Y197000D01*
X557000Y214000D02*
X574000Y197000D01*
X531000Y84000D02*
X541000Y94000D01*
X241300Y12700D02*
X246750Y24250D01*
Y30250D01*
X227000Y50000D02*
X246750Y30250D01*
X342750Y23250D02*
X370000Y24750D01*
X323750Y19000D02*
X342750Y23250D01*
X322000Y18250D02*
X323750Y19000D01*
X316450Y12700D02*
X322000Y18250D01*
X266700Y12700D02*
X316450D01*
X464000Y22200D02*
X465750Y32250D01*
X440500Y22200D02*
X464000D01*
X599000Y116000D02*
X600000Y128000D01*
X597000Y106000D02*
X599000Y116000D01*
X597000Y99000D02*
Y106000D01*
X580000Y82000D02*
X597000Y99000D01*
X580000Y68000D02*
Y82000D01*
X560000Y198000D02*
X566000Y189000D01*
X532000Y235000D02*
X560000Y198000D01*
X286000Y169000D02*
X299000Y182000D01*
X286000Y165000D02*
Y169000D01*
X339000Y6000D02*
X345000Y12000D01*
X326000Y6000D02*
X339000D01*
X277000Y10000D02*
X326000Y6000D01*
X274000Y155000D02*
X281000Y148000D01*
X223000Y20000D02*
X227000Y16000D01*
X223000Y20000D02*
X226000Y38000D01*
X282000Y116000D02*
Y120000D01*
X268000Y102000D02*
X282000Y116000D01*
X238000Y95000D02*
X268000Y102000D01*
X221000Y94000D02*
X238000Y95000D01*
X385500Y32000D02*
X390500D01*
X381000Y37000D02*
X385500Y32000D01*
X378500Y41000D02*
X381000Y37000D01*
X377500Y68500D02*
X382000Y64500D01*
X376000Y72000D02*
X377500Y68500D01*
X536500Y21500D02*
X537500Y24500D01*
X534500Y19500D02*
X536500Y21500D01*
X533500Y19500D02*
X534500D01*
X532000Y20000D02*
X533500Y19500D01*
X530000Y22000D02*
X532000Y20000D01*
X517000Y22000D02*
X530000D01*
X500500Y5000D02*
X517000Y22000D01*
X497000Y3500D02*
X500500Y5000D01*
X453700Y3500D02*
X497000D01*
X444500Y12700D02*
X453700Y3500D01*
X521000Y40000D02*
X529000Y43000D01*
X515000Y46000D02*
X521000Y40000D01*
X484500Y23500D02*
X495300Y12700D01*
X484500Y23500D02*
Y24250D01*
X487000Y32500D01*
X494000Y39500D01*
Y50000D01*
X507000Y51000D02*
X510000Y44000D01*
Y37000D02*
Y44000D01*
X506000Y33000D02*
X510000Y37000D01*
X528000Y204500D02*
X530750Y201500D01*
X505250Y224000D02*
X528000Y204500D01*
X504750Y224500D02*
X505250Y224000D01*
X462000Y224500D02*
X504750D01*
X446250Y227750D02*
X462000Y224500D01*
X403250Y229250D02*
X446250Y227750D01*
X293000Y230000D02*
X403250Y229250D01*
X290750Y232250D02*
X293000Y230000D01*
X286000Y232250D02*
X290750D01*
X521000Y144000D02*
X536500D01*
X520000Y145000D02*
X521000Y144000D01*
X374500Y231500D02*
X464500D01*
X374500D02*
Y244000D01*
X534500Y188500D02*
X538500D01*
X531000Y192000D02*
X534500Y188500D01*
X527000Y192000D02*
X531000D01*
X503000Y189500D02*
X518500D01*
X498500Y185000D02*
X503000Y189500D01*
X486500Y185000D02*
X498500D01*
X484500Y187000D02*
X486500Y185000D01*
X477500Y187000D02*
X484500D01*
X467000Y197500D02*
X471000Y193500D01*
X465000Y197500D02*
X467000D01*
X462000Y194500D02*
X465000Y197500D01*
X448500Y194500D02*
X462000D01*
X447000Y193000D02*
X448500Y194500D01*
X367000Y193000D02*
X447000D01*
X365000Y195000D02*
X367000Y193000D01*
X320000Y210000D02*
X340000D01*
X317500Y212500D02*
X320000Y210000D01*
X278500Y221000D02*
X293500D01*
X277000Y222500D02*
X278500Y221000D01*
X183900Y222500D02*
X277000D01*
X165100Y241300D02*
X183900Y222500D01*
X445500Y213500D02*
X509000D01*
X442000Y217000D02*
X445500Y213500D01*
X416500Y217000D02*
X442000D01*
X410500Y223000D02*
X416500Y217000D01*
X410000Y223000D02*
X410500D01*
X279500Y224000D02*
X290000D01*
X279000Y224500D02*
X279500Y224000D01*
X554000Y213000D02*
X558000Y209000D01*
X546100Y241300D02*
X554000Y213000D01*
X513000Y176000D02*
X530000Y189000D01*
X561500Y149500D02*
Y172000D01*
X559000Y174500D02*
X561500Y172000D01*
X552500Y119000D02*
Y124500D01*
X542000Y108500D02*
X552500Y119000D01*
X531000Y108500D02*
X542000D01*
X544000Y35000D02*
X551000Y42000D01*
Y47000D01*
X544000Y54000D02*
X551000Y47000D01*
X544000Y54000D02*
Y61000D01*
X534000Y71000D02*
X544000Y61000D01*
X531000Y71000D02*
X534000D01*
X512000Y50000D02*
X513000D01*
X491000Y71000D02*
X512000Y50000D01*
X491000Y71000D02*
Y76000D01*
X506500Y42500D02*
X507000D01*
X499500Y35500D02*
X506500Y42500D01*
X479000Y35500D02*
Y39500D01*
X474500Y44000D02*
X479000Y39500D01*
X546000Y128000D02*
Y141000D01*
X534000Y153000D02*
X546000Y141000D01*
X532500Y153000D02*
X534000D01*
X503500Y206000D02*
X516000D01*
X503000Y206500D02*
X503500Y206000D01*
X473500Y206500D02*
X503000D01*
X472000Y205000D02*
X473500Y206500D01*
X469000Y33500D02*
X471500Y30000D01*
X462500Y40000D02*
X469000Y33500D01*
X460500Y40000D02*
X462500D01*
X342000Y3000D02*
X349000Y10000D01*
X47800Y3000D02*
X342000D01*
X38100Y12700D02*
X47800Y3000D01*
X451400Y34500D02*
X457000Y45000D01*
X450000Y27000D02*
X461500Y33500D01*
X430000Y23000D02*
X450000Y27000D01*
X429800Y14500D02*
X430000Y23000D01*
D68*
X98000Y97000D02*
X129800Y86000D01*
D70*
X474000Y144700D02*
X474001Y148999D01*
X470300Y141000D02*
X474000Y144700D01*
X470300Y129700D02*
Y141000D01*
Y129700D02*
X480000Y120000D01*
Y111300D02*
Y120000D01*
Y111300D02*
X485300Y106000D01*
Y83500D02*
Y106000D01*
Y83500D02*
X486300Y82500D01*
Y54200D02*
Y82500D01*
Y54200D02*
X488000Y52500D01*
Y48500D02*
Y52500D01*
X485500Y46000D02*
X488000Y48500D01*
X478000Y46000D02*
X485500D01*
X478000D02*
Y52500D01*
D73*
X191000Y117000D02*
X246500D01*
X190500Y95000D02*
X191000Y117000D01*
X183000Y80000D02*
X190500Y95000D01*
X179000Y68000D02*
X183000Y80000D01*
X179000Y34000D02*
Y68000D01*
D74*
X252000Y34500D02*
X254500Y37000D01*
X325500D01*
Y44500D01*
X508000Y23000D02*
Y29000D01*
X557000D01*
Y100000D01*
X583000D01*
X557000D02*
Y157500D01*
X519500D02*
X557000D01*
D107*
X643000Y216800D02*
D03*
X668400D02*
D03*
X643000Y37200D02*
D03*
X668400D02*
D03*
X546100Y12700D02*
D03*
X571500D02*
D03*
X596900D02*
D03*
X546100Y241300D02*
D03*
X571500D02*
D03*
X12700Y12700D02*
D03*
X38100D02*
D03*
X63500D02*
D03*
X88900D02*
D03*
X114300D02*
D03*
X139700D02*
D03*
X165100D02*
D03*
X190500D02*
D03*
X215900D02*
D03*
X241300D02*
D03*
X266700D02*
D03*
X393700D02*
D03*
X419100D02*
D03*
X444500D02*
D03*
X469900D02*
D03*
X495300D02*
D03*
X520700D02*
D03*
X12700Y241300D02*
D03*
X38100D02*
D03*
X63500D02*
D03*
X88900D02*
D03*
X114300D02*
D03*
X139700D02*
D03*
X165100D02*
D03*
X190500D02*
D03*
X215900D02*
D03*
X241300D02*
D03*
X266700D02*
D03*
X393700D02*
D03*
X419100D02*
D03*
X495300D02*
D03*
X444500D02*
D03*
X469900D02*
D03*
X520700D02*
D03*
D110*
X355201Y212585D02*
D03*
X305199D02*
D03*
D111*
X368000Y163500D02*
D03*
X348500Y164500D02*
D03*
X519500Y140500D02*
D03*
X496000Y171000D02*
D03*
X345000Y166500D02*
D03*
X570500Y195500D02*
D03*
X531500Y162000D02*
D03*
X527500Y150500D02*
D03*
X506250Y72750D02*
D03*
X536500Y80500D02*
D03*
X552000Y96000D02*
D03*
X590500Y121000D02*
D03*
X583750Y172750D02*
D03*
X575750Y182500D02*
D03*
X452000Y234500D02*
D03*
X388500Y210000D02*
D03*
X611000Y173500D02*
D03*
X574000Y176000D02*
D03*
X515500Y181500D02*
D03*
X501500Y202500D02*
D03*
X479000Y199500D02*
D03*
X439500Y198500D02*
D03*
X431000Y190000D02*
D03*
X396500Y119500D02*
D03*
X358000Y81500D02*
D03*
X608000Y182000D02*
D03*
X487500Y24500D02*
D03*
X470000Y26000D02*
D03*
X381500Y13500D02*
D03*
X311500Y16000D02*
D03*
X286500Y32500D02*
D03*
X283500Y43500D02*
D03*
X291500Y48000D02*
D03*
X273000Y82000D02*
D03*
X588000Y159000D02*
D03*
X627500Y127000D02*
D03*
X132500Y194500D02*
D03*
X372000Y165500D02*
D03*
X367500Y183000D02*
D03*
X138500Y163000D02*
D03*
X149500Y208000D02*
D03*
X114500Y191000D02*
D03*
X295000Y187000D02*
D03*
X238500Y184000D02*
D03*
X110500Y160000D02*
D03*
X464000Y65500D02*
D03*
X431500Y61500D02*
D03*
X422500Y66500D02*
D03*
X366500Y39500D02*
D03*
X338000Y12000D02*
D03*
X416000Y118500D02*
D03*
X315000Y130000D02*
D03*
X253000Y123000D02*
D03*
X586500Y52500D02*
D03*
X552000D02*
D03*
X544500Y91500D02*
D03*
X541000Y102000D02*
D03*
X510000Y170000D02*
D03*
X494000Y174500D02*
D03*
X487500D02*
D03*
X439500Y178000D02*
D03*
X329500Y109500D02*
D03*
X635000Y99000D02*
D03*
X604000Y85000D02*
D03*
X596000Y146000D02*
D03*
X410000Y35000D02*
D03*
X467000Y22500D02*
D03*
X453000Y18500D02*
D03*
X326000Y198000D02*
D03*
X288000Y134500D02*
D03*
X353000Y184000D02*
D03*
X267000Y118000D02*
D03*
X318000Y189000D02*
D03*
X292000Y134000D02*
D03*
X259000Y124000D02*
D03*
X341000Y188000D02*
D03*
X318000Y162500D02*
D03*
X308500Y161000D02*
D03*
X293000Y156000D02*
D03*
X325000Y213000D02*
D03*
X212000Y157000D02*
D03*
X205000Y155000D02*
D03*
X220000Y106000D02*
D03*
X550000Y180000D02*
D03*
X523000Y191000D02*
D03*
X325500Y207000D02*
D03*
X543000Y180000D02*
D03*
X507000Y183000D02*
D03*
X364000Y189500D02*
D03*
X165000Y173000D02*
D03*
X174000Y155000D02*
D03*
X189000Y131000D02*
D03*
X208000Y112000D02*
D03*
X552000Y92000D02*
D03*
X596000Y118000D02*
D03*
X587000D02*
D03*
X571000Y115000D02*
D03*
X594000Y107500D02*
D03*
X593000Y70000D02*
D03*
X584000D02*
D03*
X570000Y68000D02*
D03*
X528000Y89000D02*
D03*
X577000Y120000D02*
D03*
X572000Y106000D02*
D03*
X552000Y103000D02*
D03*
X613500Y62000D02*
D03*
X591000Y79000D02*
D03*
X524000Y85500D02*
D03*
X263500Y88500D02*
D03*
X229000Y82000D02*
D03*
X201500Y106000D02*
D03*
X185500Y109500D02*
D03*
X184500Y155000D02*
D03*
X228000D02*
D03*
X189000D02*
D03*
X203000Y53000D02*
D03*
X561500Y106500D02*
D03*
X515000Y98500D02*
D03*
X576000Y72500D02*
D03*
X462000Y54500D02*
D03*
X551500Y62000D02*
D03*
X502500Y24000D02*
D03*
X473500Y39500D02*
D03*
Y49500D02*
D03*
X554000Y201000D02*
D03*
X383000Y244000D02*
D03*
X164000Y161000D02*
D03*
X269000Y112000D02*
D03*
X287000Y114000D02*
D03*
X594500Y183500D02*
D03*
X541000Y60000D02*
D03*
X587500Y148500D02*
D03*
X552000Y114500D02*
D03*
X567500Y216500D02*
D03*
X555000Y224500D02*
D03*
X562500Y187000D02*
D03*
X568000Y173000D02*
D03*
X552000Y129000D02*
D03*
X510500Y105000D02*
D03*
X516000Y122000D02*
D03*
X510500Y135500D02*
D03*
X547500Y150000D02*
D03*
X522500Y175000D02*
D03*
X518000Y231500D02*
D03*
X268000Y192000D02*
D03*
X212000D02*
D03*
X244000Y200000D02*
D03*
X558500Y179000D02*
D03*
X535500Y192000D02*
D03*
X396500Y115500D02*
D03*
X393500Y103500D02*
D03*
X597000Y81000D02*
D03*
X554000Y162000D02*
D03*
X537000Y172000D02*
D03*
X522000Y166000D02*
D03*
X490000Y188000D02*
D03*
X603000Y76000D02*
D03*
X573500Y128500D02*
D03*
X532000Y127000D02*
D03*
X525500Y162000D02*
D03*
X511000Y181500D02*
D03*
X512500Y124500D02*
D03*
X534500Y165500D02*
D03*
X375000Y210000D02*
D03*
X308500Y226000D02*
D03*
X416500Y183500D02*
D03*
X399500Y198000D02*
D03*
X480000Y72500D02*
D03*
X466000Y57000D02*
D03*
X436500Y58500D02*
D03*
X418500Y61000D02*
D03*
X402000Y62500D02*
D03*
X363500Y42500D02*
D03*
X509500Y56500D02*
D03*
X503000Y54750D02*
D03*
X469000Y48250D02*
D03*
X446000Y69750D02*
D03*
X404250Y65750D02*
D03*
X388250Y40750D02*
D03*
X314750Y21000D02*
D03*
X260250Y20500D02*
D03*
X237500Y43500D02*
D03*
X218250Y49250D02*
D03*
X278000Y74500D02*
D03*
X174500Y71000D02*
D03*
X479000Y20000D02*
D03*
X429000Y10000D02*
D03*
X363000Y71000D02*
D03*
X338500Y108000D02*
D03*
X290000Y118500D02*
D03*
X238000Y109000D02*
D03*
X531000Y65000D02*
D03*
X609000Y162000D02*
D03*
X502000Y64000D02*
D03*
X493500Y167500D02*
D03*
X440500Y22200D02*
D03*
X600000Y128000D02*
D03*
X566000Y189000D02*
D03*
X532000Y235000D02*
D03*
X375000Y198000D02*
D03*
X286000Y165000D02*
D03*
X274000Y155000D02*
D03*
X376000Y72000D02*
D03*
X378500Y41000D02*
D03*
X390500Y32000D02*
D03*
X531000Y53000D02*
D03*
X537500Y24500D02*
D03*
X492500Y60000D02*
D03*
X494000Y50000D02*
D03*
X503500Y235000D02*
D03*
X464500Y231500D02*
D03*
X374500Y244000D02*
D03*
X538000Y135500D02*
D03*
X539000Y162000D02*
D03*
X527000Y192000D02*
D03*
X518500Y189500D02*
D03*
X477500Y187000D02*
D03*
X471000Y193500D02*
D03*
X365000Y195000D02*
D03*
X340000Y210000D02*
D03*
X526500Y202000D02*
D03*
X503500Y186000D02*
D03*
X544000Y35000D02*
D03*
X527000Y80000D02*
D03*
X513000Y50000D02*
D03*
X521500Y43500D02*
D03*
X419000Y202500D02*
D03*
X434500Y14500D02*
D03*
X393500Y25000D02*
D03*
X455000Y10000D02*
D03*
D112*
X329000Y163000D02*
D03*
X288500Y89500D02*
D03*
X594000Y175500D02*
D03*
X628500Y153500D02*
D03*
X434000Y10000D02*
D03*
X170500Y167000D02*
D03*
X101000Y205500D02*
D03*
X404500Y146000D02*
D03*
X611000Y187000D02*
D03*
X623000Y110000D02*
D03*
X583000Y105000D02*
D03*
X457000Y16000D02*
D03*
X217500Y129500D02*
D03*
X218000Y125000D02*
D03*
X213000Y134000D02*
D03*
X624500Y91000D02*
D03*
X187000Y121500D02*
D03*
X588500Y125000D02*
D03*
X465500Y61500D02*
D03*
X576500Y153000D02*
D03*
X256000Y194000D02*
D03*
X175000Y183000D02*
D03*
X459000Y191000D02*
D03*
X609000Y62000D02*
D03*
X577000Y64000D02*
D03*
X587000Y215000D02*
D03*
X170000Y182000D02*
D03*
X171000Y162000D02*
D03*
X491500Y194000D02*
D03*
X227000Y16000D02*
D03*
X455900Y34500D02*
D03*
X446900D02*
D03*
X434000Y18900D02*
D03*
X407000Y15500D02*
D03*
X457000Y45000D02*
D03*
X451400Y34500D02*
D03*
X429800Y14500D02*
D03*
X225750Y75000D02*
D03*
X176750Y162000D02*
D03*
X388250Y184250D02*
D03*
X289250Y203750D02*
D03*
X257000Y206750D02*
D03*
X236000Y79500D02*
D03*
X175250Y167250D02*
D03*
X393500Y184250D02*
D03*
X295250Y204000D02*
D03*
X263000Y206750D02*
D03*
X634400Y165800D02*
D03*
Y137400D02*
D03*
X618200Y198400D02*
D03*
Y170000D02*
D03*
X594200Y203400D02*
D03*
X593400Y165800D02*
D03*
X582000Y35000D02*
D03*
X576200Y91400D02*
D03*
X572400Y224800D02*
D03*
X547400Y46200D02*
D03*
X535400Y217400D02*
D03*
X525750Y46250D02*
D03*
X521800Y203200D02*
D03*
X518500Y118500D02*
D03*
X514200Y65400D02*
D03*
X483800Y178400D02*
D03*
X448750Y190500D02*
D03*
X421400Y198800D02*
D03*
X395200Y208400D02*
D03*
X384400Y37800D02*
D03*
X372000Y70400D02*
D03*
X361400Y19800D02*
D03*
X361200Y133000D02*
D03*
X352600Y163800D02*
D03*
X341800Y15400D02*
D03*
X326250Y10000D02*
D03*
X321750Y10250D02*
D03*
X272200Y192200D02*
D03*
X239400Y23200D02*
D03*
X232600Y155000D02*
D03*
X226400Y21200D02*
D03*
X209800Y187400D02*
D03*
X193400Y23200D02*
D03*
X192200Y134400D02*
D03*
X189250Y201000D02*
D03*
X130000Y123750D02*
D03*
X123000Y122750D02*
D03*
X122200Y176600D02*
D03*
X101000Y183800D02*
D03*
X99200Y213800D02*
D03*
X76200D02*
D03*
X26250Y171500D02*
D03*
Y161250D02*
D03*
X28750Y166500D02*
D03*
X69498Y221400D02*
D03*
X46499Y221500D02*
D03*
X17500Y222500D02*
D03*
X153250Y101750D02*
D03*
X129750Y71000D02*
D03*
X64251Y72250D02*
D03*
X61500Y177500D02*
D03*
X140250Y170600D02*
D03*
X383500Y184000D02*
D03*
X377750Y184750D02*
D03*
X323500Y165750D02*
D03*
X281400Y166600D02*
D03*
X185600Y161800D02*
D03*
X272150Y219000D02*
D03*
X543000Y48000D02*
D03*
X601000Y141700D02*
D03*
X554500Y230000D02*
D03*
X575500Y203000D02*
D03*
X544500D02*
D03*
X566000Y184000D02*
D03*
X548000D02*
D03*
X538500D02*
D03*
X584500Y76500D02*
D03*
X576500Y146000D02*
D03*
Y141490D02*
D03*
Y110500D02*
D03*
Y106000D02*
D03*
X508000Y236000D02*
D03*
X482600D02*
D03*
X457200D02*
D03*
X431800D02*
D03*
X513500Y194750D02*
D03*
X482500Y203000D02*
D03*
X451500Y202500D02*
D03*
X415000Y198500D02*
D03*
X465750Y32250D02*
D03*
X502500Y49750D02*
D03*
X498500Y178500D02*
D03*
X472000Y183000D02*
D03*
X449750D02*
D03*
X431750Y181250D02*
D03*
X457500Y64500D02*
D03*
X490500Y66000D02*
D03*
X519000Y81000D02*
D03*
X344750Y90000D02*
D03*
X371500Y40000D02*
D03*
X343000Y20000D02*
D03*
X324000Y15750D02*
D03*
X325500Y22500D02*
D03*
X285200Y24300D02*
D03*
X254000Y12000D02*
D03*
X256000Y18000D02*
D03*
X231000Y22500D02*
D03*
X171000Y39000D02*
D03*
X216000Y23160D02*
D03*
X207000Y38500D02*
D03*
X232500Y105750D02*
D03*
X251000Y208000D02*
D03*
X361000Y87000D02*
D03*
X284000Y90500D02*
D03*
X269750Y90000D02*
D03*
X270250Y121250D02*
D03*
X324750Y90250D02*
D03*
X519500Y124495D02*
D03*
X576750Y157492D02*
D03*
X584500Y225500D02*
D03*
X465900Y194000D02*
D03*
X496500Y203000D02*
D03*
X567000Y211000D02*
D03*
X465500Y202500D02*
D03*
X394000Y217500D02*
D03*
X397500Y64500D02*
D03*
X279300Y48500D02*
D03*
X303000Y164000D02*
D03*
X185000Y105000D02*
D03*
X408500Y156000D02*
D03*
X169500Y60000D02*
D03*
X52330Y204000D02*
D03*
X34330D02*
D03*
X352000Y15750D02*
D03*
X274500Y116250D02*
D03*
X201200Y21000D02*
D03*
X264000Y81000D02*
D03*
X246500Y117000D02*
D03*
X175700Y21000D02*
D03*
X252000D02*
D03*
X325500Y44500D02*
D03*
X303750Y90500D02*
D03*
X478000Y52500D02*
D03*
X533400Y23000D02*
D03*
X508000D02*
D03*
X583000Y100000D02*
D03*
X519500Y157500D02*
D03*
X505000Y194000D02*
D03*
X11000Y93000D02*
D03*
X578000Y124500D02*
D03*
X536000Y48000D02*
D03*
X519000Y94450D02*
D03*
X483500Y50000D02*
D03*
X124400Y110000D02*
D03*
X120000D02*
D03*
X127000Y18600D02*
D03*
Y23000D02*
D03*
X321000Y132000D02*
D03*
Y110000D02*
D03*
X72000Y58000D02*
D03*
X83000Y44000D02*
D03*
Y36000D02*
D03*
X102500Y73500D02*
D03*
X91000Y61000D02*
D03*
X55350Y39000D02*
D03*
X146665Y31470D02*
D03*
X158165Y43485D02*
D03*
Y55500D02*
D03*
X171030Y67515D02*
D03*
X153000Y86000D02*
D03*
X129800D02*
D03*
X89200Y37500D02*
D03*
Y31000D02*
D03*
X98000Y25800D02*
D03*
X101500Y45500D02*
D03*
X98000Y97000D02*
D03*
X95000Y73500D02*
D03*
X110500Y155415D02*
D03*
X126000Y128500D02*
D03*
Y137300D02*
D03*
Y132900D02*
D03*
X39065Y139520D02*
D03*
X68480Y155020D02*
D03*
X59680D02*
D03*
X64080D02*
D03*
X54540Y57785D02*
D03*
X47040Y97500D02*
D03*
Y88700D02*
D03*
Y93100D02*
D03*
X271500Y69750D02*
D03*
X419000Y44000D02*
D03*
X270500Y166500D02*
D03*
X385000Y140500D02*
D03*
X247500Y69750D02*
D03*
X385000Y44000D02*
D03*
X271250Y161000D02*
D03*
X388500Y127000D02*
D03*
X255500Y69750D02*
D03*
X391500Y44000D02*
D03*
X273000Y74000D02*
D03*
X423750Y44000D02*
D03*
X308250Y166500D02*
D03*
X292500D02*
D03*
X385000Y136000D02*
D03*
X293250Y89500D02*
D03*
X309750Y89250D02*
D03*
X428500Y44000D02*
D03*
X315500Y89500D02*
D03*
X433250Y44000D02*
D03*
X333250Y89500D02*
D03*
X339750Y89250D02*
D03*
X438250Y44000D02*
D03*
X356500Y70750D02*
D03*
X447750Y44000D02*
D03*
X383500Y167250D02*
D03*
X489000Y168000D02*
D03*
X361250Y166500D02*
D03*
X479000Y171500D02*
D03*
X356250Y166500D02*
D03*
X406000Y127500D02*
D03*
X340250Y166500D02*
D03*
X332500D02*
D03*
X385000Y149500D02*
D03*
X316500Y166500D02*
D03*
X385000Y145000D02*
D03*
X367500Y70250D02*
D03*
X443000Y44000D02*
D03*
X380250Y70500D02*
D03*
X452500Y44000D02*
D03*
X268500Y156000D02*
D03*
X385000Y131500D02*
D03*
X263500Y69750D02*
D03*
X398000Y44000D02*
D03*
X227500Y70500D02*
D03*
X397500Y82500D02*
D03*
X235500Y70500D02*
D03*
X402000Y75500D02*
D03*
X404500Y134000D02*
D03*
X461500Y33500D02*
D03*
X413000Y126650D02*
D03*
X396500Y38500D02*
D03*
X415000Y46600D02*
D03*
X406000Y140500D02*
D03*
X218250Y162500D02*
D03*
X385000Y119500D02*
D03*
X216250Y166750D02*
D03*
X211000Y166500D02*
D03*
X385000Y110500D02*
D03*
X203500Y166500D02*
D03*
X195500D02*
D03*
X385000Y106000D02*
D03*
X187500Y166500D02*
D03*
Y70500D02*
D03*
X391500Y87000D02*
D03*
X195500Y70500D02*
D03*
X386000Y89500D02*
D03*
X233500Y161750D02*
D03*
Y166500D02*
D03*
X385000Y115000D02*
D03*
X219500Y70500D02*
D03*
X203500D02*
D03*
X211500D02*
D03*
X402500Y81000D02*
D03*
X474001Y148999D02*
D03*
X466501Y69000D02*
D03*
X456501D02*
D03*
X441501D02*
D03*
X409000Y78999D02*
D03*
X404000Y94000D02*
D03*
X409000Y118999D02*
D03*
X514000Y158999D02*
D03*
X484001Y118999D02*
D03*
X454001Y98999D02*
D03*
X449000D02*
D03*
X444001Y118999D02*
D03*
Y124000D02*
D03*
X479000Y138999D02*
D03*
X474001D02*
D03*
X489000Y104000D02*
D03*
X494001Y94000D02*
D03*
Y138999D02*
D03*
X479000Y88999D02*
D03*
X434001Y134000D02*
D03*
X479000Y148999D02*
D03*
X439000Y144000D02*
D03*
X484001Y134000D02*
D03*
X454001Y148999D02*
D03*
X464001Y118999D02*
D03*
X469000Y98999D02*
D03*
X464001D02*
D03*
Y138999D02*
D03*
X484001Y148999D02*
D03*
X449000Y88999D02*
D03*
X454001D02*
D03*
X501501Y167800D02*
D03*
X514000Y81500D02*
D03*
X469000Y148999D02*
D03*
X409000Y101500D02*
D03*
X474001Y62500D02*
D03*
X514000Y114000D02*
D03*
Y138999D02*
D03*
X414000Y69000D02*
D03*
X409000Y134000D02*
D03*
X414000Y144000D02*
D03*
Y154000D02*
D03*
Y158999D02*
D03*
Y164000D02*
D03*
X484001Y114000D02*
D03*
X444001Y104000D02*
D03*
X474001Y98999D02*
D03*
X444001Y128999D02*
D03*
Y134000D02*
D03*
Y138999D02*
D03*
X459000D02*
D03*
X454001D02*
D03*
X449000D02*
D03*
X489000D02*
D03*
X444001Y88999D02*
D03*
X459000Y148999D02*
D03*
X434001Y144000D02*
D03*
X444001Y148999D02*
D03*
X439000D02*
D03*
X434001D02*
D03*
X449000D02*
D03*
X469000Y88999D02*
D03*
X474001D02*
D03*
X464001Y148999D02*
D03*
X434001Y124000D02*
D03*
Y88999D02*
D03*
X439000D02*
D03*
X434001Y128999D02*
D03*
X489000Y118999D02*
D03*
Y148999D02*
D03*
Y88999D02*
D03*
X496501Y70200D02*
D03*
X464001Y88999D02*
D03*
X434001Y138999D02*
D03*
Y108999D02*
D03*
Y104000D02*
D03*
Y98999D02*
D03*
Y114000D02*
D03*
X414000Y86500D02*
D03*
X434001Y94000D02*
D03*
D113*
X651300Y63500D02*
D03*
Y88900D02*
D03*
Y114300D02*
D03*
Y139700D02*
D03*
Y165100D02*
D03*
Y190500D02*
D03*
X676700Y63500D02*
D03*
Y88900D02*
D03*
Y114300D02*
D03*
Y139700D02*
D03*
Y165100D02*
D03*
Y190500D02*
D03*
D114*
X617600Y216800D02*
D03*
Y37200D02*
D03*
X596900Y241300D02*
D03*
D115*
X365201Y239585D02*
D03*
X295199D02*
D03*
D116*
X252000Y21000D02*
Y34500D01*
D117*
X247500Y67250D02*
Y69750D01*
Y67250D02*
X261000Y53750D01*
X385000Y44000D01*
X271250Y161000D02*
X348250Y127000D01*
X388500D01*
X273000Y74000D02*
X290500Y56500D01*
X416250Y50000D01*
X420500Y47500D01*
X423750Y44000D01*
X308250Y166500D02*
X314500Y160250D01*
X318750Y157750D01*
X386000Y153000D01*
X415000Y147500D01*
X416000Y147000D01*
X417500Y145000D01*
Y132750D02*
Y145000D01*
Y132750D02*
X424250Y126000D01*
X434001Y124000D01*
X292500Y166500D02*
X298750Y160250D01*
X385000Y136000D01*
X293250Y89500D02*
Y95000D01*
X298750D01*
X333000Y97500D01*
X359000Y97250D01*
X368250Y89250D01*
X387000Y72000D01*
X404750D01*
X408250Y75500D01*
X410000D01*
X434001Y88999D01*
X315500Y89500D02*
X322500Y64500D01*
X416500Y52500D01*
X430000Y47500D01*
X433250Y44000D01*
X333250Y89500D02*
Y95000D01*
X338750D01*
X358000D01*
X381750Y73750D01*
X386750Y69000D01*
X405750D01*
X409750Y73000D01*
X436750D01*
X437000Y73250D01*
X439000Y88999D01*
X383500Y167250D02*
X489000Y168000D01*
X361250Y166500D02*
X367250Y172500D01*
X380000D01*
X479000Y171500D01*
X340250Y166500D02*
X346500Y160250D01*
X372500D01*
X409000Y151000D01*
X425750Y149500D01*
X426000Y149250D01*
Y136250D02*
Y149250D01*
Y136250D02*
X432250Y130000D01*
X434001Y128999D01*
X367500Y67500D02*
Y70250D01*
Y67500D02*
X374750Y60250D01*
X416750Y55000D01*
X439750Y47500D01*
X443000Y44000D01*
X380250Y70500D02*
X390000Y60750D01*
X417000Y57500D01*
X449250Y47500D01*
X452500Y44000D01*
X263500Y67250D02*
Y69750D01*
Y67250D02*
X275750Y55000D01*
X392500Y47500D01*
X398000Y44000D01*
X227500Y70500D02*
X234500Y84500D01*
X272000Y95000D01*
X311500Y100000D01*
X360000Y99500D01*
X364500Y95750D01*
X382000Y79750D01*
X395250Y79500D01*
X397500Y82500D01*
X215000Y165500D02*
X216250Y166750D01*
X214750Y161500D02*
X215000Y165500D01*
X214750Y161500D02*
X229500Y138750D01*
X304250Y126250D01*
X362750Y113000D01*
X383000Y100750D01*
X410000Y98000D01*
X434001Y108999D01*
X203500Y166500D02*
X210500Y153000D01*
X218750Y139000D01*
X228500Y136500D01*
X361750Y110250D01*
X362750Y109750D01*
X366750Y107500D01*
X380750Y99000D01*
X400250Y92500D01*
X402250Y90500D01*
X405000D01*
X434001Y104000D01*
X187500Y166500D02*
X194250Y153000D01*
X217750Y136750D01*
X223250Y135250D01*
X361750Y107250D01*
X368750Y103250D01*
X376750Y98250D01*
X398750Y88500D01*
X400000Y87750D01*
X406750Y87500D01*
X434001Y98999D01*
X195500Y70500D02*
X202500Y84500D01*
X290500Y105000D01*
X361250Y104250D01*
X386000Y89500D01*
X233500Y166500D02*
X237250Y163000D01*
X242250Y139000D01*
X385000Y115000D01*
X219500Y70500D02*
X226500Y84500D01*
X233500Y86750D01*
X270000Y97000D01*
X309000Y102500D01*
X361000Y101750D01*
X363250Y100000D01*
X380750Y84000D01*
X392500Y83500D01*
X393000Y83750D01*
X395500Y86000D01*
X398500D01*
X400250Y84750D01*
X409250D01*
X414000Y86500D01*
D118*
X494500Y118800D02*
D03*
X426500Y152500D02*
D03*
X396000Y162000D02*
D03*
X352000Y168500D02*
D03*
X519500Y140500D02*
D03*
X435500Y175000D02*
D03*
X423000Y178000D02*
D03*
X328000Y148500D02*
D03*
X355000Y134000D02*
D03*
X570500Y195500D02*
D03*
X559500Y190500D02*
D03*
X527500Y150500D02*
D03*
X503500Y121500D02*
D03*
X456500Y161500D02*
D03*
X445000Y164500D02*
D03*
X435500D02*
D03*
X372000Y182000D02*
D03*
X328500Y168500D02*
D03*
X318000Y151000D02*
D03*
X366500Y132000D02*
D03*
X491500Y112500D02*
D03*
X495250Y89750D02*
D03*
X492500Y83250D02*
D03*
X555000Y220250D02*
D03*
X545250Y231250D02*
D03*
X485750Y244500D02*
D03*
X452000Y234500D02*
D03*
X388500Y210000D02*
D03*
X357000Y188750D02*
D03*
X340750Y181500D02*
D03*
X502500Y172500D02*
D03*
X544500Y198500D02*
D03*
X479000Y199500D02*
D03*
X462500Y199000D02*
D03*
X423500Y190000D02*
D03*
X401000Y143000D02*
D03*
X338500Y81500D02*
D03*
X314500D02*
D03*
X608000Y182000D02*
D03*
X487500Y24500D02*
D03*
X470000Y26000D02*
D03*
X461500D02*
D03*
X454000D02*
D03*
X444000Y28500D02*
D03*
X273000Y82000D02*
D03*
X588000Y159000D02*
D03*
X377000Y14000D02*
D03*
X609000Y193000D02*
D03*
X601000Y94000D02*
D03*
X539000Y41000D02*
D03*
X512000Y35000D02*
D03*
X430000Y33000D02*
D03*
X335000Y27000D02*
D03*
X244000Y25000D02*
D03*
X235000Y38000D02*
D03*
X428000Y196000D02*
D03*
X127000Y144000D02*
D03*
X132500Y194500D02*
D03*
X396000Y133000D02*
D03*
Y142000D02*
D03*
X372000Y165500D02*
D03*
X367500Y183000D02*
D03*
X322500Y195000D02*
D03*
X138500Y163000D02*
D03*
X445500Y196000D02*
D03*
X432500D02*
D03*
X413500Y203000D02*
D03*
X130000Y81500D02*
D03*
X444500Y189000D02*
D03*
X428000Y186500D02*
D03*
X423500Y182000D02*
D03*
X238500Y184000D02*
D03*
X181000Y143000D02*
D03*
X152000Y96000D02*
D03*
X110500Y160000D02*
D03*
X408500Y66000D02*
D03*
X366500Y39500D02*
D03*
X338000Y12000D02*
D03*
X213500Y122000D02*
D03*
X473000Y35000D02*
D03*
X470000Y43000D02*
D03*
X586500Y52500D02*
D03*
X583500Y109500D02*
D03*
Y139500D02*
D03*
X544500Y64500D02*
D03*
Y91500D02*
D03*
X541000Y102000D02*
D03*
Y111500D02*
D03*
X512500Y146000D02*
D03*
X532000Y184000D02*
D03*
X412500Y175500D02*
D03*
X329500Y109500D02*
D03*
X635000Y99000D02*
D03*
X604000Y85000D02*
D03*
X596000Y146000D02*
D03*
X410000Y35000D02*
D03*
X326000Y198000D02*
D03*
X294000Y144500D02*
D03*
X333000Y161000D02*
D03*
X277000Y121000D02*
D03*
X301000Y153000D02*
D03*
Y143000D02*
D03*
X227000Y97000D02*
D03*
X308500Y161000D02*
D03*
X293000Y156000D02*
D03*
X325000Y213000D02*
D03*
X270000Y186000D02*
D03*
X205000Y155000D02*
D03*
X220000Y106000D02*
D03*
X549000Y135000D02*
D03*
X548000Y145500D02*
D03*
X550000Y180000D02*
D03*
X519500Y194500D02*
D03*
X509500Y209500D02*
D03*
X472500D02*
D03*
X457000Y203500D02*
D03*
X381500Y207000D02*
D03*
X331000D02*
D03*
X514000Y107500D02*
D03*
X535000Y138500D02*
D03*
X546000Y177000D02*
D03*
X435500Y186000D02*
D03*
X412500Y185000D02*
D03*
X398500Y186000D02*
D03*
X364000Y189500D02*
D03*
X494000Y99500D02*
D03*
X496000Y75000D02*
D03*
X540000Y37000D02*
D03*
X566000Y199000D02*
D03*
X550000Y216000D02*
D03*
X539000Y214000D02*
D03*
X459000Y228000D02*
D03*
X198000Y182000D02*
D03*
X174000Y155000D02*
D03*
X189000Y131000D02*
D03*
X218000Y101000D02*
D03*
X477000Y93000D02*
D03*
X451500Y82000D02*
D03*
X372500Y76000D02*
D03*
X339500Y77500D02*
D03*
X315500D02*
D03*
X253500Y84500D02*
D03*
X480000Y126000D02*
D03*
X430000Y136500D02*
D03*
X426000Y117000D02*
D03*
X420000Y111000D02*
D03*
X352000Y71000D02*
D03*
X341500Y69500D02*
D03*
X318000D02*
D03*
X292000Y71500D02*
D03*
X268500Y75500D02*
D03*
X234000D02*
D03*
X513000Y77000D02*
D03*
X569000Y111000D02*
D03*
X551000Y87000D02*
D03*
X515000Y71000D02*
D03*
X582500Y92000D02*
D03*
X500500Y137000D02*
D03*
X499500Y147500D02*
D03*
X570000Y68000D02*
D03*
X541000Y55000D02*
D03*
X520000Y57000D02*
D03*
X528000Y89000D02*
D03*
X513000Y92500D02*
D03*
X263500Y88500D02*
D03*
X229000Y82000D02*
D03*
X201500Y106000D02*
D03*
X184500Y155000D02*
D03*
X268000Y147000D02*
D03*
X244000Y148000D02*
D03*
X228000Y155000D02*
D03*
X184000Y100000D02*
D03*
X203000Y53000D02*
D03*
X525000Y102500D02*
D03*
X538000Y131000D02*
D03*
X540000Y205000D02*
D03*
X511500Y223000D02*
D03*
X345000Y207000D02*
D03*
X337000D02*
D03*
X565000Y176500D02*
D03*
X563500Y145000D02*
D03*
X566000Y124500D02*
D03*
X510000Y89500D02*
D03*
X497500Y60500D02*
D03*
X485000Y42500D02*
D03*
X472500Y55500D02*
D03*
X461500Y81500D02*
D03*
X574500Y167000D02*
D03*
X581000Y145500D02*
D03*
X576000Y72500D02*
D03*
X455000Y51500D02*
D03*
X577500Y170000D02*
D03*
X551500Y62000D02*
D03*
X495000Y27000D02*
D03*
X479000D02*
D03*
X184000Y146000D02*
D03*
X262000Y117000D02*
D03*
X287000Y114000D02*
D03*
X390000Y106000D02*
D03*
X421000Y125000D02*
D03*
X594500Y183500D02*
D03*
X495000Y80000D02*
D03*
X479000Y81000D02*
D03*
X587500Y148500D02*
D03*
X515000Y103000D02*
D03*
X527500Y183500D02*
D03*
X508500Y147500D02*
D03*
X567500Y216500D02*
D03*
X555000Y224500D02*
D03*
X552000Y129000D02*
D03*
X509000Y142500D02*
D03*
X509500Y114500D02*
D03*
X529000Y124000D02*
D03*
X551000Y140500D02*
D03*
X522500Y175000D02*
D03*
X509500Y200500D02*
D03*
X485500Y199500D02*
D03*
X518000Y231500D02*
D03*
X290000Y183000D02*
D03*
X212000Y192000D02*
D03*
X244000Y200000D02*
D03*
X558500Y179000D02*
D03*
X500500Y194000D02*
D03*
X449000Y164500D02*
D03*
X432500Y157000D02*
D03*
X414500Y132500D02*
D03*
X393500Y103500D02*
D03*
X365000Y83500D02*
D03*
X337000Y85500D02*
D03*
X313500D02*
D03*
X299500Y89000D02*
D03*
X597000Y81000D02*
D03*
X554000Y162000D02*
D03*
X611000Y130000D02*
D03*
X602000Y182000D02*
D03*
X590000Y187000D02*
D03*
X516000Y211000D02*
D03*
X418000Y225000D02*
D03*
X573500Y128500D02*
D03*
X497000Y111000D02*
D03*
X494000Y124000D02*
D03*
X525500Y162000D02*
D03*
X511000Y181500D02*
D03*
X496500Y190500D02*
D03*
X435500Y209000D02*
D03*
X429000Y212000D02*
D03*
X512500Y124500D02*
D03*
X540000Y209500D02*
D03*
X504000Y221500D02*
D03*
X445500Y225000D02*
D03*
X494000Y134500D02*
D03*
Y143500D02*
D03*
X475500Y156000D02*
D03*
X444500Y180500D02*
D03*
X399500Y190000D02*
D03*
X375000Y210000D02*
D03*
X492000Y162000D02*
D03*
X467500Y183000D02*
D03*
X444500Y211000D02*
D03*
X402500Y226500D02*
D03*
X471500Y155500D02*
D03*
X441000Y156000D02*
D03*
X416500Y183500D02*
D03*
X399500Y198000D02*
D03*
X468000Y84000D02*
D03*
X350000Y37000D02*
D03*
X501500Y86500D02*
D03*
X510250Y68500D02*
D03*
X506750Y61500D02*
D03*
X498000Y48750D02*
D03*
X469000Y48250D02*
D03*
X388250Y40750D02*
D03*
X381000Y33000D02*
D03*
X260250Y20500D02*
D03*
X250500Y16750D02*
D03*
X202500Y38500D02*
D03*
X363500Y75500D02*
D03*
X340500Y73500D02*
D03*
X316500D02*
D03*
X490000Y43000D02*
D03*
X429000Y10000D02*
D03*
X489000Y97500D02*
D03*
X493000Y108500D02*
D03*
X477000Y105500D02*
D03*
X457500Y92000D02*
D03*
X447000Y85000D02*
D03*
X442500Y77500D02*
D03*
X469000Y75500D02*
D03*
X422500Y59000D02*
D03*
X368500Y35000D02*
D03*
X339000Y44000D02*
D03*
X274500Y49000D02*
D03*
X474500Y70000D02*
D03*
X452000Y69000D02*
D03*
X363000Y71000D02*
D03*
X338500Y108000D02*
D03*
X316000Y110500D02*
D03*
X189500Y28000D02*
D03*
X531000Y65000D02*
D03*
X592000Y84000D02*
D03*
X246000Y208000D02*
D03*
X163000Y168000D02*
D03*
X215000Y38000D02*
D03*
X502000Y64000D02*
D03*
X531000Y84000D02*
D03*
X541000Y94000D02*
D03*
X562000Y111000D02*
D03*
X557000Y214000D02*
D03*
X227000Y50000D02*
D03*
X370000Y24750D02*
D03*
X493500Y167500D02*
D03*
X580000Y68000D02*
D03*
X375000Y198000D02*
D03*
X299000Y182000D02*
D03*
X281000Y148000D02*
D03*
X282000Y120000D02*
D03*
X221000Y94000D02*
D03*
X226000Y38000D02*
D03*
X277000Y10000D02*
D03*
X345000Y12000D02*
D03*
X382000Y64500D02*
D03*
X531000Y53000D02*
D03*
X515000Y46000D02*
D03*
X529000Y43000D02*
D03*
X492500Y60000D02*
D03*
X506000Y33000D02*
D03*
X507000Y51000D02*
D03*
X530750Y201500D02*
D03*
X286000Y232250D02*
D03*
X520000Y145000D02*
D03*
X536500Y144000D02*
D03*
X503500Y235000D02*
D03*
X538000Y135500D02*
D03*
X539000Y162000D02*
D03*
X538500Y188500D02*
D03*
X317500Y212500D02*
D03*
X293500Y221000D02*
D03*
X509000Y213500D02*
D03*
X410000Y223000D02*
D03*
X290000Y224000D02*
D03*
X279000Y224500D02*
D03*
X526500Y202000D02*
D03*
X503500Y186000D02*
D03*
X558000Y209000D02*
D03*
X530000Y189000D02*
D03*
X513000Y176000D02*
D03*
X559000Y174500D02*
D03*
X561500Y149500D02*
D03*
X552500Y124500D02*
D03*
X531000Y108500D02*
D03*
Y71000D02*
D03*
X527000Y80000D02*
D03*
X491000Y76000D02*
D03*
X521500Y43500D02*
D03*
X507000Y42500D02*
D03*
X499500Y35500D02*
D03*
X479000D02*
D03*
X474500Y44000D02*
D03*
X546000Y128000D02*
D03*
X532500Y153000D02*
D03*
X516000Y206000D02*
D03*
X472000Y205000D02*
D03*
X419000Y202500D02*
D03*
X434500Y14500D02*
D03*
X471500Y30000D02*
D03*
X460500Y40000D02*
D03*
X393500Y25000D02*
D03*
X455000Y10000D02*
D03*
X349000D02*
D03*
D119*
X175700Y21000D02*
X179000Y34000D01*
M02*
