G04*
G04 #@! TF.GenerationSoftware,Altium Limited,Altium Designer Develop,26.10.1 (6)*
G04*
G04 Layer_Color=128*
G04 Board_Origin=0|0*
%FSLAX44Y44*%
%MOMM*%
G71*
G04*
G04 #@! TF.SameCoordinates,EEE79D95-1273-47A5-AA60-2D221297641E*
G04*
G04*
G04 #@! TF.FilePolarity,Positive*
G04*
G01*
G75*
%ADD12R,0.3000X0.3000*%
%ADD23R,1.5001X1.3000*%
%ADD32R,0.8999X0.8999*%
%ADD120R,2.3000X1.0500*%
%ADD121R,0.4501X1.1999*%
%ADD122R,1.1001X0.6000*%
%ADD123R,0.2400X0.6000*%
%ADD124R,0.6000X0.2400*%
%ADD125R,1.6800X1.6800*%
%ADD126R,2.0701X0.5100*%
%ADD127R,1.0500X2.3000*%
%ADD128R,0.6000X1.1001*%
%ADD129R,0.7000X0.8999*%
%ADD130R,0.8999X0.7000*%
%ADD131R,1.1001X1.0000*%
%ADD132R,1.3000X1.5001*%
%ADD133R,1.0000X1.1001*%
%ADD134R,0.5001X0.8999*%
%ADD135R,0.4501X0.8999*%
D12*
X292500Y200000D02*
D03*
X298499D02*
D03*
X468501Y144500D02*
D03*
X474500D02*
D03*
X613999Y198500D02*
D03*
X608000D02*
D03*
X193498Y193500D02*
D03*
X187499D02*
D03*
X181500D02*
D03*
X175500D02*
D03*
X205497Y187500D02*
D03*
X199498D02*
D03*
X593499Y198500D02*
D03*
X587500D02*
D03*
X634501Y170100D02*
D03*
X628501D02*
D03*
X613999D02*
D03*
X608000D02*
D03*
X593499D02*
D03*
X587500D02*
D03*
X634501Y141700D02*
D03*
X628501D02*
D03*
X584490Y220500D02*
D03*
X578490D02*
D03*
X572491D02*
D03*
X566491D02*
D03*
X613999Y141700D02*
D03*
X608000D02*
D03*
X593499D02*
D03*
X587500D02*
D03*
X634501Y113300D02*
D03*
X628501D02*
D03*
X613999D02*
D03*
X608000D02*
D03*
X593499D02*
D03*
X587500D02*
D03*
X634501Y84900D02*
D03*
X628501D02*
D03*
X613999D02*
D03*
X608000D02*
D03*
X593499D02*
D03*
X587500D02*
D03*
X634501Y56500D02*
D03*
X628501D02*
D03*
X613999D02*
D03*
X608000D02*
D03*
X593499D02*
D03*
X587500D02*
D03*
X553498Y39499D02*
D03*
X547498D02*
D03*
X541498D02*
D03*
X535499D02*
D03*
X529500D02*
D03*
X523500D02*
D03*
X560491Y220500D02*
D03*
X554492D02*
D03*
X193498Y187500D02*
D03*
X187499D02*
D03*
X467495Y39499D02*
D03*
X461496D02*
D03*
X455496D02*
D03*
X449497D02*
D03*
X443498D02*
D03*
X437498D02*
D03*
X431497D02*
D03*
X425498D02*
D03*
X419498D02*
D03*
X413499D02*
D03*
X407500D02*
D03*
X401500D02*
D03*
X465499Y27500D02*
D03*
X459499D02*
D03*
X181500Y187500D02*
D03*
X175500D02*
D03*
X453499Y27500D02*
D03*
X447500D02*
D03*
X449700Y144500D02*
D03*
X443700D02*
D03*
X494100D02*
D03*
X488100D02*
D03*
X456001D02*
D03*
X462000D02*
D03*
X494100Y110500D02*
D03*
X488100D02*
D03*
X449700D02*
D03*
X443700D02*
D03*
X471899D02*
D03*
X465900D02*
D03*
X359491Y39499D02*
D03*
X353491D02*
D03*
X347491D02*
D03*
X341492D02*
D03*
X335493D02*
D03*
X329493D02*
D03*
X323493D02*
D03*
X317494D02*
D03*
X311493D02*
D03*
X305494D02*
D03*
X299494D02*
D03*
X293495D02*
D03*
X287495D02*
D03*
X281496D02*
D03*
X275497D02*
D03*
X269497D02*
D03*
X263496D02*
D03*
X257497D02*
D03*
X251497D02*
D03*
X245498D02*
D03*
X239499D02*
D03*
X233499D02*
D03*
X227500D02*
D03*
X221500D02*
D03*
X538501Y76500D02*
D03*
X532501D02*
D03*
X538501Y144500D02*
D03*
X532501D02*
D03*
X427500Y178500D02*
D03*
X421500D02*
D03*
X538501Y110500D02*
D03*
X532501D02*
D03*
X494100Y178500D02*
D03*
X488100D02*
D03*
X449700D02*
D03*
X443700D02*
D03*
X471899D02*
D03*
X465900D02*
D03*
X516300Y76500D02*
D03*
X510300D02*
D03*
X516300Y144500D02*
D03*
X510300D02*
D03*
X427500Y76500D02*
D03*
X421500D02*
D03*
X427500Y144500D02*
D03*
X421500D02*
D03*
X516300Y110500D02*
D03*
X510300D02*
D03*
X494100Y76500D02*
D03*
X488100D02*
D03*
X449700D02*
D03*
X443700D02*
D03*
X427500Y110500D02*
D03*
X421500D02*
D03*
X471899Y76500D02*
D03*
X465900D02*
D03*
D23*
X39065Y166518D02*
D03*
Y149520D02*
D03*
X97485Y116502D02*
D03*
Y133500D02*
D03*
X75555Y109498D02*
D03*
Y92500D02*
D03*
D32*
X524503Y30500D02*
D03*
X508501D02*
D03*
X496502D02*
D03*
X480500D02*
D03*
X222503D02*
D03*
X206501D02*
D03*
X194502D02*
D03*
X178500D02*
D03*
D120*
X14525Y104850D02*
D03*
Y81350D02*
D03*
X158515Y121150D02*
D03*
Y144650D02*
D03*
D121*
X387500Y61701D02*
D03*
X379499D02*
D03*
X371501D02*
D03*
X363500D02*
D03*
X355501D02*
D03*
X347500D02*
D03*
X339499D02*
D03*
X331501D02*
D03*
X323500D02*
D03*
X315501D02*
D03*
X307500D02*
D03*
X299499D02*
D03*
X291501D02*
D03*
X283500D02*
D03*
X275501D02*
D03*
X267500D02*
D03*
X259499D02*
D03*
X251501D02*
D03*
X243500D02*
D03*
X235499D02*
D03*
X227500D02*
D03*
X219499D02*
D03*
X211501D02*
D03*
X203500D02*
D03*
X195499D02*
D03*
X187500D02*
D03*
X179499D02*
D03*
Y175300D02*
D03*
X187500D02*
D03*
X195499D02*
D03*
X203500D02*
D03*
X211501D02*
D03*
X219499D02*
D03*
X227500D02*
D03*
X235499D02*
D03*
X243500D02*
D03*
X251501D02*
D03*
X259499D02*
D03*
X267500D02*
D03*
X275501D02*
D03*
X283500D02*
D03*
X291501D02*
D03*
X299499D02*
D03*
X307500D02*
D03*
X315501D02*
D03*
X323500D02*
D03*
X331501D02*
D03*
X339499D02*
D03*
X347500D02*
D03*
X355501D02*
D03*
X363500D02*
D03*
X371501D02*
D03*
X379499D02*
D03*
X387500D02*
D03*
D122*
X59540Y102600D02*
D03*
Y93100D02*
D03*
Y83600D02*
D03*
X34541D02*
D03*
Y102600D02*
D03*
X113500Y123400D02*
D03*
Y132900D02*
D03*
Y142400D02*
D03*
X138499D02*
D03*
Y123400D02*
D03*
D123*
X122501Y44999D02*
D03*
X117499D02*
D03*
X112501D02*
D03*
X107499D02*
D03*
Y73000D02*
D03*
X112501D02*
D03*
X117499D02*
D03*
X122501D02*
D03*
D124*
X100999Y51499D02*
D03*
Y56501D02*
D03*
Y61499D02*
D03*
Y66501D02*
D03*
X129001D02*
D03*
Y61499D02*
D03*
Y56501D02*
D03*
Y51499D02*
D03*
D125*
X115000Y59000D02*
D03*
D126*
X222851Y186950D02*
D03*
Y199650D02*
D03*
Y212350D02*
D03*
Y225050D02*
D03*
X272150D02*
D03*
Y212350D02*
D03*
Y199650D02*
D03*
Y186950D02*
D03*
D127*
X75830Y187535D02*
D03*
X52330D02*
D03*
D128*
X73580Y167519D02*
D03*
X54580D02*
D03*
Y142520D02*
D03*
X64080D02*
D03*
X73580D02*
D03*
D129*
X332000Y214498D02*
D03*
X319000D02*
D03*
X382000Y202499D02*
D03*
X369000D02*
D03*
X332000D02*
D03*
X319000D02*
D03*
X371000Y190500D02*
D03*
X358000D02*
D03*
X348000D02*
D03*
X335000D02*
D03*
X325000D02*
D03*
X312000D02*
D03*
X302000D02*
D03*
X289000D02*
D03*
X75000Y39000D02*
D03*
X62000D02*
D03*
X105498Y213900D02*
D03*
X92498D02*
D03*
X515500Y42499D02*
D03*
X502500D02*
D03*
X213500D02*
D03*
X200500D02*
D03*
X127015Y31470D02*
D03*
X140015D02*
D03*
X138515Y55500D02*
D03*
X151515D02*
D03*
X151530Y67515D02*
D03*
X164530D02*
D03*
X128000Y101000D02*
D03*
X141000D02*
D03*
X138515Y43485D02*
D03*
X151515D02*
D03*
X190500Y42499D02*
D03*
X177500D02*
D03*
X384502Y30500D02*
D03*
X371502D02*
D03*
X361502D02*
D03*
X348502D02*
D03*
X338502D02*
D03*
X325502D02*
D03*
X315502D02*
D03*
X302502D02*
D03*
X292502D02*
D03*
X279502D02*
D03*
X439500D02*
D03*
X426500D02*
D03*
X416500D02*
D03*
X403500D02*
D03*
X269503D02*
D03*
X256503D02*
D03*
X246503D02*
D03*
X233503D02*
D03*
X492500Y42499D02*
D03*
X479500D02*
D03*
X82498Y213900D02*
D03*
X69498D02*
D03*
X59499D02*
D03*
X46499D02*
D03*
D130*
X65000Y64500D02*
D03*
Y51500D02*
D03*
X78500Y64500D02*
D03*
Y51500D02*
D03*
D131*
X544492Y224000D02*
D03*
X527494D02*
D03*
X513494D02*
D03*
X496496D02*
D03*
X482495D02*
D03*
X465497D02*
D03*
X451497D02*
D03*
X434499D02*
D03*
X138498Y155415D02*
D03*
X121500D02*
D03*
X34542Y70585D02*
D03*
X51540D02*
D03*
X114998Y33985D02*
D03*
X98000D02*
D03*
X34498Y214400D02*
D03*
X17500D02*
D03*
X420498Y224000D02*
D03*
X403500D02*
D03*
X575490Y211000D02*
D03*
X558492D02*
D03*
X544492D02*
D03*
X527494D02*
D03*
X513494D02*
D03*
X496496D02*
D03*
X482495D02*
D03*
X465497D02*
D03*
X451497D02*
D03*
X434499D02*
D03*
X420498D02*
D03*
X403500D02*
D03*
D132*
X114998Y86515D02*
D03*
X98000D02*
D03*
X80478Y126505D02*
D03*
X63480D02*
D03*
D133*
X140015Y70002D02*
D03*
Y87000D02*
D03*
D134*
X106200Y183901D02*
D03*
X114201D02*
D03*
X122199D02*
D03*
X130201D02*
D03*
Y201899D02*
D03*
X122199D02*
D03*
X114201D02*
D03*
X106200D02*
D03*
D135*
X578000Y28501D02*
D03*
X586001D02*
D03*
Y45499D02*
D03*
X578000D02*
D03*
M02*
