M48
;Layer_Color=9474304
;FILE_FORMAT=4:4
METRIC,LZ
;TYPE=PLATED
T02F00S00C0.2000
T04F00S00C0.8499
T05F00S00C1.0160
%
T02
X0005535Y00039
X0005454Y00057785
X00072Y00058
X00064251Y0007225
X00095Y000735
X001025
X00091Y00061
X00083Y00044
Y00036
X000892Y000375
Y00031
X00098Y000258
X001015Y000455
X00127Y00023
Y000186
X00146665Y0003147
X00158165Y00043485
Y000555
X001695Y0006
X0017103Y00067515
X001875Y000705
X001955
X002035
X002115
X002195
X002275
X0022575Y00075
X002355Y000705
X00236Y000795
X002475Y0006975
X002555
X002635
X002715
X00273Y00074
X00264Y00081
X0026975Y0009
X00284Y000905
X002885Y000895
X0029325
X0030375Y000905
X0030975Y0008925
X003155Y000895
X0032475Y0009025
X0033325Y000895
X0033975Y0008925
X0034475Y0009
X00361Y00087
X003565Y0007075
X003675Y0007025
X00372Y000704
X0038025Y000705
X00386Y000895
X003915Y00087
X00385Y00106
Y001105
Y00115
Y001195
X003885Y00127
X00385Y001315
Y00136
Y001405
Y00145
Y001495
X003835Y0016725
Y00184
X0038825Y0018425
X003935
X0037775Y0018475
X0036125Y001665
X0035625
X003526Y001638
X0034025Y001665
X003325
X00329Y00163
X003235Y0016575
X003165Y001665
X0030825
X00303Y00164
X002925Y001665
X002814Y001666
X002705Y001665
X0027125Y00161
X002685Y00156
X0027025Y0012125
X002745Y0011625
X002465Y00117
X002325Y0010575
X00218Y00125
X002175Y001295
X00213Y00134
X001922Y001344
X00187Y001215
X001856Y001618
X001875Y001665
X001955
X002035
X00211
X0021625Y0016675
X0021825Y001625
X002335Y0016175
Y001665
X002326Y00155
X002098Y001874
X0018925Y00201
X00175Y00183
X0017Y00182
X001705Y00167
X0017525Y0016725
X0017675Y00162
X00171
X0014025Y001706
X001222Y001766
X00101Y001838
Y002055
X000992Y002138
X000762
X00069498Y002214
X00046499Y002215
X0005233Y00204
X0003433
X000175Y002225
X0002625Y001715
X0002875Y001665
X0002625Y0016125
X00039065Y0013952
X0005968Y0015502
X0006408
X0006848
X000615Y001775
X001105Y00155415
X00126Y001373
Y001329
Y001285
X0013Y0012375
X00123Y0012275
X001244Y0011
X0012
X001298Y00086
X0012975Y00071
X00153Y00086
X0015325Y0010175
X00098Y00097
X0004704Y000975
Y000931
Y000887
X00011Y00093
X00171Y00039
X001757Y00021
X001934Y000232
X002012Y00021
X00216Y0002316
X002264Y000212
X00227Y00016
X00231Y000225
X002394Y000232
X00252Y00021
X00256Y00018
X00254Y00012
X002852Y000243
X002793Y000485
X003255Y000445
Y000225
X00324Y0001575
X0032175Y0001025
X0032625Y0001
X003418Y000154
X00343Y0002
X00352Y0001575
X003614Y000198
X003715Y0004
X003844Y000378
X00385Y00044
X003915
X003965Y000385
X003612Y00133
X00321Y00132
Y0011
X0029525Y00204
X0028925Y0020375
X002722Y001922
X00256Y00194
X00257Y0020675
X00263
X00251Y00208
X0027215Y00219
X00394Y002175
X003952Y002084
X00207Y000385
X00398Y00044
X00415Y000466
X00419Y00044
X0042375
X004285
X0043325
X0043825
X00443
X0044775
X004525
X00457Y00045
X004559Y000345
X004514
X004469
X004615Y000335
X0046575Y0003225
X00457Y00016
X00434Y000189
X004298Y000145
X00434Y0001
X00407Y000155
X003975Y000645
X00402Y000755
X004025Y00081
X003975Y000825
X00409Y00078999
X00414Y000865
X00404Y00094
X00409Y001015
Y00118999
X00406Y001275
X00413Y0012665
X00409Y00134
X004045
X00406Y001405
X004045Y00146
X00414Y00144
Y00154
Y00158999
Y00164
X004085Y00156
X00434001Y00148999
Y00144
X00439
Y00148999
X00444001
X00449
X00454001
X00459
X00464001
X00469
X00474001
X00479
X00484001
X00489
Y00138999
X00494001
X00484001Y00134
X00479Y00138999
X00474001
X00464001
X00459
X00454001
X00449
X00444001
Y00134
Y00128999
Y00124
Y00118999
X00434001Y00114
Y00108999
Y00104
Y00098999
Y00094
Y00088999
X00439
X00444001
X00449
X00454001
Y00098999
X00449
X00444001Y00104
X00464001Y00098999
X00469
X00474001
Y00088999
X00479
X00469
X00464001
X00466501Y00069
X004655Y000615
X00474001Y000625
X00478Y000525
X004835Y0005
X005025Y0004975
X00496501Y000702
X004905Y00066
X005142Y000654
X00514Y000815
X00519Y00081
Y0009445
X005185Y001185
X005195Y00124495
X00514Y00114
Y00138999
Y00158999
X005195Y001575
X00501501Y001678
X00489Y00168
X00479Y001715
X004838Y001784
X004985Y001785
X00505Y00194
X005135Y0019475
X005218Y002032
X005445Y00203
X00548Y00184
X005385
X00566
X00567Y00211
X005755Y00203
X005942Y002034
X00587Y00215
X005845Y002255
X005724Y002248
X005545Y0023
X005354Y002174
X00508Y00236
X004826
X004572
X004318
X004214Y001988
X00415Y001985
X0043175Y0018125
X0044975Y00183
X0044875Y001905
X00459Y00191
X004659Y00194
X004655Y002025
X004515
X004825Y00203
X004965
X004915Y00194
X00472Y00183
X00464001Y00118999
X00484001
Y00114
X00489Y00118999
Y00104
X00494001Y00094
X00489Y00088999
X00456501Y00069
X004575Y000645
X00441501Y00069
X00414
X00434001Y00124
Y00128999
Y00134
Y00138999
X005765Y0014149
Y00146
Y00153
X0057675Y00157492
X005934Y001658
X00594Y001755
X00611Y00187
X006182Y001984
Y0017
X006344Y001658
X006285Y001535
X006344Y001374
X00601Y001417
X005885Y00125
X00578Y001245
X005765Y001105
Y00106
X00583Y00105
Y001
X005762Y000914
X005845Y000765
X00577Y00064
X00609Y00062
X006245Y00091
X00623Y0011
X00582Y00035
X005474Y000462
X00543Y00048
X00536
X0052575Y0004625
X005334Y00023
X00508
T04
X00305199Y00212585
X00355201
T05
X000127Y000127
X000381
X000635
X000889
X001143
X001397
X001651
X001905
X002159
X002413
X002667
X003937
Y002413
X002667
X002413
X002159
X001905
X001651
X001397
X001143
X000889
X000635
X000381
X000127
X004191
X004445
X004699
X004953
X005207
X005461
X005715
X005969
X006176Y002168
X00643
X006684
X006767Y001905
X006513
Y001651
Y001397
Y001143
Y000889
Y000635
X006767
Y000889
Y001143
Y001397
Y001651
X006684Y000372
X00643
X006176
X005969Y000127
X005715
X005461
X005207
X004953
X004699
X004445
X004191
M30
