G04*
G04 #@! TF.GenerationSoftware,Altium Limited,Altium Designer Develop,26.10.1 (6)*
G04*
G04 Layer_Color=65535*
G04 Board_Origin=0|0*
%FSLAX44Y44*%
%MOMM*%
G71*
G04*
G04 #@! TF.SameCoordinates,263090AC-449C-43EE-9214-04A335A6000A*
G04*
G04*
G04 #@! TF.FilePolarity,Positive*
G04*
G01*
G75*
%ADD10C,0.1524*%
D10*
X33832Y208503D02*
X39165Y200504D01*
Y208503D02*
X33832Y200504D01*
X41831Y207170D02*
X43164Y208503D01*
X45830D01*
X47163Y207170D01*
Y205837D01*
X45830Y204504D01*
X44497D01*
X45830D01*
X47163Y203171D01*
Y201838D01*
X45830Y200504D01*
X43164D01*
X41831Y201838D01*
X7808Y273999D02*
X13141Y266000D01*
Y273999D02*
X7808Y266000D01*
X21139D02*
X15807D01*
X21139Y271333D01*
Y272666D01*
X19806Y273999D01*
X17140D01*
X15807Y272666D01*
X374420Y230498D02*
X379752Y222500D01*
Y230498D02*
X374420Y222500D01*
X382418D02*
X385084D01*
X383751D01*
Y230498D01*
X382418Y229165D01*
X253090Y220388D02*
Y213723D01*
X254423Y212390D01*
X257089D01*
X258422Y213723D01*
Y220388D01*
X266420Y212390D02*
X261088D01*
X266420Y217722D01*
Y219055D01*
X265087Y220388D01*
X262421D01*
X261088Y219055D01*
X458724Y189100D02*
Y182435D01*
X460057Y181102D01*
X462723D01*
X464056Y182435D01*
Y189100D01*
X466722Y181102D02*
X469389D01*
X468055D01*
Y189100D01*
X466722Y187767D01*
X586232Y220980D02*
Y228978D01*
X590231D01*
X591564Y227645D01*
Y224979D01*
X590231Y223646D01*
X586232D01*
X588898D02*
X591564Y220980D01*
X598230D02*
Y228978D01*
X594230Y224979D01*
X599563D01*
X622421Y69137D02*
X619755D01*
X621088D01*
Y62471D01*
X619755Y61138D01*
X618422D01*
X617089Y62471D01*
X625087Y61138D02*
Y69137D01*
X629086D01*
X630420Y67804D01*
Y65138D01*
X629086Y63804D01*
X625087D01*
X637085Y61138D02*
Y69137D01*
X633086Y65138D01*
X638418D01*
X622421Y248737D02*
X619755D01*
X621088D01*
Y242071D01*
X619755Y240738D01*
X618422D01*
X617089Y242071D01*
X625087Y240738D02*
Y248737D01*
X629086D01*
X630420Y247404D01*
Y244737D01*
X629086Y243405D01*
X625087D01*
X633086Y247404D02*
X634419Y248737D01*
X637085D01*
X638418Y247404D01*
Y246071D01*
X637085Y244737D01*
X635752D01*
X637085D01*
X638418Y243405D01*
Y242071D01*
X637085Y240738D01*
X634419D01*
X633086Y242071D01*
X192278Y170304D02*
Y162306D01*
X196277D01*
X197610Y163639D01*
Y164972D01*
X196277Y166305D01*
X192278D01*
X196277D01*
X197610Y167638D01*
Y168971D01*
X196277Y170304D01*
X192278D01*
X200276D02*
X205609D01*
X202943D01*
Y162306D01*
X208275D02*
Y170304D01*
X213607Y162306D01*
Y170304D01*
M02*
