M48
;Layer_Color=9474304
;FILE_FORMAT=4:4
METRIC,LZ
;TYPE=PLATED
T01F00S00C0.1500
%
T01
X001745Y00071
X001847Y001045
X001855Y001095
X002015Y00106
X0020875Y001047
X00208Y00112
X00238Y00109
X00253Y00123
X00259Y00124
X00267Y00118
X00269Y00112
X00287Y00114
X0029Y001185
X00292Y00134
X00288Y001345
X00293Y00156
X00286Y00165
X00274Y00155
X003085Y00161
X00318Y001625
Y00189
X00326Y00198
X003255Y00207
X00325Y00213
X0034Y0021
X00341Y00188
X00353Y00184
X003675Y00183
X00364Y001895
X00365Y00195
X00375Y00198
Y0021
X003885
X00383Y00244
X003745
X00372Y001655
X00368Y001635
X003485Y001645
X00345Y001665
X003385Y00108
X003295Y001095
X00315Y0013
X00295Y00187
X00268Y00192
X00244Y002
X002385Y00184
X00212Y00192
Y00157
X00205Y00155
X00189
X001815
X00174
X00164Y00161
X00165Y00173
X001385Y00163
X001105Y0016
X001145Y00191
X001325Y001945
X001495Y00208
X00189Y00131
X00228Y00155
X00229Y00082
X002635Y000885
X00273Y00082
X00278Y000745
X002835Y000435
X002915Y00048
X002865Y000325
X0026025Y000205
X002375Y000435
X0021825Y0004925
X00203Y00053
X0031475Y00021
X003115Y00016
X00338Y00012
X003815Y000135
X003935Y00025
X003905Y00032
X0038825Y0004075
X003785Y00041
X003665Y000395
X003635Y000425
X00363Y00071
X00376Y00072
X00358Y000815
X003935Y001035
X003965Y001155
Y001195
X003085Y00226
X003995Y00198
X00419Y002025
X004165Y001835
X00431Y0019
X004395Y001985
Y00178
X00471Y001935
X004775Y00187
X0049Y00188
X005035Y00186
X00507Y00183
X00511Y001815
X005155
X005185Y001895
X00523Y00191
X00527Y00192
X005355
X005265Y00202
X005015Y002025
X00479Y001995
X004875Y001745
X00494
X00496Y00171
X004935Y001675
X0051Y0017
X00522Y00166
X005255Y00162
X005315
X005345Y001655
X00539Y00162
X00537Y00172
X00543Y0018
X0055
X005585Y00179
X005625Y00187
X00566Y00189
X005705Y001955
X0057575Y001825
X00574Y00176
X00568Y00173
X0058375Y0017275
X00588Y00159
X005875Y001485
X00596Y00146
X006Y00128
X00596Y00118
X005905Y00121
X00587Y00118
X00577Y0012
X00571Y00115
X00572Y00106
X005615Y001065
X00552Y00103
Y00096
Y00092
X005445Y000915
X00541Y00102
X00552Y001145
Y00129
X00538Y001355
X00532Y00127
X00516Y00122
X005125Y001245
X005105Y001355
X005195Y001405
X005275Y001505
X005475Y0015
X00554Y00162
Y00201
X00555Y002245
X005675Y002165
X00532Y00235
X00518Y002315
X005035Y00235
X004645Y002315
X00452Y002345
X005225Y00175
X005945Y001835
X00608Y00182
X00611Y001735
X00609Y00162
X006275Y00127
X00635Y00099
X00604Y00085
X00603Y00076
X00597Y00081
X00591Y00079
X00593Y0007
X00584
X00576Y000725
X0057Y00068
X005515Y00062
X00552Y000525
X00541Y0006
X00531Y00065
Y00053
X005215Y000435
X00513Y0005
X005095Y000565
X00503Y0005475
X00502Y00064
X0050625Y0007275
X0048Y000725
X00464Y000655
X00466Y00057
X00462Y000545
X00469Y0004825
X004735Y000495
Y000395
X0047Y00026
X00467Y000225
X00479Y0002
X004875Y000245
X005025Y00024
X00494Y0005
X004925Y0006
X00527Y0008
X00524Y000855
X00528Y00089
X005365Y000805
X00515Y000985
X005105Y00105
X00594Y001075
X005735Y001285
X005865Y000525
X006135Y00062
X00544Y00035
X005375Y000245
X00453Y000185
X00455Y0001
X004345Y000145
X00429Y0001
X004405Y000222
X004365Y000585
X004315Y000615
X004185Y00061
X004225Y000665
X0040425Y0006575
X00402Y000625
X0041Y00035
X00446Y0006975
X00416Y001185
M30
