G04*
G04 #@! TF.GenerationSoftware,Altium Limited,Altium Designer Develop,26.10.1 (6)*
G04*
G04 Layer_Color=8388736*
G04 Board_Origin=0|0*
%FSLAX44Y44*%
%MOMM*%
G71*
G04*
G04 #@! TF.SameCoordinates,988E4D19-E214-46DD-8F95-D3B9B5A7BAC0*
G04*
G04*
G04 #@! TF.FilePolarity,Negative*
G04*
G01*
G75*
G04:AMPARAMS|DCode=18|XSize=0.225mm|YSize=0.225mm|CornerRadius=0.1125mm|HoleSize=0mm|Usage=FLASHONLY|Rotation=0.000|XOffset=0mm|YOffset=0mm|HoleType=Round|Shape=RoundedRectangle|*
%AMROUNDEDRECTD18*
21,1,0.2250,0.0000,0,0,0.0*
21,1,0.0000,0.2250,0,0,0.0*
1,1,0.2250,0.0000,0.0000*
1,1,0.2250,0.0000,0.0000*
1,1,0.2250,0.0000,0.0000*
1,1,0.2250,0.0000,0.0000*
%
%ADD18ROUNDEDRECTD18*%
%ADD35R,0.4000X0.4000*%
%ADD36R,0.4000X0.4000*%
%ADD37R,0.7500X1.1500*%
%ADD38R,0.6499X0.5001*%
%ADD39R,0.8000X0.6001*%
%ADD40R,1.2999X1.5001*%
%ADD41R,0.9999X0.5501*%
%ADD42R,1.6100X0.6601*%
%ADD43R,1.1000X5.6001*%
%ADD44R,1.7000X3.1000*%
%ADD45R,1.6001X1.4000*%
%ADD46R,0.3799X1.6499*%
%ADD47R,1.6499X0.3799*%
%ADD48R,1.5801X1.5801*%
%ADD49R,1.4801X0.8801*%
%ADD50R,1.5801X0.8801*%
%ADD51R,1.5801X1.3800*%
%ADD52R,1.0800X1.5301*%
%ADD53R,1.6299X1.0800*%
%ADD54R,1.8301X0.7800*%
%ADD55R,0.9999X0.9999*%
G04:AMPARAMS|DCode=56|XSize=1.9001mm|YSize=1.9999mm|CornerRadius=0.554mm|HoleSize=0mm|Usage=FLASHONLY|Rotation=0.000|XOffset=0mm|YOffset=0mm|HoleType=Round|Shape=RoundedRectangle|*
%AMROUNDEDRECTD56*
21,1,1.9001,0.8919,0,0,0.0*
21,1,0.7920,1.9999,0,0,0.0*
1,1,1.1081,0.3960,-0.4459*
1,1,1.1081,-0.3960,-0.4459*
1,1,1.1081,-0.3960,0.4459*
1,1,1.1081,0.3960,0.4459*
%
%ADD56ROUNDEDRECTD56*%
%ADD57R,1.6001X1.9999*%
%ADD58R,0.5001X1.4500*%
%ADD59R,1.9796X1.9796*%
G04:AMPARAMS|DCode=60|XSize=1.9796mm|YSize=1.9796mm|CornerRadius=0mm|HoleSize=0mm|Usage=FLASHONLY|Rotation=90.000|XOffset=0mm|YOffset=0mm|HoleType=Round|Shape=Octagon|*
%AMOCTAGOND60*
4,1,8,0.4949,0.9898,-0.4949,0.9898,-0.9898,0.4949,-0.9898,-0.4949,-0.4949,-0.9898,0.4949,-0.9898,0.9898,-0.4949,0.9898,0.4949,0.4949,0.9898,0.0*
%
%ADD60OCTAGOND60*%

%ADD61R,1.6240X1.6240*%
%ADD62C,1.6240*%
%ADD63R,1.6240X1.6240*%
%ADD64C,0.9999*%
%ADD65C,1.5501*%
D18*
X419000Y164000D02*
D03*
X484001D02*
D03*
X489000D02*
D03*
X494001D02*
D03*
X499000D02*
D03*
X504001D02*
D03*
X424001D02*
D03*
X429000D02*
D03*
X434001D02*
D03*
X439000D02*
D03*
X444001D02*
D03*
X419000Y158999D02*
D03*
X489000D02*
D03*
X494001D02*
D03*
X499000D02*
D03*
X504001D02*
D03*
X424001D02*
D03*
X429000D02*
D03*
X434001D02*
D03*
X439000D02*
D03*
X444001D02*
D03*
X419000Y154000D02*
D03*
X489000D02*
D03*
X494001D02*
D03*
X499000D02*
D03*
X424001D02*
D03*
X429000D02*
D03*
X434001D02*
D03*
X439000D02*
D03*
X444001D02*
D03*
X419000Y148999D02*
D03*
X499000D02*
D03*
X504001D02*
D03*
X509000D02*
D03*
X424001D02*
D03*
X429000D02*
D03*
X419000Y144000D02*
D03*
X424001D02*
D03*
X429000D02*
D03*
X419000Y138999D02*
D03*
X504001D02*
D03*
X424001D02*
D03*
X429000D02*
D03*
X419000Y134000D02*
D03*
X499000D02*
D03*
X504001D02*
D03*
X509000D02*
D03*
X424001D02*
D03*
X429000D02*
D03*
X419000Y128999D02*
D03*
X499000D02*
D03*
X509000D02*
D03*
X424001D02*
D03*
X429000D02*
D03*
X419000Y124000D02*
D03*
X499000D02*
D03*
X504001D02*
D03*
X509000D02*
D03*
X424001D02*
D03*
X429000D02*
D03*
X419000Y118999D02*
D03*
X499000D02*
D03*
X504001D02*
D03*
X509000D02*
D03*
X424001D02*
D03*
X429000D02*
D03*
X419000Y114000D02*
D03*
X499000D02*
D03*
X504001D02*
D03*
X424001D02*
D03*
X429000D02*
D03*
X419000Y108999D02*
D03*
X504001D02*
D03*
X509000D02*
D03*
X424001D02*
D03*
X429000D02*
D03*
X419000Y104000D02*
D03*
X499000D02*
D03*
X504001D02*
D03*
X424001D02*
D03*
X429000D02*
D03*
X419000Y98999D02*
D03*
X499000D02*
D03*
X504001D02*
D03*
X424001D02*
D03*
X429000D02*
D03*
X419000Y94000D02*
D03*
X504001D02*
D03*
X424001D02*
D03*
X429000D02*
D03*
X419000Y88999D02*
D03*
X424001D02*
D03*
X429000D02*
D03*
X419000Y84000D02*
D03*
X509000D02*
D03*
X424001D02*
D03*
X429000D02*
D03*
X434001D02*
D03*
X439000D02*
D03*
X449000D02*
D03*
X454001D02*
D03*
X419000Y78999D02*
D03*
X509000D02*
D03*
X424001D02*
D03*
X429000D02*
D03*
X434001D02*
D03*
X439000D02*
D03*
X454001D02*
D03*
X419000Y74000D02*
D03*
X509000D02*
D03*
X424001D02*
D03*
X429000D02*
D03*
X434001D02*
D03*
X439000D02*
D03*
X444001D02*
D03*
X449000D02*
D03*
X504001D02*
D03*
X499000Y88999D02*
D03*
X509000Y164000D02*
D03*
X449000D02*
D03*
X459000D02*
D03*
X484001Y158999D02*
D03*
X509000D02*
D03*
X449000D02*
D03*
X459000D02*
D03*
X464001Y154000D02*
D03*
X469000D02*
D03*
X484001D02*
D03*
X504001D02*
D03*
X509000D02*
D03*
X454001D02*
D03*
X499000Y144000D02*
D03*
Y138999D02*
D03*
X509000D02*
D03*
X464001Y134000D02*
D03*
X469000D02*
D03*
X474001D02*
D03*
X479000D02*
D03*
X454001D02*
D03*
X464001Y128999D02*
D03*
X469000D02*
D03*
X474001D02*
D03*
X479000D02*
D03*
X504001D02*
D03*
X449000D02*
D03*
X454001D02*
D03*
X464001Y124000D02*
D03*
X469000D02*
D03*
X474001D02*
D03*
X479000D02*
D03*
X449000D02*
D03*
X454001D02*
D03*
X459000D02*
D03*
X474001Y118999D02*
D03*
X479000D02*
D03*
X449000D02*
D03*
X454001D02*
D03*
X464001Y114000D02*
D03*
X469000D02*
D03*
X474001D02*
D03*
X479000D02*
D03*
X509000D02*
D03*
X449000D02*
D03*
X454001D02*
D03*
X459000D02*
D03*
X464001Y108999D02*
D03*
X469000D02*
D03*
X449000Y134000D02*
D03*
Y154000D02*
D03*
X474001D02*
D03*
X479000D02*
D03*
X454001Y164000D02*
D03*
X464001D02*
D03*
X469000D02*
D03*
X474001D02*
D03*
X479000D02*
D03*
X454001Y158999D02*
D03*
X464001D02*
D03*
X469000D02*
D03*
X474001D02*
D03*
X479000D02*
D03*
X459000Y154000D02*
D03*
X504001Y144000D02*
D03*
X509000D02*
D03*
Y104000D02*
D03*
Y98999D02*
D03*
Y94000D02*
D03*
X504001Y88999D02*
D03*
X484001Y84000D02*
D03*
X489000D02*
D03*
X494001D02*
D03*
X499000D02*
D03*
X504001D02*
D03*
X449000Y78999D02*
D03*
X479000D02*
D03*
X484001D02*
D03*
X489000D02*
D03*
X494001D02*
D03*
X499000D02*
D03*
X479000Y74000D02*
D03*
X484001D02*
D03*
X489000D02*
D03*
X494001D02*
D03*
X499000D02*
D03*
X459000Y134000D02*
D03*
Y128999D02*
D03*
X474001Y108999D02*
D03*
X479000D02*
D03*
X499000D02*
D03*
X449000D02*
D03*
X454001D02*
D03*
X459000D02*
D03*
X464001Y104000D02*
D03*
X469000D02*
D03*
X474001D02*
D03*
X479000D02*
D03*
X449000D02*
D03*
X454001D02*
D03*
X459000D02*
D03*
X499000Y94000D02*
D03*
X509000Y88999D02*
D03*
X464001Y84000D02*
D03*
X469000D02*
D03*
X474001D02*
D03*
X479000D02*
D03*
X444001D02*
D03*
X459000D02*
D03*
X464001Y78999D02*
D03*
X469000D02*
D03*
X474001D02*
D03*
X504001D02*
D03*
X444001D02*
D03*
X459000D02*
D03*
X464001Y74000D02*
D03*
X469000D02*
D03*
X474001D02*
D03*
X454001D02*
D03*
X459000D02*
D03*
D35*
X230000Y75000D02*
D03*
X235999D02*
D03*
X387500Y180000D02*
D03*
X393499D02*
D03*
X256999Y202500D02*
D03*
X262999D02*
D03*
D36*
X181000Y163500D02*
D03*
Y169499D02*
D03*
D37*
X192251Y108451D02*
D03*
Y149950D02*
D03*
X213750Y108451D02*
D03*
Y149950D02*
D03*
D38*
X226751Y116099D02*
D03*
Y101601D02*
D03*
X240249Y116099D02*
D03*
Y101601D02*
D03*
D39*
X226000Y108850D02*
D03*
X241001D02*
D03*
D40*
X404500Y208499D02*
D03*
Y186500D02*
D03*
X421500D02*
D03*
Y208499D02*
D03*
D41*
X601499Y153779D02*
D03*
Y161780D02*
D03*
Y169781D02*
D03*
Y177780D02*
D03*
Y185781D02*
D03*
Y193779D02*
D03*
Y201780D02*
D03*
Y209781D02*
D03*
X584501D02*
D03*
Y201780D02*
D03*
Y193779D02*
D03*
Y185781D02*
D03*
Y177780D02*
D03*
Y169781D02*
D03*
Y161780D02*
D03*
Y153779D02*
D03*
D42*
X438500Y213050D02*
D03*
Y200350D02*
D03*
Y187650D02*
D03*
Y174950D02*
D03*
X511500D02*
D03*
Y187650D02*
D03*
Y200350D02*
D03*
Y213050D02*
D03*
D43*
X314000Y30501D02*
D03*
X334000D02*
D03*
D44*
X290000Y53000D02*
D03*
X358000D02*
D03*
D45*
X548002Y174490D02*
D03*
Y157492D02*
D03*
X530001Y75498D02*
D03*
Y58500D02*
D03*
X548002Y141493D02*
D03*
Y124495D02*
D03*
X566003Y174490D02*
D03*
Y157492D02*
D03*
Y141493D02*
D03*
Y124495D02*
D03*
X530001Y174490D02*
D03*
Y157492D02*
D03*
Y108495D02*
D03*
Y91497D02*
D03*
X566003Y75498D02*
D03*
Y58500D02*
D03*
X548002Y75498D02*
D03*
Y58500D02*
D03*
X530001Y141493D02*
D03*
Y124495D02*
D03*
X566003Y108495D02*
D03*
Y91497D02*
D03*
X548002Y108495D02*
D03*
Y91497D02*
D03*
D46*
X277250Y193001D02*
D03*
X282251D02*
D03*
X287250D02*
D03*
X292251D02*
D03*
X297250D02*
D03*
X302251D02*
D03*
X307250D02*
D03*
X312251D02*
D03*
X317250D02*
D03*
X322251D02*
D03*
X327249D02*
D03*
X332251D02*
D03*
X337249D02*
D03*
X342251D02*
D03*
X347249D02*
D03*
X352251D02*
D03*
Y79000D02*
D03*
X347249D02*
D03*
X342251D02*
D03*
X337249D02*
D03*
X332251D02*
D03*
X327249D02*
D03*
X322251D02*
D03*
X317250D02*
D03*
X312251D02*
D03*
X307250D02*
D03*
X302251D02*
D03*
X297250D02*
D03*
X292251D02*
D03*
X287250D02*
D03*
X282251D02*
D03*
X277250D02*
D03*
D47*
X371750Y173501D02*
D03*
Y168500D02*
D03*
Y163501D02*
D03*
Y158500D02*
D03*
Y153501D02*
D03*
Y148500D02*
D03*
Y143501D02*
D03*
Y138500D02*
D03*
Y133501D02*
D03*
Y128500D02*
D03*
Y123501D02*
D03*
Y118500D02*
D03*
Y113501D02*
D03*
Y108500D02*
D03*
Y103501D02*
D03*
Y98500D02*
D03*
X257750D02*
D03*
Y103501D02*
D03*
Y108500D02*
D03*
Y113501D02*
D03*
Y118500D02*
D03*
Y123501D02*
D03*
Y128500D02*
D03*
Y133501D02*
D03*
Y138500D02*
D03*
Y143501D02*
D03*
Y148500D02*
D03*
Y153501D02*
D03*
Y158500D02*
D03*
Y163501D02*
D03*
Y168500D02*
D03*
Y173501D02*
D03*
D48*
X140250Y181250D02*
D03*
D49*
X57751Y184750D02*
D03*
D50*
X64251Y65251D02*
D03*
D51*
X140250Y67750D02*
D03*
D52*
X49250Y68499D02*
D03*
D53*
X33499Y180749D02*
D03*
D54*
X141500Y79749D02*
D03*
Y90750D02*
D03*
Y101750D02*
D03*
Y112751D02*
D03*
Y123749D02*
D03*
Y134750D02*
D03*
Y145751D02*
D03*
Y156749D02*
D03*
D55*
X241501Y125850D02*
D03*
X225499D02*
D03*
X241501Y137850D02*
D03*
X225499D02*
D03*
X241501Y161850D02*
D03*
X225499D02*
D03*
X241501Y173850D02*
D03*
X225499D02*
D03*
X241501Y149850D02*
D03*
X225499D02*
D03*
D56*
X362199Y239585D02*
D03*
X298201D02*
D03*
D57*
X340200D02*
D03*
X320200D02*
D03*
D58*
X317201Y212585D02*
D03*
X323700D02*
D03*
X330200D02*
D03*
X336700D02*
D03*
X343200D02*
D03*
D59*
X651300Y63500D02*
D03*
D60*
Y88900D02*
D03*
Y114300D02*
D03*
Y139700D02*
D03*
Y165100D02*
D03*
Y190500D02*
D03*
X676700Y63500D02*
D03*
Y88900D02*
D03*
Y114300D02*
D03*
Y139700D02*
D03*
Y165100D02*
D03*
Y190500D02*
D03*
D61*
X617600Y216800D02*
D03*
Y37200D02*
D03*
D62*
X643000Y216800D02*
D03*
X668400D02*
D03*
X643000Y37200D02*
D03*
X668400D02*
D03*
X546100Y12700D02*
D03*
X571500D02*
D03*
X596900D02*
D03*
X546100Y241300D02*
D03*
X571500D02*
D03*
X12700Y12700D02*
D03*
X38100D02*
D03*
X63500D02*
D03*
X88900D02*
D03*
X114300D02*
D03*
X139700D02*
D03*
X165100D02*
D03*
X190500D02*
D03*
X215900D02*
D03*
X241300D02*
D03*
X266700D02*
D03*
X393700D02*
D03*
X419100D02*
D03*
X444500D02*
D03*
X469900D02*
D03*
X495300D02*
D03*
X520700D02*
D03*
X12700Y241300D02*
D03*
X38100D02*
D03*
X63500D02*
D03*
X88900D02*
D03*
X114300D02*
D03*
X139700D02*
D03*
X165100D02*
D03*
X190500D02*
D03*
X215900D02*
D03*
X241300D02*
D03*
X266700D02*
D03*
X393700D02*
D03*
X419100D02*
D03*
X495300D02*
D03*
X444500D02*
D03*
X469900D02*
D03*
X520700D02*
D03*
D63*
X596900D02*
D03*
D64*
X365201Y239585D02*
D03*
X295199D02*
D03*
D65*
X355201Y212585D02*
D03*
X305199D02*
D03*
M02*
