G04*
G04 #@! TF.GenerationSoftware,Altium Limited,Altium Designer Develop,26.10.1 (6)*
G04*
G04 Layer_Color=16711935*
G04 Board_Origin=0|0*
%FSLAX44Y44*%
%MOMM*%
G71*
G04*
G04 #@! TF.SameCoordinates,98F30FFA-264E-49EF-A4B7-CBC2A7AA9A9C*
G04*
G04*
G04 #@! TF.FilePolarity,Negative*
G04*
G01*
G75*
%ADD46R,0.4000X0.4000*%
%ADD56R,1.6001X1.4000*%
%ADD59R,0.9999X0.9999*%
%ADD60C,1.6240*%
%ADD61R,1.6240X1.6240*%
%ADD62C,1.5501*%
%ADD63O,1.2100X1.9100*%
%ADD64R,1.9796X1.9796*%
G04:AMPARAMS|DCode=65|XSize=1.9796mm|YSize=1.9796mm|CornerRadius=0mm|HoleSize=0mm|Usage=FLASHONLY|Rotation=90.000|XOffset=0mm|YOffset=0mm|HoleType=Round|Shape=Octagon|*
%AMOCTAGOND65*
4,1,8,0.4949,0.9898,-0.4949,0.9898,-0.9898,0.4949,-0.9898,-0.4949,-0.4949,-0.9898,0.4949,-0.9898,0.9898,-0.4949,0.9898,0.4949,0.4949,0.9898,0.0*
%
%ADD65OCTAGOND65*%

%ADD66R,1.6240X1.6240*%
%ADD161R,2.4000X1.1500*%
%ADD162R,0.5501X1.2999*%
%ADD163R,1.2001X0.7000*%
%ADD164R,0.3400X0.7000*%
%ADD165R,0.7000X0.3400*%
%ADD166R,1.7800X1.7800*%
%ADD167R,2.1701X0.6100*%
%ADD168R,1.1500X2.4000*%
%ADD169R,0.7000X1.2001*%
%ADD170R,0.8000X0.9999*%
%ADD171R,0.9999X0.8000*%
%ADD172R,1.2001X1.1000*%
%ADD173R,1.4000X1.6001*%
%ADD174R,1.1000X1.2001*%
%ADD175R,0.6001X0.9999*%
%ADD176R,0.5501X0.9999*%
D46*
X292500Y200000D02*
D03*
X298499D02*
D03*
X468501Y144500D02*
D03*
X474500D02*
D03*
X613999Y198500D02*
D03*
X608000D02*
D03*
X193498Y193500D02*
D03*
X187499D02*
D03*
X181500D02*
D03*
X175500D02*
D03*
X205497Y187500D02*
D03*
X199498D02*
D03*
X593499Y198500D02*
D03*
X587500D02*
D03*
X634501Y170100D02*
D03*
X628501D02*
D03*
X613999D02*
D03*
X608000D02*
D03*
X593499D02*
D03*
X587500D02*
D03*
X634501Y141700D02*
D03*
X628501D02*
D03*
X584490Y220500D02*
D03*
X578490D02*
D03*
X572491D02*
D03*
X566491D02*
D03*
X613999Y141700D02*
D03*
X608000D02*
D03*
X593499D02*
D03*
X587500D02*
D03*
X634501Y113300D02*
D03*
X628501D02*
D03*
X613999D02*
D03*
X608000D02*
D03*
X593499D02*
D03*
X587500D02*
D03*
X634501Y84900D02*
D03*
X628501D02*
D03*
X613999D02*
D03*
X608000D02*
D03*
X593499D02*
D03*
X587500D02*
D03*
X634501Y56500D02*
D03*
X628501D02*
D03*
X613999D02*
D03*
X608000D02*
D03*
X593499D02*
D03*
X587500D02*
D03*
X553498Y39499D02*
D03*
X547498D02*
D03*
X541498D02*
D03*
X535499D02*
D03*
X529500D02*
D03*
X523500D02*
D03*
X560491Y220500D02*
D03*
X554492D02*
D03*
X193498Y187500D02*
D03*
X187499D02*
D03*
X467495Y39499D02*
D03*
X461496D02*
D03*
X455496D02*
D03*
X449497D02*
D03*
X443498D02*
D03*
X437498D02*
D03*
X431497D02*
D03*
X425498D02*
D03*
X419498D02*
D03*
X413499D02*
D03*
X407500D02*
D03*
X401500D02*
D03*
X465499Y27500D02*
D03*
X459499D02*
D03*
X181500Y187500D02*
D03*
X175500D02*
D03*
X453499Y27500D02*
D03*
X447500D02*
D03*
X449700Y144500D02*
D03*
X443700D02*
D03*
X494100D02*
D03*
X488100D02*
D03*
X456001D02*
D03*
X462000D02*
D03*
X494100Y110500D02*
D03*
X488100D02*
D03*
X449700D02*
D03*
X443700D02*
D03*
X471899D02*
D03*
X465900D02*
D03*
X359491Y39499D02*
D03*
X353491D02*
D03*
X347491D02*
D03*
X341492D02*
D03*
X335493D02*
D03*
X329493D02*
D03*
X323493D02*
D03*
X317494D02*
D03*
X311493D02*
D03*
X305494D02*
D03*
X299494D02*
D03*
X293495D02*
D03*
X287495D02*
D03*
X281496D02*
D03*
X275497D02*
D03*
X269497D02*
D03*
X263496D02*
D03*
X257497D02*
D03*
X251497D02*
D03*
X245498D02*
D03*
X239499D02*
D03*
X233499D02*
D03*
X227500D02*
D03*
X221500D02*
D03*
X538501Y76500D02*
D03*
X532501D02*
D03*
X538501Y144500D02*
D03*
X532501D02*
D03*
X427500Y178500D02*
D03*
X421500D02*
D03*
X538501Y110500D02*
D03*
X532501D02*
D03*
X494100Y178500D02*
D03*
X488100D02*
D03*
X449700D02*
D03*
X443700D02*
D03*
X471899D02*
D03*
X465900D02*
D03*
X516300Y76500D02*
D03*
X510300D02*
D03*
X516300Y144500D02*
D03*
X510300D02*
D03*
X427500Y76500D02*
D03*
X421500D02*
D03*
X427500Y144500D02*
D03*
X421500D02*
D03*
X516300Y110500D02*
D03*
X510300D02*
D03*
X494100Y76500D02*
D03*
X488100D02*
D03*
X449700D02*
D03*
X443700D02*
D03*
X427500Y110500D02*
D03*
X421500D02*
D03*
X471899Y76500D02*
D03*
X465900D02*
D03*
D56*
X39065Y166518D02*
D03*
Y149520D02*
D03*
X97485Y116502D02*
D03*
Y133500D02*
D03*
X75555Y109498D02*
D03*
Y92500D02*
D03*
D59*
X524503Y30500D02*
D03*
X508501D02*
D03*
X496502D02*
D03*
X480500D02*
D03*
X222503D02*
D03*
X206501D02*
D03*
X194502D02*
D03*
X178500D02*
D03*
D60*
X668400Y216800D02*
D03*
X643000D02*
D03*
X668400Y37200D02*
D03*
X643000D02*
D03*
X546100Y12700D02*
D03*
X571500D02*
D03*
X596900D02*
D03*
X546100Y241300D02*
D03*
X571500D02*
D03*
X12700Y12700D02*
D03*
X38100D02*
D03*
X63500D02*
D03*
X88900D02*
D03*
X114300D02*
D03*
X139700D02*
D03*
X165100D02*
D03*
X190500D02*
D03*
X215900D02*
D03*
X241300D02*
D03*
X266700D02*
D03*
X393700D02*
D03*
X419100D02*
D03*
X444500D02*
D03*
X469900D02*
D03*
X495300D02*
D03*
X520700D02*
D03*
X12700Y241300D02*
D03*
X38100D02*
D03*
X63500D02*
D03*
X88900D02*
D03*
X114300D02*
D03*
X139700D02*
D03*
X165100D02*
D03*
X190500D02*
D03*
X215900D02*
D03*
X241300D02*
D03*
X266700D02*
D03*
X393700D02*
D03*
X419100D02*
D03*
X495300D02*
D03*
X444500D02*
D03*
X469900D02*
D03*
X520700D02*
D03*
D61*
X617600Y216800D02*
D03*
Y37200D02*
D03*
D62*
X305199Y212585D02*
D03*
X355201D02*
D03*
D63*
X295199Y239585D02*
D03*
X365201D02*
D03*
D64*
X651300Y63500D02*
D03*
D65*
Y88900D02*
D03*
Y114300D02*
D03*
Y139700D02*
D03*
Y165100D02*
D03*
Y190500D02*
D03*
X676700Y63500D02*
D03*
Y88900D02*
D03*
Y114300D02*
D03*
Y139700D02*
D03*
Y165100D02*
D03*
Y190500D02*
D03*
D66*
X596900Y241300D02*
D03*
D161*
X14525Y104850D02*
D03*
Y81350D02*
D03*
X158515Y121150D02*
D03*
Y144650D02*
D03*
D162*
X387500Y61701D02*
D03*
X379499D02*
D03*
X371501D02*
D03*
X363500D02*
D03*
X355501D02*
D03*
X347500D02*
D03*
X339499D02*
D03*
X331501D02*
D03*
X323500D02*
D03*
X315501D02*
D03*
X307500D02*
D03*
X299499D02*
D03*
X291501D02*
D03*
X283500D02*
D03*
X275501D02*
D03*
X267500D02*
D03*
X259499D02*
D03*
X251501D02*
D03*
X243500D02*
D03*
X235499D02*
D03*
X227500D02*
D03*
X219499D02*
D03*
X211501D02*
D03*
X203500D02*
D03*
X195499D02*
D03*
X187500D02*
D03*
X179499D02*
D03*
Y175300D02*
D03*
X187500D02*
D03*
X195499D02*
D03*
X203500D02*
D03*
X211501D02*
D03*
X219499D02*
D03*
X227500D02*
D03*
X235499D02*
D03*
X243500D02*
D03*
X251501D02*
D03*
X259499D02*
D03*
X267500D02*
D03*
X275501D02*
D03*
X283500D02*
D03*
X291501D02*
D03*
X299499D02*
D03*
X307500D02*
D03*
X315501D02*
D03*
X323500D02*
D03*
X331501D02*
D03*
X339499D02*
D03*
X347500D02*
D03*
X355501D02*
D03*
X363500D02*
D03*
X371501D02*
D03*
X379499D02*
D03*
X387500D02*
D03*
D163*
X59540Y102600D02*
D03*
Y93100D02*
D03*
Y83600D02*
D03*
X34541D02*
D03*
Y102600D02*
D03*
X113500Y123400D02*
D03*
Y132900D02*
D03*
Y142400D02*
D03*
X138499D02*
D03*
Y123400D02*
D03*
D164*
X122501Y44999D02*
D03*
X117499D02*
D03*
X112501D02*
D03*
X107499D02*
D03*
Y73000D02*
D03*
X112501D02*
D03*
X117499D02*
D03*
X122501D02*
D03*
D165*
X100999Y51499D02*
D03*
Y56501D02*
D03*
Y61499D02*
D03*
Y66501D02*
D03*
X129001D02*
D03*
Y61499D02*
D03*
Y56501D02*
D03*
Y51499D02*
D03*
D166*
X115000Y59000D02*
D03*
D167*
X222851Y186950D02*
D03*
Y199650D02*
D03*
Y212350D02*
D03*
Y225050D02*
D03*
X272150D02*
D03*
Y212350D02*
D03*
Y199650D02*
D03*
Y186950D02*
D03*
D168*
X75830Y187535D02*
D03*
X52330D02*
D03*
D169*
X73580Y167519D02*
D03*
X54580D02*
D03*
Y142520D02*
D03*
X64080D02*
D03*
X73580D02*
D03*
D170*
X332000Y214498D02*
D03*
X319000D02*
D03*
X382000Y202499D02*
D03*
X369000D02*
D03*
X332000D02*
D03*
X319000D02*
D03*
X371000Y190500D02*
D03*
X358000D02*
D03*
X348000D02*
D03*
X335000D02*
D03*
X325000D02*
D03*
X312000D02*
D03*
X302000D02*
D03*
X289000D02*
D03*
X75000Y39000D02*
D03*
X62000D02*
D03*
X105498Y213900D02*
D03*
X92498D02*
D03*
X515500Y42499D02*
D03*
X502500D02*
D03*
X213500D02*
D03*
X200500D02*
D03*
X127015Y31470D02*
D03*
X140015D02*
D03*
X138515Y55500D02*
D03*
X151515D02*
D03*
X151530Y67515D02*
D03*
X164530D02*
D03*
X128000Y101000D02*
D03*
X141000D02*
D03*
X138515Y43485D02*
D03*
X151515D02*
D03*
X190500Y42499D02*
D03*
X177500D02*
D03*
X384502Y30500D02*
D03*
X371502D02*
D03*
X361502D02*
D03*
X348502D02*
D03*
X338502D02*
D03*
X325502D02*
D03*
X315502D02*
D03*
X302502D02*
D03*
X292502D02*
D03*
X279502D02*
D03*
X439500D02*
D03*
X426500D02*
D03*
X416500D02*
D03*
X403500D02*
D03*
X269503D02*
D03*
X256503D02*
D03*
X246503D02*
D03*
X233503D02*
D03*
X492500Y42499D02*
D03*
X479500D02*
D03*
X82498Y213900D02*
D03*
X69498D02*
D03*
X59499D02*
D03*
X46499D02*
D03*
D171*
X65000Y64500D02*
D03*
Y51500D02*
D03*
X78500Y64500D02*
D03*
Y51500D02*
D03*
D172*
X544492Y224000D02*
D03*
X527494D02*
D03*
X513494D02*
D03*
X496496D02*
D03*
X482495D02*
D03*
X465497D02*
D03*
X451497D02*
D03*
X434499D02*
D03*
X138498Y155415D02*
D03*
X121500D02*
D03*
X34542Y70585D02*
D03*
X51540D02*
D03*
X114998Y33985D02*
D03*
X98000D02*
D03*
X34498Y214400D02*
D03*
X17500D02*
D03*
X420498Y224000D02*
D03*
X403500D02*
D03*
X575490Y211000D02*
D03*
X558492D02*
D03*
X544492D02*
D03*
X527494D02*
D03*
X513494D02*
D03*
X496496D02*
D03*
X482495D02*
D03*
X465497D02*
D03*
X451497D02*
D03*
X434499D02*
D03*
X420498D02*
D03*
X403500D02*
D03*
D173*
X114998Y86515D02*
D03*
X98000D02*
D03*
X80478Y126505D02*
D03*
X63480D02*
D03*
D174*
X140015Y70002D02*
D03*
Y87000D02*
D03*
D175*
X106200Y183901D02*
D03*
X114201D02*
D03*
X122199D02*
D03*
X130201D02*
D03*
Y201899D02*
D03*
X122199D02*
D03*
X114201D02*
D03*
X106200D02*
D03*
D176*
X578000Y28501D02*
D03*
X586001D02*
D03*
Y45499D02*
D03*
X578000D02*
D03*
M02*
