M48
;Layer_Color=9474304
;FILE_FORMAT=4:4
METRIC,LZ
;TYPE=PLATED
T01F00S00C0.1500
%
T01
X0013Y000815
X00152Y00096
X00184Y001
X001847Y001045
X002015Y00106
X0020875Y001047
X00218Y00101
X00221Y00094
X00227Y00097
X00229Y00082
X00234Y000755
X002535Y000845
X002635Y000885
X00273Y00082
X002685Y000755
X00292Y000715
X002995Y00089
X003135Y000855
X003145Y000815
X003155Y000775
X003165Y000735
X00318Y000695
X003415
X003405Y000735
X003395Y000775
X003385Y000815
X00337Y000855
X003385Y00108
X003295Y001095
X00316Y001105
X00287Y00114
X00282Y0012
X00277Y00121
X00262Y00117
X00268Y00147
X00281Y00148
X00294Y001445
X00301Y00143
Y00153
X00293Y00156
X003085Y00161
X00318Y00151
X00328Y001485
X00333Y00161
X003285Y001685
X00352
X00372Y001655
Y00182
X003675Y00183
X00364Y001895
X00357Y0018875
X0034075Y001815
X00337Y00207
X00331
X00325Y00213
X003175Y002125
X003225Y00195
X00326Y00198
X00345Y00207
X00375Y0021
X003815Y00207
X003885Y0021
X00375Y00198
X00396Y00162
Y00142
Y00133
X003665Y00132
X00355Y00134
X00365Y000835
X003635Y000755
X003725Y00076
X00382Y000645
X00381Y00033
X003685Y00035
X003665Y000395
X0037Y0002475
X00377Y00014
X003935Y00025
X0035Y00037
X00339Y00044
X00335Y00027
X00338Y00012
X00345
X00349Y0001
X00352Y00071
X0039Y00106
X003935Y001035
X00299Y00182
X0029Y00183
X0027Y00186
X002385Y00184
X00246Y00208
X00279Y002245
X0029Y00224
X002935Y00221
X00286Y0023225
X00212Y00192
X00198Y00182
X00205Y00155
X00228
X00244Y00148
X002135Y00122
X00189Y00131
X00181Y00143
X00184Y00146
X001815Y00155
X00174
X00163Y00168
X001385Y00163
X00127Y00144
X001105Y0016
X001325Y001945
X00203Y00053
X002025Y000385
X00215Y00038
X00226
X00235
X00227Y0005
X00244Y00025
X002505Y0001675
X0026025Y000205
X00277Y0001
X002745Y00049
X001895Y00028
X0041Y00035
X0043Y00033
X00444Y000285
X00454Y00026
X004615
X0047
X004715Y0003
X00473Y00035
X00479Y000355
Y00027
X004875Y000245
X00495Y00027
X004995Y000355
X00506Y00033
X00512Y00035
X00507Y000425
Y00051
X0050675Y000615
X00502Y00064
X004975Y000605
X004925Y0006
X00498Y0004875
X0049Y00043
X00485Y000425
X004745Y00044
X0047Y00043
X00469Y0004825
X004725Y000555
X004745Y0007
X00469Y000755
X00468Y00084
X004615Y000815
X004515Y00082
X00447Y00085
X004425Y000775
X00452Y00069
X00455Y000515
X004605Y0004
X00455Y0001
X004345Y000145
X00429Y0001
X004225Y00059
X004085Y00066
X0042Y00111
X00426Y00117
X00421Y00125
X004145Y001325
X0043Y001365
X004265Y001525
X004325Y00157
X00441Y00156
X00445Y001645
X00449
X004565Y001615
X004715Y001555
X004755Y00156
X00492Y00162
X004935Y001675
X005025Y001725
X00513Y00176
X00511Y001815
X005035Y00186
X005005Y00194
X004965Y001905
X004855Y001995
X00479
X00472Y00205
X004725Y002095
X004625Y00199
X00457Y002035
X004455Y00196
X004445Y00189
Y001805
X004355Y00175
Y001645
Y00186
X00428Y001865
X004235Y0019
Y00182
X00423Y00178
X004165Y001835
X004125Y00185
Y001755
X003985Y00186
X003995Y0019
Y00198
X004135Y00203
X00419Y002025
X00428Y00196
X004325
X004355Y00209
X00429Y00212
X004445Y00211
X004455Y00225
X00452Y002345
X00459Y00228
X0048575Y002445
X005035Y00235
X00504Y002215
X005115Y00223
X00509Y002135
X005095Y002095
X00516Y00211
Y00206
X005095Y002005
X005195Y001945
X005265Y00202
X0053075Y002015
X0054Y00205
Y002095
X00539Y00214
X0055Y00216
X00557Y00214
X00558Y00209
X00555Y0022025
Y002245
X0054525Y0023125
X00518Y002315
X0053Y00189
X00532Y00184
X005275Y001835
X005225Y00175
X005255Y00162
X00539
X00554
X00559Y001745
X005585Y00179
X00565Y001765
X0055Y0018
X00546Y00177
X005385Y001885
X005445Y001985
X00566Y00199
X005705Y001955
X005595Y001905
X0059Y00187
X005945Y001835
X00602Y00182
X00608
X00609Y00193
X005775Y0017
X005745Y00167
X00588Y00159
X005875Y001485
X00581Y001455
X005835Y001395
X00596Y00146
X005635Y00145
X005615Y001495
X00548Y001455
X00551Y001405
X00549Y00135
X00552Y00129
X005525Y001245
X00546Y00128
X00538Y00131
Y001355
X00535Y001385
X005365Y00144
X005325Y00153
X005275Y001505
X0052Y00145
X005195Y001405
X005125Y00146
X005085Y001475
X00509Y001425
X005005Y00137
X004995Y001475
X00494Y001435
X004945Y001188
X004915Y001125
X00493Y001085
X00497Y00111
X00494Y000995
X00489Y000975
X0049525Y0008975
X004925Y0008325
X00495Y0008
X00496Y00075
X00491Y00076
X00479Y00081
X00477Y00093
Y001055
X0048Y00126
X005035Y001215
X005125Y001245
X005095Y001145
X00514Y001075
X00515Y00103
X00525Y001025
X00531Y001085
X00541Y001115
Y00102
Y00094
X005445Y000915
X00551Y00087
X00531Y00084
X00528Y00089
X00527Y0008
X00531Y00071
Y00065
Y00053
X00541Y00055
X005445Y000645
X005515Y00062
X0057Y00068
X0058
X00576Y000725
X005825Y00092
X00592Y00084
X00597Y00081
X00604Y00085
X00601Y00094
X005835Y001095
X00569Y00111
X00562
X00566Y001245
X005735Y001285
X00529Y00124
X00513Y000925
X0051Y000895
X005015Y000865
X00513Y00077
X00515Y00071
X0051025Y000685
X0052Y00057
X005215Y000435
X00529Y00043
X00539Y00041
X0054Y00037
X00515Y00046
X005865Y000525
X004575Y00092
X004675Y00183
X00418Y00225
X0041Y00223
X004025Y002265
X00401Y00143
X005675Y002165
M30
