G04*
G04 #@! TF.GenerationSoftware,Altium Limited,Altium Designer Develop,26.10.1 (6)*
G04*
G04 Layer_Color=65535*
G04 Board_Origin=0|0*
%FSLAX44Y44*%
%MOMM*%
G71*
G04*
G04 #@! TF.SameCoordinates,425261C2-683E-4928-8915-23858BF2E2A7*
G04*
G04*
G04 #@! TF.FilePolarity,Positive*
G04*
G01*
G75*
%ADD10C,0.1524*%
%ADD11C,0.2500*%
D10*
X26585Y198499D02*
X31917Y190501D01*
Y198499D02*
X26585Y190501D01*
X34583Y197166D02*
X35916Y198499D01*
X38582D01*
X39915Y197166D01*
Y195833D01*
X38582Y194500D01*
X37249D01*
X38582D01*
X39915Y193167D01*
Y191834D01*
X38582Y190501D01*
X35916D01*
X34583Y191834D01*
X392168Y174249D02*
Y167584D01*
X393501Y166251D01*
X396167D01*
X397500Y167584D01*
Y174249D01*
X400166Y166251D02*
X402832D01*
X401499D01*
Y174249D01*
X400166Y172916D01*
X639168Y237249D02*
X636502D01*
X637835D01*
Y230584D01*
X636502Y229251D01*
X635168D01*
X633835Y230584D01*
X641834Y229251D02*
Y237249D01*
X645833D01*
X647166Y235916D01*
Y233250D01*
X645833Y231917D01*
X641834D01*
X649832Y235916D02*
X651165Y237249D01*
X653831D01*
X655165Y235916D01*
Y234583D01*
X653831Y233250D01*
X652498D01*
X653831D01*
X655165Y231917D01*
Y230584D01*
X653831Y229251D01*
X651165D01*
X649832Y230584D01*
X641168Y24999D02*
X638502D01*
X639835D01*
Y18334D01*
X638502Y17001D01*
X637169D01*
X635835Y18334D01*
X643834Y17001D02*
Y24999D01*
X647833D01*
X649166Y23666D01*
Y21000D01*
X647833Y19667D01*
X643834D01*
X655832Y17001D02*
Y24999D01*
X651832Y21000D01*
X657165D01*
X7808Y273999D02*
X13141Y266000D01*
Y273999D02*
X7808Y266000D01*
X21139D02*
X15807D01*
X21139Y271333D01*
Y272666D01*
X19806Y273999D01*
X17140D01*
X15807Y272666D01*
X374420Y230498D02*
X379752Y222500D01*
Y230498D02*
X374420Y222500D01*
X382418D02*
X385084D01*
X383751D01*
Y230498D01*
X382418Y229165D01*
X253090Y220388D02*
Y213723D01*
X254423Y212390D01*
X257089D01*
X258422Y213723D01*
Y220388D01*
X266420Y212390D02*
X261088D01*
X266420Y217722D01*
Y219055D01*
X265087Y220388D01*
X262421D01*
X261088Y219055D01*
X586232Y220980D02*
Y228978D01*
X590231D01*
X591564Y227645D01*
Y224979D01*
X590231Y223646D01*
X586232D01*
X588898D02*
X591564Y220980D01*
X598230D02*
Y228978D01*
X594230Y224979D01*
X599563D01*
X192278Y170304D02*
Y162306D01*
X196277D01*
X197610Y163639D01*
Y164972D01*
X196277Y166305D01*
X192278D01*
X196277D01*
X197610Y167638D01*
Y168971D01*
X196277Y170304D01*
X192278D01*
X200276D02*
X205609D01*
X202943D01*
Y162306D01*
X208275D02*
Y170304D01*
X213607Y162306D01*
Y170304D01*
D11*
X60000Y219994D02*
X73329D01*
Y216661D01*
X60000Y203332D01*
Y200000D01*
X73329D01*
X79994Y219994D02*
Y203332D01*
X83326Y200000D01*
X89990D01*
X93323Y203332D01*
Y219994D01*
X99987D02*
Y200000D01*
X113316D01*
X119981Y219994D02*
Y203332D01*
X123313Y200000D01*
X129978D01*
X133310Y203332D01*
Y219994D01*
X159968Y200000D02*
Y213329D01*
X166632Y219994D01*
X173297Y213329D01*
Y200000D01*
Y209997D01*
X159968D01*
X179961Y219994D02*
X193290D01*
Y216661D01*
X179961Y203332D01*
Y200000D01*
M02*
