M48
;Layer_Color=9474304
;FILE_FORMAT=4:4
METRIC,LZ
;TYPE=PLATED
T01F00S00C0.1500
%
T01
X0013Y000815
X00131Y00107
X0013Y00136
X00127Y00144
X001325Y00163
X001385
X001845Y00155
X001945Y00161
X00205Y00155
X00208Y00106
X002015
X0022
X00218Y00101
X00221Y00094
X002145Y000925
X00227Y00097
X00236Y000975
X00234Y001015
X00229Y00082
X002245Y000825
X00232Y00067
X00211Y00066
X00198Y00081
X002025Y000385
X00227Y00011
X002505Y0001675
X0026025Y000205
X00277Y0001
X00276Y00068
X00273Y00082
X00271Y00086
X002535Y000845
Y00063
X00256Y0006
X00322Y00057
X00326Y0004
X00345Y00012
X00382Y0001
X003775Y000445
X00372Y00045
X0037Y000665
X003725Y00076
X003635Y000755
X00359Y00075
X00365Y000835
X00384Y000955
X00389Y00093
X00382Y000645
Y00128
X00355Y00134
X00356Y00143
X0034575
X00328Y001485
X003235Y00148
X00318Y00151
X00316Y00142
X0031625Y001355
X003285Y00134
X00331Y00155
X00333Y00161
X003285Y001685
X00324Y001565
X003085Y00161
X00307Y0015325
X00301Y00153
Y00143
X00307Y00142
X00294Y001445
X00293Y00135
X00279
X00281Y00148
X00268Y00147
Y001515
X00293Y00156
X0029Y00183
X00304Y001825
X003085Y001815
X003335Y002035
X00372Y00201
X003845Y002
Y00204
X003815Y00207
X0039125Y0020625
X0039Y0022
X00383Y00244
X00372Y00182
X003545Y0016
X00396Y00162
X00394Y00153
X003295Y001095
X003165Y00106
X002905Y00109
X0029Y001185
X00282Y0012
X0028Y00116
X002815Y00106
X002995Y00089
X00261Y00182
X002385Y00184
X00282251Y00204
X00286Y002085
X00279Y002245
X00286Y0023225
X002125Y00229
X001745Y00113
X00174Y00109
Y00105
X00152Y00096
X00158Y001215
X004265
X0041Y00152
X00406Y00162
X00403Y00159
X004085Y001685
X00424Y001725
X00428Y00196
X0043Y002055
X00426Y00223
X00423Y00226
X00407
X004025Y002325
X0041Y00237
X00409Y00244
X004005Y002205
X00437Y002295
X00441
X00459Y00228
X00474
X00479Y00223
X00484Y002265
X00488Y00228
X00499Y002245
X00504Y002215
X005075Y002185
X005225
X005255Y002285
X005295Y002275
X00534Y002215
X00539Y00214
X0054Y002095
X0055Y00216
X00555Y002245
X00561Y00212
X00558Y00209
X00551Y00203
X005555Y001945
X005595Y001905
X005625Y001875
X00566Y00199
X005705Y001955
X00577Y00186
X00576Y00178
Y00174
X005775Y0017
X005915Y00162
X00595Y00158
X00596Y00146
X005875Y001485
X005835Y001395
X00582Y001135
X005825Y00092
X00594Y00094
X00601
Y00088
X00604Y00085
X00592Y00084
X00576Y000725
X00577Y00059
X00584Y00063
X00604Y00102
X0062Y0009
X00604Y00131
X00608Y00174
Y00182
X00609Y00193
X005945Y001925
X005915Y00195
X005945Y001835
X005915Y001805
X005675Y002165
X00525Y00207
X0053Y00189
X00532Y00184
X005275Y001835
X00506Y001805
X005Y001825
X004985Y001865
X00494Y00187
X00491Y001895
X00493Y002
X004855Y001995
X00472Y00205
X00468Y001875
X00475Y001865
X00478Y00183
X00477Y00176
X004745Y001695
X00485Y00174
X004905Y00176
X005055Y001695
X005115
X00516Y00169
X00518Y00152
X0052Y00145
X005195Y001405
X005135Y001345
X0051525Y0012825
X005125Y001245
Y0012
X005065Y001265
X005015Y001315
Y001415
X005065Y001365
X005125Y00146
X005015Y001515
X004955Y001495
X004965Y001565
X004865
X004945Y001188
X004915Y001125
X005015Y001165
X005065Y001115
X005015Y001065
X00514Y001075
X0052
Y001115
X005195Y00103
X005125Y000985
X00513Y000925
X00517Y00085
X00513Y00077
X00515Y00071
X0052Y00057
X00515Y00046
X00507Y00051
X005Y00054
X0049Y00049
X00493Y00046
X004815
X004745Y00044
X0047Y00038
X004725Y000555
X0047Y00061
X00468Y00065
X00461Y00061
X004635Y00055
X00455Y000515
X004615Y000815
X004715
X00477Y00093
X00484001Y00088999
X004865Y000765
X004815Y0007
X00486Y00059
X005015Y000765
Y000865
X00494Y000995
X00454Y000945
X00421Y000685
X004115Y00062
X00406Y000625
X004025Y00065
X003985Y000705
X00408Y000725
X0040075Y0003725
X0043Y00033
X00429Y0001
X004875Y000245
X00512Y00019
X005535Y00026
X00557Y00133
X005005Y00194
X004925Y00212
X005035Y00235
X004545Y00178
X00457Y00175
X00454Y00172
X004445Y001805
M30
