G04*
G04 #@! TF.GenerationSoftware,Altium Limited,Altium Designer Develop,26.10.1 (6)*
G04*
G04 Layer_Color=8421504*
G04 Board_Origin=0|0*
%FSLAX44Y44*%
%MOMM*%
G71*
G04*
G04 #@! TF.SameCoordinates,0D4C11CC-009D-49E4-A57F-630B4B8F87BD*
G04*
G04*
G04 #@! TF.FilePolarity,Positive*
G04*
G01*
G75*
%ADD13R,1.7501X0.7000*%
%ADD14R,1.5499X1.0000*%
%ADD15R,1.0000X1.4501*%
%ADD16R,1.5001X1.3000*%
%ADD17R,1.5001X0.8001*%
%ADD18R,1.4001X0.8001*%
%ADD19R,1.5001X1.5001*%
G04:AMPARAMS|DCode=20|XSize=0.225mm|YSize=0.225mm|CornerRadius=0.1125mm|HoleSize=0mm|Usage=FLASHONLY|Rotation=0.000|XOffset=0mm|YOffset=0mm|HoleType=Round|Shape=RoundedRectangle|*
%AMROUNDEDRECTD20*
21,1,0.2250,0.0000,0,0,0.0*
21,1,0.0000,0.2250,0,0,0.0*
1,1,0.2250,0.0000,0.0000*
1,1,0.2250,0.0000,0.0000*
1,1,0.2250,0.0000,0.0000*
1,1,0.2250,0.0000,0.0000*
%
%ADD20ROUNDEDRECTD20*%
%ADD21R,0.4001X1.3500*%
G04:AMPARAMS|DCode=22|XSize=1.8001mm|YSize=1.8999mm|CornerRadius=0.504mm|HoleSize=0mm|Usage=FLASHONLY|Rotation=0.000|XOffset=0mm|YOffset=0mm|HoleType=Round|Shape=RoundedRectangle|*
%AMROUNDEDRECTD22*
21,1,1.8001,0.8919,0,0,0.0*
21,1,0.7920,1.8999,0,0,0.0*
1,1,1.0080,0.3960,-0.4459*
1,1,1.0080,-0.3960,-0.4459*
1,1,1.0080,-0.3960,0.4459*
1,1,1.0080,0.3960,0.4459*
%
%ADD22ROUNDEDRECTD22*%
%ADD23R,1.5001X1.8999*%
%ADD24R,0.3000X0.3000*%
%ADD25R,0.3000X0.3000*%
%ADD26R,0.6500X1.0500*%
%ADD27R,0.5499X0.4001*%
%ADD28R,0.7000X0.5001*%
%ADD29R,1.1999X1.4001*%
%ADD30R,0.8999X0.4501*%
%ADD31R,1.5100X0.5601*%
%ADD32R,1.0000X5.5001*%
%ADD33R,1.6000X3.0000*%
%ADD34R,0.2799X1.5499*%
%ADD35R,1.5499X0.2799*%
%ADD36R,0.8999X0.8999*%
D13*
X141500Y156749D02*
D03*
Y145751D02*
D03*
Y134750D02*
D03*
Y123749D02*
D03*
Y112751D02*
D03*
Y101750D02*
D03*
Y90750D02*
D03*
Y79749D02*
D03*
D14*
X33499Y180749D02*
D03*
D15*
X49250Y68499D02*
D03*
D16*
X140250Y67750D02*
D03*
X548002Y174490D02*
D03*
Y157492D02*
D03*
X530001Y75498D02*
D03*
Y58500D02*
D03*
X548002Y141493D02*
D03*
Y124495D02*
D03*
X566003Y174490D02*
D03*
Y157492D02*
D03*
Y141493D02*
D03*
Y124495D02*
D03*
X530001Y174490D02*
D03*
Y157492D02*
D03*
Y108495D02*
D03*
Y91497D02*
D03*
X566003Y75498D02*
D03*
Y58500D02*
D03*
X548002Y75498D02*
D03*
Y58500D02*
D03*
X530001Y141493D02*
D03*
Y124495D02*
D03*
X566003Y108495D02*
D03*
Y91497D02*
D03*
X548002Y108495D02*
D03*
Y91497D02*
D03*
D17*
X64251Y65251D02*
D03*
D18*
X57751Y184750D02*
D03*
D19*
X140250Y181250D02*
D03*
D20*
X459000Y74000D02*
D03*
X454001D02*
D03*
X474001D02*
D03*
X469000D02*
D03*
X464001D02*
D03*
X459000Y78999D02*
D03*
X444001D02*
D03*
X504001D02*
D03*
X474001D02*
D03*
X469000D02*
D03*
X464001D02*
D03*
X459000Y84000D02*
D03*
X444001D02*
D03*
X479000D02*
D03*
X474001D02*
D03*
X469000D02*
D03*
X464001D02*
D03*
X509000Y88999D02*
D03*
X499000Y94000D02*
D03*
X459000Y104000D02*
D03*
X454001D02*
D03*
X449000D02*
D03*
X479000D02*
D03*
X474001D02*
D03*
X469000D02*
D03*
X464001D02*
D03*
X459000Y108999D02*
D03*
X454001D02*
D03*
X449000D02*
D03*
X499000D02*
D03*
X479000D02*
D03*
X474001D02*
D03*
X459000Y128999D02*
D03*
Y134000D02*
D03*
X499000Y74000D02*
D03*
X494001D02*
D03*
X489000D02*
D03*
X484001D02*
D03*
X479000D02*
D03*
X499000Y78999D02*
D03*
X494001D02*
D03*
X489000D02*
D03*
X484001D02*
D03*
X479000D02*
D03*
X449000D02*
D03*
X504001Y84000D02*
D03*
X499000D02*
D03*
X494001D02*
D03*
X489000D02*
D03*
X484001D02*
D03*
X504001Y88999D02*
D03*
X509000Y94000D02*
D03*
Y98999D02*
D03*
Y104000D02*
D03*
Y144000D02*
D03*
X504001D02*
D03*
X459000Y154000D02*
D03*
X479000Y158999D02*
D03*
X474001D02*
D03*
X469000D02*
D03*
X464001D02*
D03*
X454001D02*
D03*
X479000Y164000D02*
D03*
X474001D02*
D03*
X469000D02*
D03*
X464001D02*
D03*
X454001D02*
D03*
X479000Y154000D02*
D03*
X474001D02*
D03*
X449000D02*
D03*
Y134000D02*
D03*
X469000Y108999D02*
D03*
X464001D02*
D03*
X459000Y114000D02*
D03*
X454001D02*
D03*
X449000D02*
D03*
X509000D02*
D03*
X479000D02*
D03*
X474001D02*
D03*
X469000D02*
D03*
X464001D02*
D03*
X454001Y118999D02*
D03*
X449000D02*
D03*
X479000D02*
D03*
X474001D02*
D03*
X459000Y124000D02*
D03*
X454001D02*
D03*
X449000D02*
D03*
X479000D02*
D03*
X474001D02*
D03*
X469000D02*
D03*
X464001D02*
D03*
X454001Y128999D02*
D03*
X449000D02*
D03*
X504001D02*
D03*
X479000D02*
D03*
X474001D02*
D03*
X469000D02*
D03*
X464001D02*
D03*
X454001Y134000D02*
D03*
X479000D02*
D03*
X474001D02*
D03*
X469000D02*
D03*
X464001D02*
D03*
X509000Y138999D02*
D03*
X499000D02*
D03*
Y144000D02*
D03*
X454001Y154000D02*
D03*
X509000D02*
D03*
X504001D02*
D03*
X484001D02*
D03*
X469000D02*
D03*
X464001D02*
D03*
X459000Y158999D02*
D03*
X449000D02*
D03*
X509000D02*
D03*
X484001D02*
D03*
X459000Y164000D02*
D03*
X449000D02*
D03*
X509000D02*
D03*
X499000Y88999D02*
D03*
X504001Y74000D02*
D03*
X449000D02*
D03*
X444001D02*
D03*
X439000D02*
D03*
X434001D02*
D03*
X429000D02*
D03*
X424001D02*
D03*
X509000D02*
D03*
X419000D02*
D03*
X454001Y78999D02*
D03*
X439000D02*
D03*
X434001D02*
D03*
X429000D02*
D03*
X424001D02*
D03*
X509000D02*
D03*
X419000D02*
D03*
X454001Y84000D02*
D03*
X449000D02*
D03*
X439000D02*
D03*
X434001D02*
D03*
X429000D02*
D03*
X424001D02*
D03*
X509000D02*
D03*
X419000D02*
D03*
X429000Y88999D02*
D03*
X424001D02*
D03*
X419000D02*
D03*
X429000Y94000D02*
D03*
X424001D02*
D03*
X504001D02*
D03*
X419000D02*
D03*
X429000Y98999D02*
D03*
X424001D02*
D03*
X504001D02*
D03*
X499000D02*
D03*
X419000D02*
D03*
X429000Y104000D02*
D03*
X424001D02*
D03*
X504001D02*
D03*
X499000D02*
D03*
X419000D02*
D03*
X429000Y108999D02*
D03*
X424001D02*
D03*
X509000D02*
D03*
X504001D02*
D03*
X419000D02*
D03*
X429000Y114000D02*
D03*
X424001D02*
D03*
X504001D02*
D03*
X499000D02*
D03*
X419000D02*
D03*
X429000Y118999D02*
D03*
X424001D02*
D03*
X509000D02*
D03*
X504001D02*
D03*
X499000D02*
D03*
X419000D02*
D03*
X429000Y124000D02*
D03*
X424001D02*
D03*
X509000D02*
D03*
X504001D02*
D03*
X499000D02*
D03*
X419000D02*
D03*
X429000Y128999D02*
D03*
X424001D02*
D03*
X509000D02*
D03*
X499000D02*
D03*
X419000D02*
D03*
X429000Y134000D02*
D03*
X424001D02*
D03*
X509000D02*
D03*
X504001D02*
D03*
X499000D02*
D03*
X419000D02*
D03*
X429000Y138999D02*
D03*
X424001D02*
D03*
X504001D02*
D03*
X419000D02*
D03*
X429000Y144000D02*
D03*
X424001D02*
D03*
X419000D02*
D03*
X429000Y148999D02*
D03*
X424001D02*
D03*
X509000D02*
D03*
X504001D02*
D03*
X499000D02*
D03*
X419000D02*
D03*
X444001Y154000D02*
D03*
X439000D02*
D03*
X434001D02*
D03*
X429000D02*
D03*
X424001D02*
D03*
X499000D02*
D03*
X494001D02*
D03*
X489000D02*
D03*
X419000D02*
D03*
X444001Y158999D02*
D03*
X439000D02*
D03*
X434001D02*
D03*
X429000D02*
D03*
X424001D02*
D03*
X504001D02*
D03*
X499000D02*
D03*
X494001D02*
D03*
X489000D02*
D03*
X419000D02*
D03*
X444001Y164000D02*
D03*
X439000D02*
D03*
X434001D02*
D03*
X429000D02*
D03*
X424001D02*
D03*
X504001D02*
D03*
X499000D02*
D03*
X494001D02*
D03*
X489000D02*
D03*
X484001D02*
D03*
X419000D02*
D03*
D21*
X343200Y212585D02*
D03*
X336700D02*
D03*
X330200D02*
D03*
X323700D02*
D03*
X317201D02*
D03*
D22*
X298201Y239585D02*
D03*
X362199D02*
D03*
D23*
X320200D02*
D03*
X340200D02*
D03*
D24*
X230000Y75000D02*
D03*
X235999D02*
D03*
X387500Y180000D02*
D03*
X393499D02*
D03*
X256999Y202500D02*
D03*
X262999D02*
D03*
D25*
X181000Y163500D02*
D03*
Y169499D02*
D03*
D26*
X192251Y108451D02*
D03*
Y149950D02*
D03*
X213750Y108451D02*
D03*
Y149950D02*
D03*
D27*
X226751Y116099D02*
D03*
Y101601D02*
D03*
X240249Y116099D02*
D03*
Y101601D02*
D03*
D28*
X226000Y108850D02*
D03*
X241001D02*
D03*
D29*
X404500Y208499D02*
D03*
Y186500D02*
D03*
X421500D02*
D03*
Y208499D02*
D03*
D30*
X601499Y153779D02*
D03*
Y161780D02*
D03*
Y169781D02*
D03*
Y177780D02*
D03*
Y185781D02*
D03*
Y193779D02*
D03*
Y201780D02*
D03*
Y209781D02*
D03*
X584501D02*
D03*
Y201780D02*
D03*
Y193779D02*
D03*
Y185781D02*
D03*
Y177780D02*
D03*
Y169781D02*
D03*
Y161780D02*
D03*
Y153779D02*
D03*
D31*
X438500Y213050D02*
D03*
Y200350D02*
D03*
Y187650D02*
D03*
Y174950D02*
D03*
X511500D02*
D03*
Y187650D02*
D03*
Y200350D02*
D03*
Y213050D02*
D03*
D32*
X314000Y30501D02*
D03*
X334000D02*
D03*
D33*
X290000Y53000D02*
D03*
X358000D02*
D03*
D34*
X277250Y193001D02*
D03*
X282251D02*
D03*
X287250D02*
D03*
X292251D02*
D03*
X297250D02*
D03*
X302251D02*
D03*
X307250D02*
D03*
X312251D02*
D03*
X317250D02*
D03*
X322251D02*
D03*
X327249D02*
D03*
X332251D02*
D03*
X337249D02*
D03*
X342251D02*
D03*
X347249D02*
D03*
X352251D02*
D03*
Y79000D02*
D03*
X347249D02*
D03*
X342251D02*
D03*
X337249D02*
D03*
X332251D02*
D03*
X327249D02*
D03*
X322251D02*
D03*
X317250D02*
D03*
X312251D02*
D03*
X307250D02*
D03*
X302251D02*
D03*
X297250D02*
D03*
X292251D02*
D03*
X287250D02*
D03*
X282251D02*
D03*
X277250D02*
D03*
D35*
X371750Y173501D02*
D03*
Y168500D02*
D03*
Y163501D02*
D03*
Y158500D02*
D03*
Y153501D02*
D03*
Y148500D02*
D03*
Y143501D02*
D03*
Y138500D02*
D03*
Y133501D02*
D03*
Y128500D02*
D03*
Y123501D02*
D03*
Y118500D02*
D03*
Y113501D02*
D03*
Y108500D02*
D03*
Y103501D02*
D03*
Y98500D02*
D03*
X257750D02*
D03*
Y103501D02*
D03*
Y108500D02*
D03*
Y113501D02*
D03*
Y118500D02*
D03*
Y123501D02*
D03*
Y128500D02*
D03*
Y133501D02*
D03*
Y138500D02*
D03*
Y143501D02*
D03*
Y148500D02*
D03*
Y153501D02*
D03*
Y158500D02*
D03*
Y163501D02*
D03*
Y168500D02*
D03*
Y173501D02*
D03*
D36*
X241501Y125850D02*
D03*
X225499D02*
D03*
X241501Y137850D02*
D03*
X225499D02*
D03*
X241501Y161850D02*
D03*
X225499D02*
D03*
X241501Y173850D02*
D03*
X225499D02*
D03*
X241501Y149850D02*
D03*
X225499D02*
D03*
M02*
