G04*
G04 #@! TF.GenerationSoftware,Altium Limited,Altium Designer Develop,26.10.1 (6)*
G04*
G04 Layer_Color=65535*
G04 Board_Origin=0|0*
%FSLAX44Y44*%
%MOMM*%
G71*
G04*
G04 #@! TF.SameCoordinates,A9621EFB-9CC0-472C-9223-69A3B7355EFD*
G04*
G04*
G04 #@! TF.FilePolarity,Positive*
G04*
G01*
G75*
%ADD10C,0.1500*%
%ADD11C,0.2000*%
%ADD12C,0.1524*%
D10*
X3302Y36610D02*
Y41942D01*
X5968Y44607D01*
X8634Y41942D01*
Y36610D01*
Y40609D01*
X3302D01*
X11299Y44607D02*
X13965D01*
X12632D01*
Y36610D01*
X11299D01*
X13965D01*
X17964D02*
X20630D01*
X19297D01*
Y44607D01*
X17964Y43274D01*
X11301Y24110D02*
Y32107D01*
X7302Y28109D01*
X12634D01*
X15299Y30775D02*
X16632Y32107D01*
X19298D01*
X20631Y30775D01*
Y25443D01*
X19298Y24110D01*
X16632D01*
X15299Y25443D01*
Y30775D01*
X28702Y36610D02*
Y41942D01*
X31368Y44607D01*
X34034Y41942D01*
Y36610D01*
Y40609D01*
X28702D01*
X36699Y44607D02*
X39365D01*
X38032D01*
Y36610D01*
X36699D01*
X39365D01*
X43364Y43274D02*
X44697Y44607D01*
X47363D01*
X48696Y43274D01*
Y37943D01*
X47363Y36610D01*
X44697D01*
X43364Y37943D01*
Y43274D01*
X32702Y30775D02*
X34035Y32107D01*
X36701D01*
X38034Y30775D01*
Y29442D01*
X36701Y28109D01*
X35368D01*
X36701D01*
X38034Y26776D01*
Y25443D01*
X36701Y24110D01*
X34035D01*
X32702Y25443D01*
X40699D02*
X42032Y24110D01*
X44698D01*
X46031Y25443D01*
Y30775D01*
X44698Y32107D01*
X42032D01*
X40699Y30775D01*
Y29442D01*
X42032Y28109D01*
X46031D01*
X59434Y43274D02*
X58101Y44607D01*
X55435D01*
X54102Y43274D01*
Y37943D01*
X55435Y36610D01*
X58101D01*
X59434Y37943D01*
X67431Y36610D02*
X62099D01*
X67431Y41942D01*
Y43274D01*
X66098Y44607D01*
X63432D01*
X62099Y43274D01*
X70097D02*
X71430Y44607D01*
X74096D01*
X75428Y43274D01*
Y41942D01*
X74096Y40609D01*
X75428Y39276D01*
Y37943D01*
X74096Y36610D01*
X71430D01*
X70097Y37943D01*
Y39276D01*
X71430Y40609D01*
X70097Y41942D01*
Y43274D01*
X71430Y40609D02*
X74096D01*
X58102Y30775D02*
X59435Y32107D01*
X62101D01*
X63434Y30775D01*
Y29442D01*
X62101Y28109D01*
X60768D01*
X62101D01*
X63434Y26776D01*
Y25443D01*
X62101Y24110D01*
X59435D01*
X58102Y25443D01*
X66099Y30775D02*
X67432Y32107D01*
X70098D01*
X71431Y30775D01*
Y29442D01*
X70098Y28109D01*
X71431Y26776D01*
Y25443D01*
X70098Y24110D01*
X67432D01*
X66099Y25443D01*
Y26776D01*
X67432Y28109D01*
X66099Y29442D01*
Y30775D01*
X67432Y28109D02*
X70098D01*
X84834Y43274D02*
X83501Y44607D01*
X80835D01*
X79502Y43274D01*
Y37943D01*
X80835Y36610D01*
X83501D01*
X84834Y37943D01*
X92831Y36610D02*
X87499D01*
X92831Y41942D01*
Y43274D01*
X91498Y44607D01*
X88832D01*
X87499Y43274D01*
X95497Y44607D02*
X100828D01*
Y43274D01*
X95497Y37943D01*
Y36610D01*
X83502Y30775D02*
X84835Y32107D01*
X87501D01*
X88834Y30775D01*
Y29442D01*
X87501Y28109D01*
X86168D01*
X87501D01*
X88834Y26776D01*
Y25443D01*
X87501Y24110D01*
X84835D01*
X83502Y25443D01*
X91499Y32107D02*
X96831D01*
Y30775D01*
X91499Y25443D01*
Y24110D01*
X110234Y43274D02*
X108901Y44607D01*
X106235D01*
X104902Y43274D01*
Y37943D01*
X106235Y36610D01*
X108901D01*
X110234Y37943D01*
X118231Y36610D02*
X112899D01*
X118231Y41942D01*
Y43274D01*
X116898Y44607D01*
X114232D01*
X112899Y43274D01*
X126228Y44607D02*
X123563Y43274D01*
X120897Y40609D01*
Y37943D01*
X122230Y36610D01*
X124896D01*
X126228Y37943D01*
Y39276D01*
X124896Y40609D01*
X120897D01*
X108902Y30775D02*
X110235Y32107D01*
X112901D01*
X114234Y30775D01*
Y29442D01*
X112901Y28109D01*
X111568D01*
X112901D01*
X114234Y26776D01*
Y25443D01*
X112901Y24110D01*
X110235D01*
X108902Y25443D01*
X122231Y32107D02*
X119565Y30775D01*
X116899Y28109D01*
Y25443D01*
X118232Y24110D01*
X120898D01*
X122231Y25443D01*
Y26776D01*
X120898Y28109D01*
X116899D01*
X135634Y43274D02*
X134301Y44607D01*
X131635D01*
X130302Y43274D01*
Y37943D01*
X131635Y36610D01*
X134301D01*
X135634Y37943D01*
X143631Y36610D02*
X138299D01*
X143631Y41942D01*
Y43274D01*
X142298Y44607D01*
X139632D01*
X138299Y43274D01*
X151628Y44607D02*
X146297D01*
Y40609D01*
X148963Y41942D01*
X150296D01*
X151628Y40609D01*
Y37943D01*
X150296Y36610D01*
X147630D01*
X146297Y37943D01*
X134302Y30775D02*
X135635Y32107D01*
X138301D01*
X139634Y30775D01*
Y29442D01*
X138301Y28109D01*
X136968D01*
X138301D01*
X139634Y26776D01*
Y25443D01*
X138301Y24110D01*
X135635D01*
X134302Y25443D01*
X147631Y32107D02*
X142299D01*
Y28109D01*
X144965Y29442D01*
X146298D01*
X147631Y28109D01*
Y25443D01*
X146298Y24110D01*
X143632D01*
X142299Y25443D01*
X161034Y43274D02*
X159701Y44607D01*
X157035D01*
X155702Y43274D01*
Y37943D01*
X157035Y36610D01*
X159701D01*
X161034Y37943D01*
X169031Y36610D02*
X163699D01*
X169031Y41942D01*
Y43274D01*
X167698Y44607D01*
X165032D01*
X163699Y43274D01*
X175696Y36610D02*
Y44607D01*
X171697Y40609D01*
X177028D01*
X159702Y30775D02*
X161035Y32107D01*
X163701D01*
X165034Y30775D01*
Y29442D01*
X163701Y28109D01*
X162368D01*
X163701D01*
X165034Y26776D01*
Y25443D01*
X163701Y24110D01*
X161035D01*
X159702Y25443D01*
X171698Y24110D02*
Y32107D01*
X167699Y28109D01*
X173031D01*
X186434Y43274D02*
X185101Y44607D01*
X182435D01*
X181102Y43274D01*
Y37943D01*
X182435Y36610D01*
X185101D01*
X186434Y37943D01*
X194431Y36610D02*
X189099D01*
X194431Y41942D01*
Y43274D01*
X193098Y44607D01*
X190432D01*
X189099Y43274D01*
X197097D02*
X198430Y44607D01*
X201096D01*
X202428Y43274D01*
Y41942D01*
X201096Y40609D01*
X199763D01*
X201096D01*
X202428Y39276D01*
Y37943D01*
X201096Y36610D01*
X198430D01*
X197097Y37943D01*
X185102Y30775D02*
X186435Y32107D01*
X189101D01*
X190434Y30775D01*
Y29442D01*
X189101Y28109D01*
X187768D01*
X189101D01*
X190434Y26776D01*
Y25443D01*
X189101Y24110D01*
X186435D01*
X185102Y25443D01*
X193099Y30775D02*
X194432Y32107D01*
X197098D01*
X198431Y30775D01*
Y29442D01*
X197098Y28109D01*
X195765D01*
X197098D01*
X198431Y26776D01*
Y25443D01*
X197098Y24110D01*
X194432D01*
X193099Y25443D01*
X211834Y43274D02*
X210501Y44607D01*
X207835D01*
X206502Y43274D01*
Y37943D01*
X207835Y36610D01*
X210501D01*
X211834Y37943D01*
X219831Y36610D02*
X214499D01*
X219831Y41942D01*
Y43274D01*
X218498Y44607D01*
X215832D01*
X214499Y43274D01*
X227828Y36610D02*
X222497D01*
X227828Y41942D01*
Y43274D01*
X226496Y44607D01*
X223830D01*
X222497Y43274D01*
X210502Y30775D02*
X211835Y32107D01*
X214501D01*
X215834Y30775D01*
Y29442D01*
X214501Y28109D01*
X213168D01*
X214501D01*
X215834Y26776D01*
Y25443D01*
X214501Y24110D01*
X211835D01*
X210502Y25443D01*
X223831Y24110D02*
X218499D01*
X223831Y29442D01*
Y30775D01*
X222498Y32107D01*
X219832D01*
X218499Y30775D01*
X237234Y43274D02*
X235901Y44607D01*
X233235D01*
X231902Y43274D01*
Y37943D01*
X233235Y36610D01*
X235901D01*
X237234Y37943D01*
X245231Y36610D02*
X239899D01*
X245231Y41942D01*
Y43274D01*
X243898Y44607D01*
X241232D01*
X239899Y43274D01*
X247897Y36610D02*
X250563D01*
X249230D01*
Y44607D01*
X247897Y43274D01*
X235902Y30775D02*
X237235Y32107D01*
X239901D01*
X241234Y30775D01*
Y29442D01*
X239901Y28109D01*
X238568D01*
X239901D01*
X241234Y26776D01*
Y25443D01*
X239901Y24110D01*
X237235D01*
X235902Y25443D01*
X243899Y24110D02*
X246565D01*
X245232D01*
Y32107D01*
X243899Y30775D01*
X264035Y24110D02*
X262703Y25443D01*
Y28109D01*
X264035Y29442D01*
X265368D01*
X266701Y28109D01*
Y26776D01*
Y28109D01*
X268034Y29442D01*
X269367D01*
X270700Y28109D01*
Y25443D01*
X269367Y24110D01*
X264035Y32107D02*
X262703Y33440D01*
Y36106D01*
X264035Y37439D01*
X269367D01*
X270700Y36106D01*
Y33440D01*
X269367Y32107D01*
X264035D01*
Y53434D02*
X262703Y52101D01*
Y49435D01*
X264035Y48102D01*
X269367D01*
X270700Y49435D01*
Y52101D01*
X269367Y53434D01*
X270700Y61431D02*
Y56100D01*
X265368Y61431D01*
X264035D01*
X262703Y60098D01*
Y57433D01*
X264035Y56100D01*
Y64097D02*
X262703Y65430D01*
Y68096D01*
X264035Y69429D01*
X269367D01*
X270700Y68096D01*
Y65430D01*
X269367Y64097D01*
X264035D01*
X388364Y43274D02*
X387031Y44607D01*
X384365D01*
X383032Y43274D01*
Y37943D01*
X384365Y36610D01*
X387031D01*
X388364Y37943D01*
X391029Y36610D02*
X393695D01*
X392362D01*
Y44607D01*
X391029Y43274D01*
X397694Y37943D02*
X399027Y36610D01*
X401693D01*
X403026Y37943D01*
Y43274D01*
X401693Y44607D01*
X399027D01*
X397694Y43274D01*
Y41942D01*
X399027Y40609D01*
X403026D01*
X392364Y24110D02*
X387032D01*
X392364Y29442D01*
Y30775D01*
X391031Y32107D01*
X388365D01*
X387032Y30775D01*
X395029Y25443D02*
X396362Y24110D01*
X399028D01*
X400361Y25443D01*
Y30775D01*
X399028Y32107D01*
X396362D01*
X395029Y30775D01*
Y29442D01*
X396362Y28109D01*
X400361D01*
X413764Y43274D02*
X412431Y44607D01*
X409765D01*
X408432Y43274D01*
Y37943D01*
X409765Y36610D01*
X412431D01*
X413764Y37943D01*
X416429Y36610D02*
X419095D01*
X417762D01*
Y44607D01*
X416429Y43274D01*
X423094D02*
X424427Y44607D01*
X427093D01*
X428426Y43274D01*
Y41942D01*
X427093Y40609D01*
X428426Y39276D01*
Y37943D01*
X427093Y36610D01*
X424427D01*
X423094Y37943D01*
Y39276D01*
X424427Y40609D01*
X423094Y41942D01*
Y43274D01*
X424427Y40609D02*
X427093D01*
X417764Y24110D02*
X412432D01*
X417764Y29442D01*
Y30775D01*
X416431Y32107D01*
X413765D01*
X412432Y30775D01*
X420429D02*
X421762Y32107D01*
X424428D01*
X425761Y30775D01*
Y29442D01*
X424428Y28109D01*
X425761Y26776D01*
Y25443D01*
X424428Y24110D01*
X421762D01*
X420429Y25443D01*
Y26776D01*
X421762Y28109D01*
X420429Y29442D01*
Y30775D01*
X421762Y28109D02*
X424428D01*
X439164Y43274D02*
X437831Y44607D01*
X435165D01*
X433832Y43274D01*
Y37943D01*
X435165Y36610D01*
X437831D01*
X439164Y37943D01*
X441829Y36610D02*
X444495D01*
X443162D01*
Y44607D01*
X441829Y43274D01*
X448494Y44607D02*
X453826D01*
Y43274D01*
X448494Y37943D01*
Y36610D01*
X443164Y24110D02*
X437832D01*
X443164Y29442D01*
Y30775D01*
X441831Y32107D01*
X439165D01*
X437832Y30775D01*
X445829Y32107D02*
X451161D01*
Y30775D01*
X445829Y25443D01*
Y24110D01*
X464564Y43274D02*
X463231Y44607D01*
X460565D01*
X459232Y43274D01*
Y37943D01*
X460565Y36610D01*
X463231D01*
X464564Y37943D01*
X467229Y36610D02*
X469895D01*
X468562D01*
Y44607D01*
X467229Y43274D01*
X479226Y44607D02*
X476560Y43274D01*
X473894Y40609D01*
Y37943D01*
X475227Y36610D01*
X477893D01*
X479226Y37943D01*
Y39276D01*
X477893Y40609D01*
X473894D01*
X468564Y24110D02*
X463232D01*
X468564Y29442D01*
Y30775D01*
X467231Y32107D01*
X464565D01*
X463232Y30775D01*
X476561Y32107D02*
X473895Y30775D01*
X471229Y28109D01*
Y25443D01*
X472562Y24110D01*
X475228D01*
X476561Y25443D01*
Y26776D01*
X475228Y28109D01*
X471229D01*
X489964Y43274D02*
X488631Y44607D01*
X485965D01*
X484632Y43274D01*
Y37943D01*
X485965Y36610D01*
X488631D01*
X489964Y37943D01*
X492629Y36610D02*
X495295D01*
X493962D01*
Y44607D01*
X492629Y43274D01*
X504626Y44607D02*
X499294D01*
Y40609D01*
X501960Y41942D01*
X503293D01*
X504626Y40609D01*
Y37943D01*
X503293Y36610D01*
X500627D01*
X499294Y37943D01*
X493964Y24110D02*
X488632D01*
X493964Y29442D01*
Y30775D01*
X492631Y32107D01*
X489965D01*
X488632Y30775D01*
X501961Y32107D02*
X496629D01*
Y28109D01*
X499295Y29442D01*
X500628D01*
X501961Y28109D01*
Y25443D01*
X500628Y24110D01*
X497962D01*
X496629Y25443D01*
X515364Y43274D02*
X514031Y44607D01*
X511365D01*
X510032Y43274D01*
Y37943D01*
X511365Y36610D01*
X514031D01*
X515364Y37943D01*
X518029Y36610D02*
X520695D01*
X519362D01*
Y44607D01*
X518029Y43274D01*
X528693Y36610D02*
Y44607D01*
X524694Y40609D01*
X530026D01*
X519364Y24110D02*
X514032D01*
X519364Y29442D01*
Y30775D01*
X518031Y32107D01*
X515365D01*
X514032Y30775D01*
X526028Y24110D02*
Y32107D01*
X522029Y28109D01*
X527361D01*
X535432Y36610D02*
Y44607D01*
X539431D01*
X540764Y43274D01*
Y40609D01*
X539431Y39276D01*
X535432D01*
X538098D02*
X540764Y36610D01*
X548761Y43274D02*
X547428Y44607D01*
X544762D01*
X543429Y43274D01*
Y41942D01*
X544762Y40609D01*
X547428D01*
X548761Y39276D01*
Y37943D01*
X547428Y36610D01*
X544762D01*
X543429Y37943D01*
X551427Y44607D02*
X556758D01*
X554093D01*
Y36610D01*
X544764Y24110D02*
X539432D01*
X544764Y29442D01*
Y30775D01*
X543431Y32107D01*
X540765D01*
X539432Y30775D01*
X547429D02*
X548762Y32107D01*
X551428D01*
X552761Y30775D01*
Y29442D01*
X551428Y28109D01*
X550095D01*
X551428D01*
X552761Y26776D01*
Y25443D01*
X551428Y24110D01*
X548762D01*
X547429Y25443D01*
X564832Y44607D02*
Y39276D01*
X567498Y36610D01*
X570164Y39276D01*
Y44607D01*
X572829D02*
Y37943D01*
X574162Y36610D01*
X576828D01*
X578161Y37943D01*
Y44607D01*
X570164Y24110D02*
X564832D01*
X570164Y29442D01*
Y30775D01*
X568831Y32107D01*
X566165D01*
X564832Y30775D01*
X578161Y24110D02*
X572829D01*
X578161Y29442D01*
Y30775D01*
X576828Y32107D01*
X574162D01*
X572829Y30775D01*
X600900Y29442D02*
Y24110D01*
X595568Y29442D01*
X594235D01*
X592903Y28109D01*
Y25443D01*
X594235Y24110D01*
X600900Y32107D02*
Y34773D01*
Y33440D01*
X592903D01*
X594235Y32107D01*
Y52101D02*
X592903Y50768D01*
Y48102D01*
X594235Y46769D01*
X599567D01*
X600900Y48102D01*
Y50768D01*
X599567Y52101D01*
X596901D01*
Y49435D01*
X600900Y54767D02*
X592903D01*
X600900Y60098D01*
X592903D01*
Y62764D02*
X600900D01*
Y66763D01*
X599567Y68096D01*
X594235D01*
X592903Y66763D01*
Y62764D01*
X3302Y209390D02*
X5968D01*
X4635D01*
Y217387D01*
X3302Y216054D01*
X9966Y217387D02*
Y212056D01*
X12632Y209390D01*
X15298Y212056D01*
Y217387D01*
X17964Y216054D02*
X19297Y217387D01*
X21963D01*
X23296Y216054D01*
Y210723D01*
X21963Y209390D01*
X19297D01*
X17964Y210723D01*
Y216054D01*
X12634Y221890D02*
X7302D01*
X12634Y227222D01*
Y228554D01*
X11301Y229887D01*
X8635D01*
X7302Y228554D01*
X15299D02*
X16632Y229887D01*
X19298D01*
X20631Y228554D01*
Y223223D01*
X19298Y221890D01*
X16632D01*
X15299Y223223D01*
Y228554D01*
X28702Y209390D02*
X31368D01*
X30035D01*
Y217387D01*
X28702Y216054D01*
X35366Y217387D02*
Y212056D01*
X38032Y209390D01*
X40698Y212056D01*
Y217387D01*
X43364Y216054D02*
X44697Y217387D01*
X47363D01*
X48696Y216054D01*
Y214722D01*
X47363Y213389D01*
X48696Y212056D01*
Y210723D01*
X47363Y209390D01*
X44697D01*
X43364Y210723D01*
Y212056D01*
X44697Y213389D01*
X43364Y214722D01*
Y216054D01*
X44697Y213389D02*
X47363D01*
X32702Y221890D02*
X35368D01*
X34035D01*
Y229887D01*
X32702Y228554D01*
X39367Y223223D02*
X40699Y221890D01*
X43365D01*
X44698Y223223D01*
Y228554D01*
X43365Y229887D01*
X40699D01*
X39367Y228554D01*
Y227222D01*
X40699Y225889D01*
X44698D01*
X54102Y216054D02*
X55435Y217387D01*
X58101D01*
X59434Y216054D01*
Y214722D01*
X58101Y213389D01*
X56768D01*
X58101D01*
X59434Y212056D01*
Y210723D01*
X58101Y209390D01*
X55435D01*
X54102Y210723D01*
X62099Y217387D02*
Y212056D01*
X64765Y209390D01*
X67431Y212056D01*
Y217387D01*
X70097Y216054D02*
X71430Y217387D01*
X74096D01*
X75428Y216054D01*
Y214722D01*
X74096Y213389D01*
X72763D01*
X74096D01*
X75428Y212056D01*
Y210723D01*
X74096Y209390D01*
X71430D01*
X70097Y210723D01*
X58102Y221890D02*
X60768D01*
X59435D01*
Y229887D01*
X58102Y228554D01*
X64767D02*
X66099Y229887D01*
X68765D01*
X70098Y228554D01*
Y227222D01*
X68765Y225889D01*
X70098Y224556D01*
Y223223D01*
X68765Y221890D01*
X66099D01*
X64767Y223223D01*
Y224556D01*
X66099Y225889D01*
X64767Y227222D01*
Y228554D01*
X66099Y225889D02*
X68765D01*
X84834Y216054D02*
X83501Y217387D01*
X80835D01*
X79502Y216054D01*
Y210723D01*
X80835Y209390D01*
X83501D01*
X84834Y210723D01*
Y213389D01*
X82168D01*
X87499Y209390D02*
Y217387D01*
X92831Y209390D01*
Y217387D01*
X95497D02*
Y209390D01*
X99496D01*
X100828Y210723D01*
Y216054D01*
X99496Y217387D01*
X95497D01*
X83502Y221890D02*
X86168D01*
X84835D01*
Y229887D01*
X83502Y228554D01*
X90167Y229887D02*
X95498D01*
Y228554D01*
X90167Y223223D01*
Y221890D01*
X110234Y216054D02*
X108901Y217387D01*
X106235D01*
X104902Y216054D01*
Y210723D01*
X106235Y209390D01*
X108901D01*
X110234Y210723D01*
X112899Y209390D02*
X115565D01*
X114232D01*
Y217387D01*
X112899Y216054D01*
X119564D02*
X120897Y217387D01*
X123563D01*
X124896Y216054D01*
Y214722D01*
X123563Y213389D01*
X122230D01*
X123563D01*
X124896Y212056D01*
Y210723D01*
X123563Y209390D01*
X120897D01*
X119564Y210723D01*
X108902Y221890D02*
X111568D01*
X110235D01*
Y229887D01*
X108902Y228554D01*
X120898Y229887D02*
X118232Y228554D01*
X115567Y225889D01*
Y223223D01*
X116899Y221890D01*
X119565D01*
X120898Y223223D01*
Y224556D01*
X119565Y225889D01*
X115567D01*
X135634Y216054D02*
X134301Y217387D01*
X131635D01*
X130302Y216054D01*
Y210723D01*
X131635Y209390D01*
X134301D01*
X135634Y210723D01*
X138299Y209390D02*
X140965D01*
X139632D01*
Y217387D01*
X138299Y216054D01*
X150296Y209390D02*
X144964D01*
X150296Y214722D01*
Y216054D01*
X148963Y217387D01*
X146297D01*
X144964Y216054D01*
X134302Y221890D02*
X136968D01*
X135635D01*
Y229887D01*
X134302Y228554D01*
X146298Y229887D02*
X140967D01*
Y225889D01*
X143632Y227222D01*
X144965D01*
X146298Y225889D01*
Y223223D01*
X144965Y221890D01*
X142299D01*
X140967Y223223D01*
X161034Y216054D02*
X159701Y217387D01*
X157035D01*
X155702Y216054D01*
Y210723D01*
X157035Y209390D01*
X159701D01*
X161034Y210723D01*
X163699Y209390D02*
X166365D01*
X165032D01*
Y217387D01*
X163699Y216054D01*
X170364Y209390D02*
X173030D01*
X171697D01*
Y217387D01*
X170364Y216054D01*
X159702Y221890D02*
X162368D01*
X161035D01*
Y229887D01*
X159702Y228554D01*
X170365Y221890D02*
Y229887D01*
X166367Y225889D01*
X171698D01*
X186434Y216054D02*
X185101Y217387D01*
X182435D01*
X181102Y216054D01*
Y210723D01*
X182435Y209390D01*
X185101D01*
X186434Y210723D01*
X189099Y209390D02*
X191765D01*
X190432D01*
Y217387D01*
X189099Y216054D01*
X195764D02*
X197097Y217387D01*
X199763D01*
X201096Y216054D01*
Y210723D01*
X199763Y209390D01*
X197097D01*
X195764Y210723D01*
Y216054D01*
X185102Y221890D02*
X187768D01*
X186435D01*
Y229887D01*
X185102Y228554D01*
X191766D02*
X193099Y229887D01*
X195765D01*
X197098Y228554D01*
Y227222D01*
X195765Y225889D01*
X194432D01*
X195765D01*
X197098Y224556D01*
Y223223D01*
X195765Y221890D01*
X193099D01*
X191766Y223223D01*
X215834Y216054D02*
X214501Y217387D01*
X211835D01*
X210502Y216054D01*
Y210723D01*
X211835Y209390D01*
X214501D01*
X215834Y210723D01*
X218499D02*
X219832Y209390D01*
X222498D01*
X223831Y210723D01*
Y216054D01*
X222498Y217387D01*
X219832D01*
X218499Y216054D01*
Y214722D01*
X219832Y213389D01*
X223831D01*
X210502Y221890D02*
X213168D01*
X211835D01*
Y229887D01*
X210502Y228554D01*
X222498Y221890D02*
X217167D01*
X222498Y227222D01*
Y228554D01*
X221165Y229887D01*
X218499D01*
X217167Y228554D01*
X241234Y216054D02*
X239901Y217387D01*
X237235D01*
X235902Y216054D01*
Y210723D01*
X237235Y209390D01*
X239901D01*
X241234Y210723D01*
X243899Y216054D02*
X245232Y217387D01*
X247898D01*
X249231Y216054D01*
Y214722D01*
X247898Y213389D01*
X249231Y212056D01*
Y210723D01*
X247898Y209390D01*
X245232D01*
X243899Y210723D01*
Y212056D01*
X245232Y213389D01*
X243899Y214722D01*
Y216054D01*
X245232Y213389D02*
X247898D01*
X235902Y221890D02*
X238568D01*
X237235D01*
Y229887D01*
X235902Y228554D01*
X242567Y221890D02*
X245232D01*
X243899D01*
Y229887D01*
X242567Y228554D01*
X266634Y216054D02*
X265301Y217387D01*
X262635D01*
X261302Y216054D01*
Y210723D01*
X262635Y209390D01*
X265301D01*
X266634Y210723D01*
X269299Y217387D02*
X274631D01*
Y216054D01*
X269299Y210723D01*
Y209390D01*
X261302Y221890D02*
X263968D01*
X262635D01*
Y229887D01*
X261302Y228554D01*
X267966D02*
X269299Y229887D01*
X271965D01*
X273298Y228554D01*
Y223223D01*
X271965Y221890D01*
X269299D01*
X267966Y223223D01*
Y228554D01*
X544764Y216054D02*
X543431Y217387D01*
X540765D01*
X539432Y216054D01*
Y210723D01*
X540765Y209390D01*
X543431D01*
X544764Y210723D01*
X547429Y216054D02*
X548762Y217387D01*
X551428D01*
X552761Y216054D01*
Y210723D01*
X551428Y209390D01*
X548762D01*
X547429Y210723D01*
Y216054D01*
X543432Y228554D02*
X544765Y229887D01*
X547431D01*
X548764Y228554D01*
Y227222D01*
X547431Y225889D01*
X546098D01*
X547431D01*
X548764Y224556D01*
Y223223D01*
X547431Y221890D01*
X544765D01*
X543432Y223223D01*
X575500Y197886D02*
Y192554D01*
X570168Y197886D01*
X568835D01*
X567503Y196553D01*
Y193887D01*
X568835Y192554D01*
Y213880D02*
X567503Y212548D01*
Y209882D01*
X568835Y208549D01*
X574167D01*
X575500Y209882D01*
Y212548D01*
X574167Y213880D01*
X567503Y216546D02*
X575500D01*
Y221878D01*
X567503Y224544D02*
X575500D01*
X572834D01*
X567503Y229875D01*
X571501Y225877D01*
X575500Y229875D01*
D11*
X375000Y65995D02*
X385663D01*
Y63329D01*
X375000Y52666D01*
Y50000D01*
X385663D01*
X390995Y65995D02*
Y52666D01*
X393661Y50000D01*
X398992D01*
X401658Y52666D01*
Y65995D01*
X406990D02*
Y50000D01*
X417653D01*
X422984Y65995D02*
Y52666D01*
X425650Y50000D01*
X430982D01*
X433648Y52666D01*
Y65995D01*
X454974Y50000D02*
Y60663D01*
X460306Y65995D01*
X465637Y60663D01*
Y50000D01*
Y57997D01*
X454974D01*
X470969Y65995D02*
X481632D01*
Y63329D01*
X470969Y52666D01*
Y50000D01*
D12*
X26585Y198499D02*
X31917Y190501D01*
Y198499D02*
X26585Y190501D01*
X34583Y197166D02*
X35916Y198499D01*
X38582D01*
X39915Y197166D01*
Y195833D01*
X38582Y194500D01*
X37249D01*
X38582D01*
X39915Y193167D01*
Y191834D01*
X38582Y190501D01*
X35916D01*
X34583Y191834D01*
X374420Y230498D02*
X379752Y222500D01*
Y230498D02*
X374420Y222500D01*
X382418D02*
X385084D01*
X383751D01*
Y230498D01*
X382418Y229165D01*
X235090Y204388D02*
Y197723D01*
X236423Y196390D01*
X239089D01*
X240422Y197723D01*
Y204388D01*
X248421Y196390D02*
X243088D01*
X248421Y201722D01*
Y203055D01*
X247088Y204388D01*
X244422D01*
X243088Y203055D01*
X392168Y174249D02*
Y167584D01*
X393501Y166251D01*
X396167D01*
X397500Y167584D01*
Y174249D01*
X400166Y166251D02*
X402832D01*
X401499D01*
Y174249D01*
X400166Y172916D01*
X586232Y220980D02*
Y228978D01*
X590231D01*
X591564Y227645D01*
Y224979D01*
X590231Y223646D01*
X586232D01*
X588898D02*
X591564Y220980D01*
X598230D02*
Y228978D01*
X594230Y224979D01*
X599563D01*
X641168Y24999D02*
X638502D01*
X639835D01*
Y18334D01*
X638502Y17001D01*
X637169D01*
X635835Y18334D01*
X643834Y17001D02*
Y24999D01*
X647833D01*
X649166Y23666D01*
Y21000D01*
X647833Y19667D01*
X643834D01*
X655832Y17001D02*
Y24999D01*
X651832Y21000D01*
X657165D01*
X639168Y237249D02*
X636502D01*
X637835D01*
Y230584D01*
X636502Y229251D01*
X635168D01*
X633835Y230584D01*
X641834Y229251D02*
Y237249D01*
X645833D01*
X647166Y235916D01*
Y233250D01*
X645833Y231917D01*
X641834D01*
X649832Y235916D02*
X651165Y237249D01*
X653831D01*
X655165Y235916D01*
Y234583D01*
X653831Y233250D01*
X652498D01*
X653831D01*
X655165Y231917D01*
Y230584D01*
X653831Y229251D01*
X651165D01*
X649832Y230584D01*
X187278Y170304D02*
Y162306D01*
X191277D01*
X192610Y163639D01*
Y164972D01*
X191277Y166305D01*
X187278D01*
X191277D01*
X192610Y167638D01*
Y168971D01*
X191277Y170304D01*
X187278D01*
X195276D02*
X200609D01*
X197943D01*
Y162306D01*
X203275D02*
Y170304D01*
X208607Y162306D01*
Y170304D01*
M02*
